{"glyphs":{"0":{"ha":826,"x_min":61,"x_max":765,"o":"m 588 422 q 538 648 588 575 q 413 721 489 721 q 288 647 336 721 q 239 422 239 574 q 284 198 239 274 q 413 122 329 122 q 542 198 496 122 q 588 422 588 274 m 413 -21 q 270 7 335 -21 q 159 90 206 35 q 87 228 113 144 q 61 422 61 311 q 89 618 61 535 q 164 756 117 701 q 275 838 211 811 q 413 864 339 864 q 550 837 486 864 q 662 756 614 810 q 738 618 710 701 q 765 422 765 535 q 740 228 765 311 q 667 90 714 146 q 555 7 619 35 q 413 -21 490 -21 z "},"1":{"ha":522,"x_min":17,"x_max":404,"o":"m 69 614 q 33 643 50 624 q 17 696 17 663 q 93 786 17 757 l 268 854 l 307 854 q 378 828 351 854 q 404 758 404 803 l 404 0 q 370 -7 392 -3 q 324 -11 349 -11 q 251 7 274 -11 q 228 71 228 25 l 228 676 l 69 614 z "},"2":{"ha":715,"x_min":50,"x_max":646,"o":"m 82 739 q 100 790 82 767 q 150 829 118 813 q 227 855 182 846 q 325 864 272 864 q 458 845 400 864 q 555 793 515 826 q 615 714 594 760 q 635 613 635 668 q 594 467 635 538 q 458 315 553 396 l 256 139 l 628 139 q 640 110 635 128 q 646 71 646 92 q 629 17 646 35 q 583 0 613 0 l 97 0 q 63 39 75 15 q 50 94 50 63 q 65 154 50 129 q 99 197 79 179 l 319 399 q 426 515 397 468 q 456 606 456 561 q 418 689 456 657 q 308 721 381 721 q 204 702 250 721 q 128 661 158 683 q 95 692 108 672 q 82 739 82 711 z "},"3":{"ha":711,"x_min":39,"x_max":647,"o":"m 313 864 q 542 801 460 864 q 624 626 624 739 q 612 558 624 589 q 582 505 600 528 q 542 466 564 482 q 497 442 519 450 q 552 415 525 432 q 600 373 579 399 q 634 313 621 347 q 647 235 647 279 q 623 126 647 174 q 555 47 599 79 q 450 -3 511 14 q 317 -19 389 -19 q 200 -10 251 -19 q 113 17 149 0 q 58 58 76 35 q 39 108 39 82 q 53 158 39 138 q 90 190 68 179 q 171 145 122 167 q 299 124 219 124 q 426 156 381 124 q 471 247 471 188 q 431 334 471 303 q 308 365 392 365 l 185 365 q 172 394 178 376 q 167 435 167 413 q 172 476 167 458 q 185 506 178 494 l 304 506 q 413 535 379 506 q 447 613 447 564 q 407 693 447 664 q 292 722 367 722 q 183 705 229 722 q 106 667 138 688 q 74 699 88 679 q 60 744 60 718 q 78 793 60 771 q 131 831 97 815 q 210 856 164 847 q 313 864 257 864 z "},"4":{"ha":800,"x_min":40,"x_max":775,"o":"m 419 840 q 465 850 439 846 q 510 854 490 854 q 556 849 533 854 q 595 833 578 844 q 623 803 613 822 q 633 754 633 783 l 633 328 l 757 328 q 769 298 764 317 q 775 258 775 279 q 758 203 775 221 q 711 185 740 185 l 633 185 l 633 0 q 600 -7 622 -3 q 556 -11 578 -11 q 486 3 511 -11 q 461 64 461 17 l 461 185 l 97 185 q 57 222 74 196 q 40 283 40 247 q 44 324 40 303 q 60 361 49 344 l 419 840 m 469 675 l 467 675 l 228 328 l 468 328 l 469 675 z "},"5":{"ha":736,"x_min":78,"x_max":685,"o":"m 118 747 q 146 818 121 792 q 215 844 171 844 l 628 844 q 641 815 635 833 q 647 775 647 797 q 630 719 647 739 q 583 700 613 700 l 274 700 l 257 513 q 317 531 282 522 q 396 539 351 539 q 516 519 463 539 q 607 464 569 500 q 665 377 644 428 q 685 265 685 326 q 664 155 685 207 q 602 64 643 103 q 499 2 561 25 q 353 -21 436 -21 q 240 -10 290 -21 q 153 18 189 0 q 97 60 117 36 q 78 114 78 85 q 96 166 78 144 q 136 199 114 188 q 220 146 171 171 q 344 121 269 121 q 465 162 424 121 q 506 265 506 203 q 466 364 506 328 q 353 400 426 400 q 277 388 310 400 q 213 358 244 376 q 128 388 160 361 q 96 468 96 415 q 97 484 96 475 q 99 510 97 493 l 118 747 l 118 747 z "},"6":{"ha":769,"x_min":61,"x_max":714,"o":"m 651 760 q 640 716 651 736 q 614 685 629 696 q 540 710 579 700 q 461 721 500 721 q 306 660 365 721 q 238 478 247 600 q 316 525 265 501 q 433 549 367 549 q 547 531 496 549 q 636 477 599 513 q 694 389 674 442 q 714 268 714 336 q 693 153 714 206 q 632 62 672 100 q 533 1 592 24 q 400 -21 475 -21 q 261 5 324 -21 q 154 83 199 31 q 85 214 110 135 q 61 399 61 293 q 91 609 61 521 q 173 754 121 697 q 294 838 225 811 q 443 864 364 864 q 594 838 536 864 q 651 760 651 811 m 401 121 q 501 160 464 121 q 538 269 538 200 q 500 374 538 339 q 400 410 463 410 q 308 388 350 410 q 240 335 265 367 l 243 321 q 285 173 243 225 q 401 121 328 121 z "},"7":{"ha":653,"x_min":31,"x_max":633,"o":"m 586 844 q 619 811 606 832 q 633 761 633 790 q 615 686 633 724 l 299 -8 q 271 -10 283 -10 q 247 -10 258 -10 q 172 10 201 -10 q 143 69 143 29 q 153 117 143 92 q 181 178 164 143 l 438 700 l 50 700 q 37 730 43 711 q 31 769 31 749 q 48 826 31 808 q 94 844 65 844 l 586 844 z "},"8":{"ha":783,"x_min":63,"x_max":726,"o":"m 63 229 q 105 363 63 311 q 208 442 147 415 q 117 515 150 469 q 83 628 83 561 q 106 726 83 682 q 169 801 128 771 q 267 849 210 832 q 393 865 324 865 q 622 802 539 865 q 706 626 706 739 q 667 510 706 556 q 571 440 629 464 q 630 409 601 428 q 680 365 658 390 q 714 304 701 339 q 726 226 726 269 q 702 122 726 168 q 634 44 678 76 q 529 -5 590 13 q 393 -22 468 -22 q 258 -5 318 -22 q 153 44 197 13 q 86 124 110 76 q 63 229 63 171 m 551 238 q 505 332 551 294 q 376 382 458 369 q 273 327 308 365 q 238 236 238 289 q 279 147 238 178 q 393 115 321 115 q 508 146 464 115 q 551 238 551 176 m 257 621 q 299 533 257 563 q 406 496 340 504 q 500 544 468 514 q 532 621 532 574 q 495 701 532 672 q 393 729 458 729 q 294 699 331 729 q 257 621 257 669 z "},"9":{"ha":771,"x_min":57,"x_max":710,"o":"m 104 85 q 116 129 104 108 q 143 161 128 150 q 217 134 175 146 q 304 122 258 122 q 469 181 404 122 q 533 365 533 240 q 462 322 510 343 q 347 300 414 300 q 233 316 286 300 q 141 366 181 332 q 79 451 101 400 q 57 574 57 503 q 78 690 57 636 q 141 781 100 743 q 240 842 182 819 q 369 864 297 864 q 508 838 446 864 q 616 758 571 811 q 685 628 661 706 q 710 446 710 550 q 682 237 710 325 q 603 91 654 149 q 481 6 551 33 q 325 -21 410 -21 q 166 6 228 -21 q 104 85 104 33 m 383 436 q 471 459 431 436 q 529 513 511 482 q 488 667 529 613 q 369 722 447 722 q 270 683 307 722 q 233 578 233 644 q 276 471 233 506 q 383 436 319 436 z "},"\u0000":{"ha":0,"x_min":0,"x_max":0,"o":""},"\r":{"ha":310,"x_min":0,"x_max":0,"o":""}," ":{"ha":278,"x_min":0,"x_max":0,"o":""},"!":{"ha":382,"x_min":82,"x_max":296,"o":"m 281 792 q 279 692 281 754 q 275 560 278 631 q 267 419 272 490 q 256 292 263 347 q 224 278 244 283 q 188 274 204 274 q 138 284 158 274 q 114 322 118 294 q 106 424 110 358 q 99 566 101 490 q 94 717 96 642 q 93 849 93 793 q 192 875 138 875 q 257 854 233 875 q 281 792 281 833 m 82 85 q 111 160 82 131 q 189 190 140 190 q 267 160 238 190 q 296 85 296 131 q 267 9 296 39 q 189 -21 238 -21 q 111 9 140 -21 q 82 85 82 39 z "},"\"":{"ha":475,"x_min":39,"x_max":435,"o":"m 181 551 q 118 540 158 540 q 72 552 90 540 q 53 592 54 564 l 39 851 q 122 875 71 875 q 181 859 161 875 q 201 806 201 843 q 199 755 201 788 q 194 686 197 722 q 188 614 192 650 q 181 551 185 578 m 414 551 q 351 540 392 540 q 306 552 324 540 q 286 592 288 564 l 271 851 q 356 875 306 875 q 415 859 394 875 q 435 806 435 843 q 433 755 435 788 q 428 686 431 722 q 422 614 425 650 q 414 551 418 578 z "},"#":{"ha":960,"x_min":50,"x_max":914,"o":"m 736 522 l 696 333 l 857 333 q 869 306 864 322 q 874 269 874 289 q 857 217 874 233 q 811 201 840 201 l 667 201 l 624 -3 q 597 -6 610 -6 q 572 -6 583 -6 q 513 10 535 -6 q 490 65 490 25 q 497 119 490 89 q 507 171 503 150 l 513 201 l 350 201 l 306 -3 q 280 -6 293 -6 q 254 -6 267 -6 q 194 10 217 -6 q 172 65 172 25 q 178 119 172 89 q 190 171 185 150 l 196 201 l 67 201 q 55 229 60 213 q 50 265 50 246 q 67 317 50 301 q 114 333 85 333 l 225 333 l 265 522 l 107 522 q 94 550 100 533 q 89 586 89 567 q 106 638 89 622 q 153 654 124 654 l 293 654 l 336 851 q 363 854 350 854 q 388 854 376 854 q 448 840 425 854 q 471 785 471 825 q 465 732 471 761 q 453 678 458 703 l 447 654 l 610 654 l 653 851 q 681 854 668 854 q 706 854 694 854 q 765 840 742 854 q 789 785 789 825 q 782 732 789 761 q 769 678 775 703 l 764 654 l 897 654 q 908 626 903 643 q 914 590 914 610 q 897 538 914 554 q 850 522 879 522 l 736 522 m 378 333 l 542 333 l 582 522 l 419 522 l 378 333 z "},"$":{"ha":756,"x_min":68,"x_max":696,"o":"m 356 126 q 474 158 436 126 q 511 236 511 189 q 482 305 511 279 q 393 349 453 331 l 304 376 q 208 414 251 393 q 135 463 165 435 q 88 530 104 492 q 71 621 71 568 q 130 776 71 715 q 296 857 189 838 l 296 967 q 326 973 307 969 q 367 976 344 976 q 432 960 411 976 q 453 903 453 943 l 453 863 q 601 821 544 853 q 657 739 657 789 q 644 691 657 711 q 611 658 631 671 q 523 699 578 682 q 403 717 468 717 q 293 691 331 717 q 256 621 256 665 q 281 565 256 585 q 363 528 307 546 l 442 503 q 629 404 563 467 q 696 235 696 342 q 633 72 696 139 q 453 -14 571 6 l 453 -121 q 424 -127 442 -124 q 383 -131 406 -131 q 317 -114 339 -131 q 296 -57 296 -97 l 296 -19 q 131 28 193 -10 q 68 119 68 67 q 87 174 68 151 q 131 208 106 197 q 222 152 165 178 q 356 126 279 126 z "},"%":{"ha":1092,"x_min":57,"x_max":1035,"o":"m 476 647 q 460 560 476 599 q 416 494 444 521 q 349 452 388 467 q 267 438 311 438 q 183 452 221 438 q 117 494 144 467 q 73 560 89 521 q 57 647 57 599 q 73 733 57 694 q 117 799 89 772 q 183 841 144 826 q 267 856 221 856 q 349 841 311 856 q 416 799 388 826 q 460 733 444 772 q 476 647 476 694 m 190 647 q 212 574 190 599 q 267 550 233 550 q 321 574 300 550 q 342 647 342 599 q 321 719 342 694 q 267 743 300 743 q 212 719 233 743 q 190 647 190 694 m 761 857 q 830 835 801 850 q 858 794 858 821 q 850 758 858 776 q 826 718 842 739 l 332 -10 q 263 11 290 -6 q 235 53 235 28 q 243 88 235 69 q 265 126 251 106 l 761 857 m 1035 199 q 1019 111 1035 150 q 975 45 1003 72 q 909 3 947 18 q 825 -11 871 -11 q 741 3 779 -11 q 675 45 703 18 q 631 111 647 72 q 615 199 615 150 q 631 285 615 246 q 675 351 647 324 q 741 392 703 378 q 825 407 779 407 q 909 392 871 407 q 975 351 947 378 q 1019 285 1003 324 q 1035 199 1035 246 m 749 199 q 770 126 749 150 q 825 101 792 101 q 880 126 858 101 q 901 199 901 150 q 880 270 901 246 q 825 294 858 294 q 770 270 792 294 q 749 199 749 246 z "},"&":{"ha":911,"x_min":60,"x_max":875,"o":"m 786 -19 q 743 -9 763 -19 q 703 24 724 1 l 656 71 q 533 1 603 24 q 388 -22 464 -22 q 250 -1 311 -22 q 147 57 189 19 q 82 146 104 94 q 60 258 60 197 q 112 418 60 356 q 240 511 164 481 q 191 591 204 556 q 178 663 178 626 q 194 742 178 706 q 241 806 210 779 q 317 849 272 833 q 419 864 361 864 q 537 838 500 864 q 574 771 574 811 q 542 703 574 731 q 498 719 522 713 q 446 725 474 725 q 375 704 401 725 q 349 644 349 683 q 367 587 349 613 q 422 525 386 561 l 640 306 q 660 401 654 349 q 667 508 667 454 q 742 525 706 525 q 806 499 789 525 q 824 428 824 472 q 808 306 824 369 q 760 186 792 243 l 875 71 q 847 6 871 31 q 786 -19 822 -19 m 396 117 q 471 128 428 117 q 554 175 514 140 l 331 404 q 258 355 289 390 q 228 265 228 319 q 272 158 228 200 q 396 117 315 117 z "},"'":{"ha":250,"x_min":39,"x_max":210,"o":"m 189 554 q 160 544 178 549 q 122 540 142 540 q 74 553 93 540 q 53 594 54 567 l 39 849 q 76 867 54 860 q 126 875 99 875 q 188 858 167 875 q 210 803 210 842 q 208 753 210 783 q 203 687 207 722 q 197 616 200 651 q 189 554 193 581 z "},"(":{"ha":389,"x_min":67,"x_max":381,"o":"m 297 -175 q 228 -150 257 -175 q 176 -86 200 -125 q 97 110 126 -4 q 67 375 67 224 q 99 640 67 525 q 176 832 132 756 q 228 896 200 871 q 297 921 257 921 q 348 904 326 921 q 381 868 369 888 q 272 649 310 768 q 235 375 235 531 q 244 230 235 297 q 271 102 253 163 q 316 -13 289 42 q 381 -122 343 -68 q 348 -159 369 -143 q 297 -175 326 -175 z "},")":{"ha":389,"x_min":10,"x_max":324,"o":"m 93 -175 q 42 -159 64 -175 q 10 -122 21 -143 q 74 -13 47 -68 q 119 102 101 42 q 147 230 138 163 q 156 375 156 297 q 118 649 156 531 q 10 868 81 768 q 42 904 21 888 q 93 921 64 921 q 162 896 133 921 q 214 832 190 871 q 291 640 258 756 q 324 375 324 525 q 294 110 324 224 q 214 -86 264 -4 q 162 -150 190 -125 q 93 -175 133 -175 z "},"*":{"ha":453,"x_min":28,"x_max":421,"o":"m 88 797 q 125 789 104 797 l 171 769 q 169 818 169 794 l 169 882 q 194 895 179 889 q 229 901 210 901 q 270 889 254 901 q 286 850 286 876 q 285 817 286 843 q 281 765 283 792 l 375 811 q 407 787 393 804 q 421 746 421 769 q 408 710 421 721 q 371 690 394 700 l 318 667 l 393 568 q 368 527 386 543 q 325 511 350 511 q 287 526 301 511 q 258 561 272 542 l 229 606 l 168 514 q 155 511 161 511 q 142 511 149 511 q 88 526 106 511 q 69 565 69 542 q 93 618 69 590 l 133 667 l 35 697 q 28 739 28 721 q 44 782 28 767 q 88 797 60 797 z "},"+":{"ha":758,"x_min":56,"x_max":703,"o":"m 461 478 l 686 478 q 698 449 693 467 q 703 410 703 431 q 685 355 703 372 q 636 338 667 338 l 461 338 l 461 85 q 429 77 450 81 q 388 74 408 74 q 323 90 344 74 q 301 151 301 106 l 301 338 l 72 338 q 60 367 65 350 q 56 406 56 385 q 74 460 56 443 q 124 478 92 478 l 301 478 l 301 726 q 335 734 314 731 q 376 738 356 738 q 440 722 418 738 q 461 660 461 706 l 461 478 z "},",":{"ha":271,"x_min":-12,"x_max":242,"o":"m 153 -115 q 115 -152 135 -140 q 67 -164 94 -164 q -12 -135 21 -164 q 13 -60 0 -100 q 35 22 25 -19 q 55 103 46 64 q 71 175 64 142 q 113 191 89 185 q 160 197 136 197 q 218 182 194 197 q 242 126 242 167 q 233 66 242 100 q 210 -2 224 32 q 182 -67 197 -36 q 153 -115 167 -97 z "},"-":{"ha":515,"x_min":58,"x_max":457,"o":"m 76 286 q 64 317 69 299 q 58 356 58 335 q 76 411 58 393 q 125 429 94 429 l 439 429 q 451 399 446 418 q 457 360 457 381 q 439 304 457 322 q 390 286 421 286 l 76 286 z "},".":{"ha":265,"x_min":26,"x_max":239,"o":"m 26 86 q 55 163 26 132 q 133 194 83 194 q 210 163 182 194 q 239 86 239 132 q 210 10 239 42 q 133 -21 182 -21 q 55 10 83 -21 q 26 86 26 42 z "},"/":{"ha":451,"x_min":18,"x_max":433,"o":"m 161 -147 q 133 -150 146 -150 q 107 -150 119 -150 q 18 -71 18 -150 q 26 -15 18 -44 q 40 36 35 15 l 290 979 q 346 983 321 983 q 410 965 386 983 q 433 907 433 947 q 426 851 433 879 q 411 797 418 824 l 161 -147 z "},":":{"ha":313,"x_min":50,"x_max":267,"o":"m 54 547 q 83 623 54 592 q 160 654 111 654 q 238 623 208 654 q 267 547 267 592 q 238 470 267 501 q 160 439 208 439 q 83 470 111 439 q 54 547 54 501 m 50 86 q 78 163 50 132 q 156 194 107 194 q 233 163 204 194 q 263 86 263 132 q 233 10 263 42 q 156 -21 204 -21 q 78 10 107 -21 q 50 86 50 42 z "},";":{"ha":326,"x_min":11,"x_max":271,"o":"m 58 547 q 87 623 58 592 q 164 654 115 654 q 242 623 213 654 q 271 547 271 592 q 242 470 271 501 q 164 439 213 439 q 87 470 115 439 q 58 547 58 501 m 176 -115 q 138 -152 158 -140 q 90 -164 118 -164 q 11 -135 44 -164 q 36 -60 24 -100 q 59 22 49 -19 q 78 103 69 64 q 94 175 88 142 q 136 191 113 185 q 183 197 160 197 q 242 182 218 197 q 265 126 265 167 q 256 66 265 100 q 234 -2 247 32 q 206 -67 221 -36 q 176 -115 190 -97 z "},"<":{"ha":669,"x_min":58,"x_max":626,"o":"m 624 206 q 626 189 625 197 q 626 172 626 181 q 608 110 626 136 q 546 85 589 85 q 506 94 526 85 q 457 118 485 103 l 83 314 q 58 401 58 347 q 70 464 58 442 q 103 499 82 486 l 542 721 q 606 685 588 708 q 624 636 624 663 q 605 579 624 600 q 550 539 586 558 l 225 400 l 624 206 z "},"=":{"ha":713,"x_min":57,"x_max":656,"o":"m 74 483 q 62 512 67 494 q 57 550 57 529 q 75 604 57 586 q 125 622 93 622 l 639 622 q 651 593 646 611 q 656 554 656 575 q 638 500 656 517 q 588 483 619 483 l 74 483 m 74 197 q 62 226 67 208 q 57 264 57 243 q 75 319 57 301 q 125 336 93 336 l 639 336 q 651 307 646 325 q 656 268 656 289 q 638 214 656 231 q 588 197 619 197 l 74 197 z "},">":{"ha":661,"x_min":43,"x_max":604,"o":"m 46 600 q 43 616 43 607 q 43 632 43 625 q 62 694 43 668 q 122 719 81 719 q 165 710 143 719 q 211 689 188 701 l 579 493 q 604 406 604 460 q 592 343 604 365 q 560 308 581 321 l 131 86 q 65 122 83 99 q 47 172 47 144 q 67 228 47 208 q 121 268 86 249 l 438 410 l 46 600 z "},"?":{"ha":665,"x_min":35,"x_max":614,"o":"m 175 285 q 142 322 156 299 q 128 378 128 346 q 145 426 128 410 q 199 453 163 443 l 300 478 q 397 525 364 493 q 429 610 429 557 q 393 691 429 656 q 275 726 357 726 q 165 710 218 726 q 81 671 113 694 q 48 706 61 686 q 35 754 35 726 q 54 806 35 783 q 108 844 74 828 q 189 868 142 860 q 293 876 236 876 q 428 857 368 876 q 529 802 488 838 q 592 718 571 767 q 614 611 614 669 q 539 420 614 490 q 313 315 464 350 l 175 285 m 143 85 q 172 161 143 131 q 250 192 201 192 q 328 161 299 192 q 357 85 357 131 q 328 10 357 40 q 250 -19 299 -19 q 172 10 201 -19 q 143 85 143 40 z "},"@":{"ha":1439,"x_min":72,"x_max":1367,"o":"m 983 144 q 1010 133 994 138 q 1042 129 1025 129 q 1158 199 1118 129 q 1199 378 1199 268 q 1166 540 1199 467 q 1074 667 1133 614 q 933 749 1015 719 q 750 778 850 778 q 541 742 635 778 q 381 640 447 706 q 277 483 314 574 q 240 283 240 392 q 274 95 240 179 q 367 -49 307 11 q 509 -140 426 -108 q 692 -172 592 -172 q 789 -167 749 -172 q 858 -154 829 -161 q 874 -183 867 -167 q 881 -217 881 -200 q 871 -256 881 -239 q 838 -286 861 -274 q 776 -305 815 -299 q 679 -311 738 -311 q 450 -274 560 -311 q 256 -162 340 -236 q 122 24 172 -87 q 72 283 72 135 q 122 544 72 428 q 263 743 172 661 q 476 869 353 825 q 749 914 600 914 q 1002 876 888 914 q 1197 767 1117 838 q 1322 598 1278 697 q 1367 376 1367 499 q 1283 93 1367 193 q 1042 -7 1200 -7 q 952 6 999 -7 q 868 43 906 18 q 794 12 836 24 q 700 0 753 0 q 588 19 639 0 q 500 73 536 38 q 444 159 464 108 q 424 275 424 210 q 448 411 424 350 q 516 515 472 472 q 622 582 560 558 q 760 606 685 606 q 875 590 825 606 q 961 553 925 575 q 1017 472 1017 521 q 1017 455 1017 464 q 1015 438 1017 446 l 983 144 m 599 276 q 635 170 599 204 q 728 136 671 136 q 821 168 781 136 l 849 446 q 810 460 833 454 q 756 465 788 465 q 643 417 688 465 q 599 276 599 368 z "},"A":{"ha":847,"x_min":36,"x_max":815,"o":"m 578 199 l 267 199 q 234 92 251 147 q 206 0 217 36 q 176 -10 192 -6 q 136 -14 160 -14 q 63 5 89 -14 q 36 58 36 24 q 41 91 36 75 q 53 128 46 107 q 83 222 64 167 q 123 341 101 276 q 169 474 144 406 q 217 608 194 543 q 262 728 240 672 q 299 825 283 785 q 352 844 317 835 q 424 854 388 854 q 513 840 472 854 q 564 793 553 825 q 625 617 592 717 q 692 413 658 518 q 758 206 726 307 q 815 24 790 104 q 777 -2 801 8 q 719 -12 753 -12 q 651 5 671 -12 q 619 60 631 22 l 578 199 m 422 696 q 395 618 410 661 q 365 528 381 575 q 332 434 349 482 q 300 340 315 386 l 542 340 l 429 696 l 422 696 z "},"B":{"ha":846,"x_min":107,"x_max":782,"o":"m 751 626 q 719 518 751 564 q 621 444 686 472 q 742 365 701 418 q 782 240 782 313 q 686 44 782 108 q 408 -19 590 -19 q 352 -18 382 -19 q 292 -13 322 -17 q 231 -3 261 -10 q 174 11 200 3 q 107 93 107 33 l 107 772 q 121 813 107 799 q 160 835 135 826 q 269 856 207 850 q 400 863 332 863 q 660 805 568 863 q 751 626 751 747 m 599 247 q 559 335 599 303 q 444 367 519 367 l 282 367 l 282 135 q 345 125 308 128 q 418 122 382 122 q 551 152 503 122 q 599 247 599 182 m 282 499 l 422 499 q 534 529 497 499 q 571 614 571 560 q 401 724 571 724 q 335 721 367 724 q 282 714 304 718 l 282 499 z "},"C":{"ha":804,"x_min":61,"x_max":751,"o":"m 746 735 q 731 687 746 707 q 696 656 715 667 q 615 699 660 679 q 506 718 571 718 q 317 642 388 718 q 247 421 247 565 q 319 200 247 274 q 514 126 392 126 q 624 144 578 126 q 707 185 671 161 q 739 151 726 172 q 751 101 751 129 q 739 58 751 78 q 697 24 726 39 q 619 -8 669 7 q 493 -22 568 -22 q 323 5 401 -22 q 186 87 244 32 q 94 225 128 142 q 61 421 61 308 q 94 612 61 529 q 185 751 128 694 q 320 836 243 807 q 483 865 397 865 q 592 855 543 865 q 675 826 640 844 q 728 785 710 808 q 746 735 746 761 z "},"D":{"ha":915,"x_min":107,"x_max":854,"o":"m 669 425 q 649 555 669 500 q 591 645 628 610 q 503 698 554 681 q 393 715 453 715 q 335 713 361 715 q 286 708 310 711 l 286 138 q 340 130 310 132 q 399 128 369 128 q 599 203 528 128 q 669 425 669 278 m 854 426 q 822 230 854 314 q 729 91 789 146 q 585 8 669 36 q 399 -19 501 -19 q 347 -19 375 -19 q 290 -15 319 -18 q 230 -6 260 -11 q 174 10 200 0 q 107 93 107 35 l 107 774 q 121 813 107 799 q 160 835 135 826 q 272 858 211 853 q 386 863 332 863 q 577 835 490 863 q 725 754 664 808 q 820 618 786 700 q 854 426 854 536 z "},"E":{"ha":750,"x_min":107,"x_max":688,"o":"m 203 -3 q 133 24 158 -3 q 107 94 107 50 l 107 747 q 133 817 107 792 q 203 843 158 843 l 663 843 q 675 814 669 832 q 681 774 681 796 q 664 718 681 738 q 618 699 647 699 l 282 699 l 282 501 l 621 501 q 634 473 628 490 q 640 433 640 456 q 576 358 640 358 l 282 358 l 282 143 l 668 143 q 681 113 675 132 q 688 72 688 94 q 624 -3 688 -3 l 203 -3 l 203 -3 z "},"F":{"ha":728,"x_min":107,"x_max":683,"o":"m 664 843 q 677 813 671 832 q 683 772 683 794 q 666 715 683 735 q 619 696 649 696 l 285 696 l 285 475 l 617 475 q 630 446 624 464 q 636 406 636 428 q 619 349 636 368 q 572 331 601 331 l 288 331 l 288 1 q 252 -6 275 -1 q 204 -10 229 -10 q 129 10 151 -10 q 107 75 107 29 l 107 747 q 133 817 107 792 q 203 843 158 843 l 664 843 z "},"G":{"ha":906,"x_min":61,"x_max":824,"o":"m 824 117 q 809 63 824 82 q 763 28 794 44 q 717 8 744 17 q 658 -8 690 -1 q 590 -18 625 -14 q 521 -22 556 -22 q 338 3 422 -22 q 192 83 254 29 q 96 221 131 138 q 61 419 61 304 q 97 613 61 529 q 194 753 132 697 q 338 837 256 808 q 514 865 419 865 q 627 855 576 865 q 715 827 678 844 q 771 785 751 810 q 790 735 790 761 q 775 686 790 707 q 740 654 760 665 q 653 698 704 678 q 526 718 601 718 q 414 698 465 718 q 326 640 363 678 q 268 547 289 603 q 247 421 247 492 q 268 289 247 344 q 326 197 289 233 q 413 142 363 160 q 524 125 464 125 q 597 132 564 125 q 649 149 631 139 l 649 342 l 471 342 q 458 371 464 353 q 453 411 453 389 q 470 465 453 447 q 515 483 488 483 l 749 483 q 803 464 783 483 q 824 410 824 444 l 824 117 z "},"H":{"ha":921,"x_min":107,"x_max":815,"o":"m 288 1 q 252 -6 275 -1 q 203 -10 229 -10 q 128 10 150 -10 q 107 75 107 29 l 107 843 q 142 850 118 846 q 190 854 167 854 q 264 836 240 854 q 288 769 288 818 l 288 496 l 635 496 l 635 843 q 670 850 646 846 q 718 854 694 854 q 792 835 768 854 q 815 768 815 817 l 815 1 q 780 -6 803 -1 q 731 -10 757 -10 q 656 10 678 -10 q 635 75 635 29 l 635 351 l 288 351 l 288 1 l 288 1 z "},"I":{"ha":394,"x_min":107,"x_max":288,"o":"m 204 -10 q 129 10 151 -10 q 107 75 107 29 l 107 843 q 143 850 119 846 q 190 854 167 854 q 264 836 240 854 q 288 769 288 818 l 288 1 q 252 -6 275 -1 q 204 -10 229 -10 z "},"J":{"ha":554,"x_min":32,"x_max":450,"o":"m 450 228 q 381 42 450 103 q 197 -18 311 -18 q 76 5 121 -18 q 32 79 32 28 q 40 119 32 103 q 57 147 47 136 q 104 135 81 140 q 156 129 128 129 q 269 247 269 129 l 269 843 q 306 850 282 846 q 353 854 329 854 q 426 836 403 854 q 450 769 450 818 l 450 228 l 450 228 z "},"K":{"ha":821,"x_min":107,"x_max":783,"o":"m 288 361 l 288 1 q 252 -6 275 -3 q 203 -10 229 -10 q 128 9 150 -10 q 107 75 107 28 l 107 843 q 142 850 118 846 q 190 854 167 854 q 264 836 240 854 q 288 769 288 818 l 288 483 l 621 850 q 717 824 688 850 q 747 761 747 797 q 733 709 747 732 q 689 657 718 686 l 454 424 q 644 225 563 313 q 783 85 726 138 q 753 13 782 39 q 685 -12 725 -12 q 617 9 644 -12 q 563 58 589 31 l 288 361 z "},"L":{"ha":704,"x_min":107,"x_max":665,"o":"m 203 -3 q 133 24 158 -3 q 107 94 107 50 l 107 843 q 142 850 118 846 q 190 854 167 854 q 264 836 240 854 q 288 769 288 818 l 288 146 l 644 146 q 658 116 651 135 q 665 75 665 97 q 648 17 665 38 q 600 -3 631 -3 l 203 -3 l 203 -3 z "},"M":{"ha":1096,"x_min":90,"x_max":1013,"o":"m 639 213 q 603 194 625 201 q 551 188 581 188 q 491 197 515 188 q 457 229 467 206 q 361 471 400 371 q 299 642 322 571 l 292 642 q 284 471 288 549 q 278 319 281 393 q 272 168 275 244 q 263 3 268 92 q 228 -6 249 -1 q 183 -10 207 -10 q 90 60 90 -10 q 92 128 90 82 q 98 237 94 175 q 106 372 101 299 q 116 521 111 446 q 126 669 121 596 q 136 804 132 742 q 177 833 147 818 q 254 847 207 847 q 340 830 307 847 q 389 772 372 813 q 427 678 407 729 q 468 572 447 626 q 509 466 489 518 q 547 368 529 414 l 553 368 q 647 621 600 499 q 728 828 693 743 q 771 842 744 836 q 825 847 797 847 q 907 832 876 847 q 944 786 938 817 q 957 702 950 760 q 971 571 964 644 q 985 414 978 497 q 997 253 992 331 q 1007 113 1003 176 q 1013 13 1011 49 q 974 -4 994 1 q 925 -10 954 -10 q 862 5 889 -10 q 832 60 835 19 q 822 231 826 147 q 815 390 818 315 q 810 528 813 465 q 806 638 807 592 l 799 638 q 738 472 776 572 q 639 213 699 371 z "},"N":{"ha":931,"x_min":107,"x_max":824,"o":"m 200 -10 q 128 9 149 -10 q 107 72 107 28 l 107 813 q 152 843 122 832 q 218 854 182 854 q 295 839 261 854 q 356 778 329 824 l 556 418 q 609 315 583 368 q 654 217 635 261 l 660 218 q 651 377 653 300 q 649 529 649 454 l 649 844 q 683 851 660 847 q 729 854 706 854 q 802 835 781 854 q 824 772 824 817 l 824 22 q 780 -1 808 7 q 713 -10 751 -10 q 637 5 671 -10 q 576 65 603 19 l 376 425 q 323 528 349 474 q 278 628 297 583 l 269 626 q 278 469 276 550 q 281 317 281 389 l 281 1 q 247 -6 269 -1 q 200 -10 225 -10 z "},"O":{"ha":967,"x_min":61,"x_max":906,"o":"m 906 422 q 874 231 906 314 q 785 91 842 147 q 651 6 729 35 q 483 -22 574 -22 q 315 6 393 -22 q 181 91 238 35 q 93 231 125 147 q 61 422 61 314 q 94 613 61 531 q 183 752 126 696 q 317 837 240 808 q 483 865 394 865 q 649 837 572 865 q 783 752 726 808 q 873 613 840 696 q 906 422 906 531 m 721 422 q 656 642 721 567 q 483 718 592 718 q 312 643 376 718 q 247 422 247 568 q 311 201 247 276 q 483 126 375 126 q 656 201 592 126 q 721 422 721 276 z "},"P":{"ha":797,"x_min":107,"x_max":747,"o":"m 288 281 l 288 1 q 252 -6 275 -1 q 203 -10 229 -10 q 128 10 150 -10 q 107 75 107 29 l 107 772 q 121 813 107 799 q 160 835 135 826 q 209 847 182 842 q 265 856 236 853 q 324 861 294 860 q 379 863 353 863 q 655 784 563 863 q 747 572 747 706 q 657 360 747 439 q 396 281 567 281 l 288 281 m 385 425 q 516 461 468 425 q 564 572 564 497 q 519 681 564 644 q 388 717 474 717 q 286 708 328 717 l 286 425 l 385 425 z "},"Q":{"ha":969,"x_min":61,"x_max":949,"o":"m 906 424 q 845 170 906 271 q 683 21 785 69 q 824 -42 763 -19 q 947 -86 886 -65 q 949 -101 949 -94 q 949 -112 949 -107 q 920 -193 949 -167 q 843 -219 892 -219 q 718 -183 788 -219 q 568 -82 649 -147 l 492 -21 l 483 -21 q 315 8 393 -21 q 181 92 238 36 q 93 232 125 149 q 61 424 61 315 q 94 614 61 532 q 183 752 126 696 q 317 837 240 808 q 483 865 394 865 q 649 837 572 865 q 783 752 726 808 q 873 614 840 696 q 906 424 906 532 m 721 424 q 656 643 721 568 q 483 718 592 718 q 312 643 376 718 q 247 424 247 568 q 311 202 247 276 q 483 128 375 128 q 656 202 592 128 q 721 424 721 276 z "},"R":{"ha":832,"x_min":107,"x_max":785,"o":"m 288 1 q 252 -6 275 -1 q 203 -10 229 -10 q 128 10 150 -10 q 107 75 107 29 l 107 772 q 121 813 107 799 q 160 835 135 826 q 265 856 204 850 q 389 863 325 863 q 664 787 572 863 q 756 578 756 711 q 710 426 756 490 q 583 326 664 361 q 701 176 644 247 q 785 64 757 104 q 746 8 774 28 q 685 -12 718 -12 q 619 7 642 -12 q 574 60 596 26 l 417 294 l 288 294 l 288 1 m 399 436 q 526 471 478 436 q 574 576 574 506 q 386 717 574 717 q 333 714 358 717 q 285 708 307 711 l 285 436 l 399 436 z "},"S":{"ha":746,"x_min":65,"x_max":693,"o":"m 353 126 q 471 158 433 126 q 508 236 508 189 q 479 305 508 279 q 390 349 450 331 l 301 376 q 206 414 249 393 q 132 463 163 435 q 85 530 101 492 q 68 621 68 568 q 153 799 68 733 q 385 865 238 865 q 492 856 443 865 q 578 831 542 847 q 634 792 614 815 q 654 739 654 768 q 641 691 654 711 q 608 658 628 671 q 520 699 575 682 q 400 717 465 717 q 290 691 328 717 q 253 621 253 665 q 278 565 253 585 q 360 528 304 546 l 439 503 q 626 404 560 467 q 693 235 693 342 q 671 131 693 178 q 606 49 649 83 q 501 -3 564 15 q 357 -22 438 -22 q 240 -11 293 -22 q 147 19 186 0 q 87 63 108 38 q 65 119 65 89 q 84 174 65 151 q 128 208 103 197 q 219 152 163 178 q 353 126 276 126 z "},"T":{"ha":750,"x_min":29,"x_max":719,"o":"m 700 843 q 713 813 707 832 q 719 772 719 794 q 702 715 719 735 q 654 696 685 696 l 463 696 l 463 1 q 428 -6 451 -1 q 379 -10 404 -10 q 304 10 326 -10 q 282 75 282 29 l 282 696 l 49 696 q 35 726 42 708 q 29 767 29 744 q 47 824 29 806 q 94 843 64 843 l 700 843 l 700 843 z "},"U":{"ha":913,"x_min":104,"x_max":808,"o":"m 456 -22 q 307 1 372 -22 q 197 66 242 24 q 128 167 151 108 q 104 300 104 226 l 104 843 q 140 850 115 846 q 188 854 164 854 q 260 836 238 854 q 283 769 283 818 l 283 307 q 332 173 283 219 q 456 126 381 126 q 579 173 531 126 q 628 307 628 219 l 628 843 q 664 850 640 846 q 711 854 688 854 q 785 836 761 854 q 808 769 808 818 l 808 300 q 785 167 808 226 q 715 66 761 108 q 604 1 669 24 q 456 -22 539 -22 z "},"V":{"ha":846,"x_min":33,"x_max":806,"o":"m 540 19 q 496 -1 526 8 q 429 -11 465 -11 q 354 1 386 -11 q 311 38 322 14 q 272 125 294 71 q 223 245 249 179 q 171 385 197 311 q 119 534 144 460 q 71 678 93 608 q 33 808 49 749 q 74 836 47 824 q 133 849 101 849 q 194 831 172 849 q 229 772 215 814 q 326 469 278 617 q 428 168 374 322 l 435 168 q 485 319 460 239 q 536 485 511 400 q 585 658 561 571 q 631 829 610 744 q 715 849 667 849 q 780 831 754 849 q 806 774 806 814 q 790 690 806 749 q 751 558 775 632 q 698 400 728 483 q 638 241 668 317 q 583 106 608 165 q 540 19 557 47 z "},"W":{"ha":1158,"x_min":44,"x_max":1107,"o":"m 489 636 q 527 649 503 643 q 578 656 551 656 q 651 642 622 656 q 686 603 679 629 q 724 479 707 536 q 758 369 742 422 q 790 263 775 315 q 821 156 806 211 l 826 156 q 857 328 843 244 q 885 493 871 411 q 910 658 899 575 q 935 831 922 742 q 1014 850 971 850 q 1080 833 1053 850 q 1107 776 1107 815 q 1100 693 1107 749 q 1081 568 1093 638 q 1053 420 1069 499 q 1020 267 1038 342 q 985 129 1003 193 q 951 25 968 65 q 901 1 935 11 q 831 -8 868 -8 q 748 6 782 -8 q 707 44 714 21 q 680 120 694 76 q 649 215 665 164 q 617 323 633 267 q 585 438 600 379 q 553 322 569 381 q 522 208 538 263 q 492 105 507 153 q 464 24 476 57 q 417 1 449 11 q 349 -8 386 -8 q 265 6 301 -8 q 218 44 229 21 q 190 124 206 72 q 158 241 175 175 q 125 383 142 307 q 93 535 108 460 q 65 683 78 611 q 44 813 51 754 q 85 838 60 826 q 142 850 110 850 q 205 832 181 850 q 236 774 229 814 q 272 570 257 658 q 301 410 288 482 q 326 276 314 338 q 350 156 338 215 l 357 156 q 387 267 372 215 q 417 372 401 318 q 449 490 432 426 q 489 636 467 553 z "},"X":{"ha":828,"x_min":50,"x_max":782,"o":"m 410 304 l 194 -8 q 177 -10 186 -10 q 160 -11 168 -11 q 79 12 107 -11 q 51 71 51 35 q 65 123 51 100 q 101 176 78 146 l 294 426 l 50 767 q 88 825 60 799 q 160 851 115 851 q 214 835 190 851 q 261 782 238 818 l 417 551 l 619 842 q 669 849 638 849 q 741 826 715 849 q 767 771 767 804 q 753 721 767 743 q 715 668 739 699 q 622 549 669 608 q 526 428 575 489 l 782 74 q 746 12 772 35 q 675 -11 719 -11 q 621 5 643 -11 q 575 58 599 21 l 410 304 z "},"Y":{"ha":781,"x_min":18,"x_max":754,"o":"m 754 774 q 739 723 754 758 q 692 629 724 688 q 610 488 660 571 q 489 294 560 404 l 489 1 q 455 -6 478 -1 q 407 -10 432 -10 q 333 10 354 -10 q 313 74 313 29 l 313 293 q 233 413 275 347 q 151 544 192 478 q 76 676 111 611 q 18 793 42 740 q 53 831 29 814 q 113 849 76 849 q 177 831 153 849 q 225 768 201 813 q 260 703 236 749 q 312 608 285 658 q 363 514 339 558 q 397 453 388 469 l 404 453 q 454 551 431 504 q 500 642 478 597 q 544 734 522 688 q 589 831 565 781 q 627 844 606 840 q 668 849 649 849 q 730 829 706 849 q 754 774 754 810 z "},"Z":{"ha":776,"x_min":58,"x_max":722,"o":"m 99 0 q 69 39 81 15 q 58 92 58 63 q 72 146 58 119 q 104 197 85 172 l 493 696 l 89 696 q 76 726 82 708 q 69 768 69 744 q 87 826 69 807 q 136 846 104 846 l 668 846 q 713 751 713 808 q 701 699 713 724 q 669 649 689 674 l 279 149 l 701 149 q 715 118 708 136 q 722 76 722 100 q 705 19 722 38 q 657 0 688 0 l 99 0 l 99 0 z "},"[":{"ha":397,"x_min":79,"x_max":388,"o":"m 371 910 q 383 882 378 899 q 388 846 388 865 q 370 793 388 810 q 324 776 353 776 l 242 776 l 242 -35 l 371 -35 q 383 -62 378 -46 q 388 -99 388 -79 q 370 -151 388 -135 q 324 -168 353 -168 l 161 -168 q 99 -144 119 -168 q 79 -86 79 -121 l 79 828 q 99 886 79 863 q 161 910 119 910 l 371 910 z "},"\\":{"ha":488,"x_min":29,"x_max":450,"o":"m 450 -46 q 409 -72 435 -61 q 360 -83 383 -83 q 310 -72 331 -83 q 282 -28 290 -60 l 29 889 q 70 916 44 904 q 119 928 96 928 q 168 915 147 928 q 197 871 189 903 l 450 -46 z "},"]":{"ha":408,"x_min":10,"x_max":318,"o":"m 26 -168 q 15 -140 19 -157 q 10 -104 10 -124 q 27 -51 10 -68 q 74 -35 44 -35 l 156 -35 l 156 776 l 26 776 q 15 804 19 788 q 10 840 10 821 q 27 893 10 876 q 74 910 44 910 l 236 910 q 298 886 278 910 q 318 828 318 863 l 318 -86 q 298 -144 318 -121 q 236 -168 278 -168 l 26 -168 z "},"^":{"ha":661,"x_min":61,"x_max":600,"o":"m 240 894 q 276 911 253 904 q 329 918 300 918 q 386 909 363 918 q 421 881 410 900 q 463 802 438 853 q 514 694 488 751 q 563 578 540 636 q 600 476 586 519 q 566 451 588 463 q 519 440 544 440 q 467 453 486 440 q 433 506 449 467 l 328 764 l 321 764 q 298 706 313 742 q 267 627 283 669 q 236 540 251 585 q 210 457 221 496 q 135 439 176 439 q 83 453 104 439 q 61 501 61 467 q 72 545 61 515 q 98 613 82 575 q 134 694 114 651 q 174 775 154 736 q 212 846 194 814 q 240 894 229 878 z "},"_":{"ha":678,"x_min":0,"x_max":678,"o":"m 17 -217 q 5 -189 10 -206 q 0 -150 0 -172 q 18 -96 0 -114 q 67 -78 36 -78 l 661 -78 q 672 -108 667 -89 q 678 -146 678 -126 q 659 -200 678 -183 q 610 -217 640 -217 l 17 -217 z "},"`":{"ha":419,"x_min":50,"x_max":328,"o":"m 53 889 q 50 914 50 903 q 72 973 50 951 q 128 994 94 994 q 204 957 172 994 l 328 801 q 303 747 325 765 q 256 728 282 728 q 217 735 232 728 q 186 757 201 742 l 53 889 z "},"a":{"ha":725,"x_min":49,"x_max":640,"o":"m 347 113 q 421 120 388 113 q 469 139 454 128 l 469 293 l 335 281 q 250 256 279 275 q 221 197 221 238 q 251 135 221 157 q 347 113 281 113 m 342 678 q 559 619 478 678 q 640 439 640 561 l 640 118 q 624 65 640 85 q 582 31 607 46 q 483 -7 543 7 q 347 -21 424 -21 q 128 33 208 -21 q 49 193 49 86 q 108 335 49 286 q 279 396 167 385 l 469 415 l 469 440 q 431 518 469 493 q 324 543 393 543 q 218 530 269 543 q 126 497 167 517 q 101 527 111 508 q 90 568 90 546 q 103 613 90 596 q 146 644 117 631 q 238 669 186 661 q 342 678 289 678 z "},"b":{"ha":792,"x_min":90,"x_max":736,"o":"m 419 678 q 544 656 486 678 q 644 591 601 635 q 712 483 688 547 q 736 331 736 418 q 711 178 736 243 q 640 68 686 113 q 530 1 594 24 q 386 -21 465 -21 q 246 -1 306 -21 q 147 44 186 18 q 104 87 118 64 q 90 142 90 110 l 90 903 q 123 910 101 907 q 171 914 144 914 q 243 896 219 914 q 267 832 267 878 l 267 642 q 334 667 296 657 q 419 678 372 678 m 389 539 q 320 526 351 539 q 265 499 289 514 l 265 151 q 314 130 283 140 q 385 119 344 119 q 510 172 463 119 q 557 331 557 224 q 510 489 557 439 q 389 539 464 539 z "},"c":{"ha":672,"x_min":56,"x_max":618,"o":"m 428 538 q 351 524 386 538 q 290 483 315 510 q 249 418 264 457 q 233 328 233 379 q 288 173 233 225 q 428 121 342 121 q 512 134 476 121 q 575 163 547 147 q 606 131 594 149 q 618 89 618 113 q 563 11 618 42 q 413 -19 507 -19 q 267 2 333 -19 q 154 67 201 24 q 81 176 107 111 q 56 328 56 242 q 83 481 56 415 q 159 591 111 547 q 271 656 207 635 q 407 678 335 678 q 556 645 500 678 q 611 565 611 613 q 599 525 611 543 q 572 496 588 507 q 510 524 544 511 q 428 538 476 538 z "},"d":{"ha":788,"x_min":56,"x_max":697,"o":"m 697 128 q 683 76 697 96 q 642 39 669 57 q 550 -2 607 17 q 418 -21 493 -21 q 153 65 251 -21 q 56 326 56 150 q 82 484 56 418 q 153 593 108 550 q 260 657 199 636 q 392 678 321 678 q 463 670 429 678 q 522 651 496 663 l 522 903 q 555 910 533 907 q 601 914 576 914 q 674 896 651 914 q 697 832 697 878 l 697 128 m 522 510 q 474 531 501 522 q 414 539 446 539 q 285 489 336 539 q 233 325 233 439 q 283 169 233 218 q 417 119 332 119 q 478 128 453 119 q 522 147 504 136 l 522 510 z "},"e":{"ha":742,"x_min":56,"x_max":693,"o":"m 231 250 q 303 147 250 179 q 433 115 356 115 q 541 133 492 115 q 621 169 590 150 q 653 139 640 158 q 665 97 665 119 q 647 48 665 69 q 595 11 628 26 q 518 -12 563 -4 q 422 -21 474 -21 q 273 1 340 -21 q 158 69 206 24 q 83 181 110 114 q 56 336 56 247 q 82 486 56 422 q 153 593 108 550 q 258 657 199 636 q 385 678 318 678 q 510 656 453 678 q 607 597 567 635 q 670 505 647 558 q 693 389 693 451 q 673 331 693 350 q 617 306 653 311 l 231 250 m 385 546 q 271 501 317 546 q 219 372 225 456 l 528 418 q 488 508 522 469 q 385 546 453 546 z "},"f":{"ha":576,"x_min":90,"x_max":556,"o":"m 258 614 l 510 614 q 522 585 517 603 q 528 547 528 568 q 511 494 528 511 q 467 478 494 478 l 267 478 l 267 1 q 233 -6 254 -1 q 186 -10 213 -10 q 114 8 138 -10 q 90 72 90 26 l 90 686 q 111 800 90 753 q 169 878 132 847 q 258 923 207 908 q 371 938 310 938 q 556 840 556 938 q 547 801 556 818 q 525 772 538 783 q 466 790 499 783 q 397 797 433 797 q 292 769 325 797 q 258 679 258 742 l 258 614 z "},"g":{"ha":765,"x_min":56,"x_max":679,"o":"m 511 57 q 447 33 483 43 q 361 24 410 24 q 243 41 299 24 q 146 97 188 58 q 80 198 104 136 q 56 349 56 260 q 80 491 56 429 q 149 594 104 553 q 257 657 194 636 q 396 678 319 678 q 528 660 468 678 q 625 618 589 642 q 665 581 650 601 q 679 528 679 560 l 679 -8 q 653 -131 679 -79 q 583 -215 628 -182 q 479 -262 539 -247 q 350 -278 419 -278 q 224 -265 278 -278 q 144 -235 171 -251 q 99 -157 99 -206 q 110 -111 99 -131 q 136 -82 121 -92 q 224 -121 172 -104 q 333 -137 275 -137 q 464 -106 417 -137 q 511 -3 511 -74 l 511 57 m 390 160 q 459 171 431 160 q 508 197 488 182 l 508 511 q 463 531 489 522 q 401 539 438 539 q 278 492 325 539 q 232 349 232 446 q 244 260 232 296 q 277 201 256 224 q 328 169 299 179 q 390 160 357 160 z "},"h":{"ha":790,"x_min":90,"x_max":701,"o":"m 267 1 q 233 -6 254 -1 q 186 -10 213 -10 q 114 8 138 -10 q 90 72 90 26 l 90 903 q 123 910 101 907 q 171 914 144 914 q 243 896 219 914 q 267 832 267 878 l 267 640 q 337 667 297 656 q 425 678 376 678 q 626 613 551 678 q 701 415 701 547 l 701 1 q 669 -6 690 -1 q 622 -10 647 -10 q 549 8 572 -10 q 525 72 525 26 l 525 407 q 489 508 525 476 q 394 539 453 539 q 325 527 357 539 q 267 499 293 515 l 267 1 l 267 1 z "},"i":{"ha":364,"x_min":81,"x_max":282,"o":"m 94 653 q 127 660 106 656 q 174 664 149 664 q 247 646 224 664 q 269 582 269 628 l 269 1 q 237 -6 258 -1 q 190 -10 215 -10 q 117 8 140 -10 q 94 72 94 26 l 94 653 m 81 854 q 109 923 81 894 q 182 951 138 951 q 254 923 226 951 q 282 854 282 894 q 254 784 282 813 q 182 756 226 756 q 109 784 138 756 q 81 854 81 813 z "},"j":{"ha":369,"x_min":-1,"x_max":285,"o":"m -1 -171 q 42 -147 24 -160 q 74 -115 61 -133 q 94 -73 88 -97 q 100 -15 100 -49 l 100 653 q 133 660 111 656 q 179 664 154 664 q 252 646 229 664 q 275 582 275 628 l 275 -36 q 259 -146 275 -101 q 217 -218 243 -190 q 160 -258 192 -246 q 99 -271 129 -271 q 26 -242 50 -271 q -1 -171 1 -214 m 82 854 q 110 923 82 894 q 183 951 139 951 q 256 923 228 951 q 285 854 285 894 q 256 784 285 813 q 183 756 228 756 q 110 784 139 756 q 82 854 82 813 z "},"k":{"ha":725,"x_min":90,"x_max":685,"o":"m 267 1 q 233 -6 254 -1 q 186 -10 213 -10 q 114 8 138 -10 q 90 72 90 26 l 90 903 q 123 910 101 907 q 171 914 144 914 q 243 896 219 914 q 267 832 267 878 l 267 401 l 536 669 q 621 646 589 669 q 653 586 653 622 q 633 531 653 554 q 569 471 613 507 l 419 340 l 685 92 q 656 16 679 43 q 588 -11 632 -11 q 531 4 556 -11 q 472 58 507 19 l 267 286 l 267 1 l 267 1 z "},"l":{"ha":369,"x_min":97,"x_max":272,"o":"m 272 1 q 240 -6 261 -1 q 193 -10 218 -10 q 120 8 143 -10 q 97 72 97 26 l 97 903 q 130 910 108 907 q 176 914 151 914 q 249 896 226 914 q 272 832 272 878 l 272 1 l 272 1 z "},"m":{"ha":1156,"x_min":88,"x_max":1067,"o":"m 1067 1 q 1034 -6 1056 -1 q 988 -10 1013 -10 q 915 8 938 -10 q 892 72 892 26 l 892 433 q 861 514 892 489 q 781 539 831 539 q 716 526 747 539 q 661 493 685 514 q 665 454 665 474 l 665 1 q 633 -6 654 -1 q 586 -10 611 -10 q 513 8 536 -10 q 490 72 490 26 l 490 433 q 458 514 490 489 q 376 539 426 539 q 313 528 342 539 q 264 506 283 517 l 264 1 q 231 -6 251 -1 q 183 -10 210 -10 q 111 8 135 -10 q 88 72 88 26 l 88 518 q 101 572 88 550 q 144 613 115 593 q 250 659 186 640 q 382 678 314 678 q 588 610 508 678 q 680 658 628 639 q 803 678 732 678 q 906 665 857 678 q 990 622 954 651 q 1046 548 1025 593 q 1067 440 1067 503 l 1067 1 z "},"n":{"ha":788,"x_min":88,"x_max":699,"o":"m 524 424 q 490 511 524 483 q 397 539 456 539 q 323 529 357 539 q 264 504 289 519 l 264 1 q 231 -6 251 -1 q 183 -10 210 -10 q 111 8 135 -10 q 88 72 88 26 l 88 518 q 101 572 88 551 q 144 613 115 593 q 251 659 185 640 q 399 678 318 678 q 620 615 542 678 q 699 429 699 551 l 699 1 q 666 -6 688 -1 q 619 -10 644 -10 q 547 8 569 -10 q 524 72 524 26 l 524 424 l 524 424 z "},"o":{"ha":792,"x_min":56,"x_max":736,"o":"m 736 329 q 712 184 736 249 q 643 74 688 119 q 536 3 599 28 q 396 -21 474 -21 q 256 3 318 -21 q 149 73 193 28 q 80 183 104 118 q 56 329 56 247 q 80 474 56 410 q 149 584 104 539 q 257 653 194 629 q 396 678 319 678 q 535 653 472 678 q 642 583 597 629 q 712 473 688 538 q 736 329 736 408 m 396 539 q 278 484 321 539 q 235 329 235 429 q 277 174 235 228 q 396 119 319 119 q 515 174 472 119 q 557 329 557 229 q 514 484 557 429 q 396 539 471 539 z "},"p":{"ha":786,"x_min":88,"x_max":731,"o":"m 400 -19 q 326 -12 360 -19 q 264 7 292 -4 l 264 -249 q 231 -256 251 -251 q 183 -260 210 -260 q 111 -242 135 -260 q 88 -178 88 -224 l 88 526 q 101 581 88 560 q 143 619 114 601 q 243 660 183 643 q 378 678 303 678 q 519 658 454 678 q 631 595 583 638 q 704 488 678 553 q 731 332 731 422 q 706 179 731 244 q 637 69 681 114 q 533 3 593 25 q 400 -19 472 -19 m 374 121 q 504 172 457 121 q 551 332 551 224 q 503 492 551 444 q 378 539 454 539 q 312 529 340 539 q 263 508 283 519 l 263 151 q 312 129 285 138 q 374 121 339 121 z "},"q":{"ha":788,"x_min":56,"x_max":699,"o":"m 699 -253 q 666 -260 688 -256 q 619 -264 644 -264 q 547 -246 569 -264 q 524 -182 524 -228 l 524 7 q 463 -12 497 -4 q 388 -21 429 -21 q 254 1 315 -21 q 149 65 193 22 q 81 174 106 108 q 56 326 56 239 q 82 480 56 414 q 156 590 108 546 q 268 656 203 633 q 413 678 333 678 q 548 660 486 678 q 646 619 610 643 q 684 583 669 604 q 699 529 699 561 l 699 -253 m 413 119 q 475 128 447 119 q 524 151 503 136 l 524 511 q 479 531 506 522 q 417 539 453 539 q 285 488 336 539 q 233 326 233 438 q 281 169 233 218 q 413 119 329 119 z "},"r":{"ha":551,"x_min":88,"x_max":528,"o":"m 264 1 q 231 -6 251 -1 q 183 -10 210 -10 q 111 8 135 -10 q 88 72 88 26 l 88 513 q 104 574 88 549 q 153 618 121 599 q 259 661 196 644 q 396 678 322 678 q 528 596 528 678 q 522 559 528 576 q 508 531 515 542 q 429 538 476 538 q 338 526 381 538 q 264 499 294 515 l 264 1 z "},"s":{"ha":653,"x_min":61,"x_max":600,"o":"m 600 186 q 528 34 600 89 q 317 -21 456 -21 q 213 -12 260 -21 q 133 12 167 -4 q 80 51 99 28 q 61 101 61 74 q 73 147 61 128 q 104 179 85 167 q 194 135 143 154 q 311 115 244 115 q 397 134 368 115 q 426 186 426 153 q 343 261 426 243 l 265 279 q 113 350 163 303 q 64 476 64 397 q 136 623 64 567 q 339 679 208 679 q 431 672 389 679 q 505 649 474 664 q 553 615 536 635 q 571 568 571 594 q 560 524 571 543 q 533 494 549 506 q 501 511 521 503 q 456 526 481 519 q 405 538 432 533 q 351 543 378 543 q 267 526 297 543 q 236 476 236 508 q 253 438 236 453 q 314 413 271 422 l 382 396 q 549 319 497 369 q 600 186 600 268 z "},"t":{"ha":535,"x_min":90,"x_max":486,"o":"m 264 204 q 291 140 264 160 q 367 121 318 121 q 415 126 390 121 q 458 140 439 132 q 477 113 469 129 q 485 76 485 97 q 447 8 485 35 q 326 -19 410 -19 q 153 30 217 -19 q 90 193 90 79 l 90 831 q 123 838 101 833 q 169 842 144 842 q 241 824 218 842 q 264 760 264 806 l 264 644 l 468 644 q 481 615 475 633 q 486 576 486 597 q 469 524 486 540 q 425 507 453 507 l 264 507 l 264 204 l 264 204 z "},"u":{"ha":786,"x_min":88,"x_max":699,"o":"m 699 129 q 688 76 699 97 q 647 38 676 54 q 545 -4 607 13 q 404 -21 483 -21 q 274 -5 332 -21 q 174 44 215 11 q 110 129 132 78 q 88 251 88 181 l 88 656 q 120 663 99 660 q 168 667 142 667 q 240 649 217 667 q 264 585 264 632 l 264 254 q 301 151 264 182 q 406 119 338 119 q 478 128 449 119 q 524 146 508 136 l 524 656 q 556 663 535 660 q 603 667 578 667 q 676 649 653 667 q 699 585 699 632 l 699 129 l 699 129 z "},"v":{"ha":724,"x_min":35,"x_max":682,"o":"m 597 672 q 658 656 633 672 q 682 600 682 639 q 672 542 682 582 q 644 449 661 501 q 604 335 626 396 q 558 215 582 274 q 511 103 535 156 q 468 14 488 50 q 426 -4 454 3 q 365 -11 399 -11 q 297 -1 325 -11 q 256 33 268 10 q 225 99 243 57 q 186 193 207 140 q 143 305 165 246 q 101 422 121 364 q 63 535 81 481 q 35 632 46 589 q 74 660 49 649 q 128 672 100 672 q 187 656 164 672 q 222 596 210 639 l 292 367 q 310 308 300 339 q 331 247 321 276 q 349 190 340 217 q 364 144 358 163 l 369 144 q 449 397 410 267 q 517 653 488 526 q 555 667 533 663 q 597 672 576 672 z "},"w":{"ha":1057,"x_min":43,"x_max":1011,"o":"m 533 426 q 501 311 518 369 q 466 198 483 253 q 433 96 449 143 q 406 15 417 49 q 367 -3 390 4 q 307 -11 343 -11 q 237 1 267 -11 q 196 36 207 13 q 158 142 179 69 q 115 302 138 215 q 74 478 93 389 q 43 635 56 568 q 81 660 57 649 q 135 672 106 672 q 196 653 174 672 q 225 593 218 635 q 275 310 251 426 q 308 153 299 194 l 314 153 q 333 222 319 176 q 363 328 346 268 q 401 456 381 388 q 442 593 421 524 q 483 610 461 604 q 533 617 504 617 q 597 604 571 617 q 631 567 622 592 q 670 436 651 500 q 704 317 689 372 q 731 219 719 263 q 750 153 743 176 l 757 153 q 806 393 781 268 q 850 651 832 518 q 888 667 867 661 q 929 672 908 672 q 988 656 965 672 q 1011 601 1011 639 q 1003 538 1011 582 q 981 438 994 494 q 952 319 968 382 q 919 197 936 256 q 888 90 903 138 q 861 15 872 42 q 819 -3 847 4 q 757 -11 790 -11 q 653 32 669 -11 q 626 107 642 63 q 595 204 611 151 q 563 314 579 257 q 533 426 547 371 z "},"x":{"ha":699,"x_min":46,"x_max":660,"o":"m 97 161 q 170 249 133 206 q 244 336 207 292 q 144 458 192 399 q 46 579 96 517 q 78 644 54 619 q 139 668 103 668 q 193 651 174 668 q 236 604 213 635 q 294 524 264 565 q 356 440 324 482 q 441 553 400 499 q 525 667 482 607 q 536 668 532 668 q 546 668 540 668 q 621 647 593 668 q 649 593 649 626 q 637 546 649 567 q 594 490 625 525 l 460 333 q 560 203 510 267 q 660 75 610 140 q 629 11 654 35 q 568 -12 604 -12 q 506 10 529 -11 q 458 64 482 31 q 401 143 431 103 q 344 224 372 183 q 260 107 301 165 q 178 -10 218 49 l 153 -10 q 74 13 101 -10 q 47 67 47 35 q 58 108 47 89 q 97 161 69 126 z "},"y":{"ha":724,"x_min":35,"x_max":683,"o":"m 206 158 q 126 346 172 228 q 35 632 81 464 q 74 660 49 649 q 128 672 99 672 q 187 656 164 672 q 224 596 210 639 q 372 171 289 386 l 378 171 q 416 275 396 217 q 455 397 436 333 q 490 526 474 461 q 519 653 507 592 q 555 667 536 661 q 594 672 574 672 q 657 656 631 672 q 683 601 683 639 q 665 484 683 560 q 617 322 647 408 q 550 147 588 235 q 475 -8 513 58 q 344 -199 403 -136 q 228 -262 285 -262 q 156 -237 183 -262 q 122 -172 129 -211 q 169 -127 144 -153 q 219 -72 194 -101 q 267 -12 244 -43 q 306 47 289 18 q 281 58 293 51 q 258 76 269 64 q 233 108 246 89 q 206 158 219 128 z "},"z":{"ha":660,"x_min":54,"x_max":613,"o":"m 90 0 q 64 35 74 15 q 54 78 54 54 q 65 122 54 101 q 90 161 75 142 l 385 519 l 79 519 q 67 549 72 531 q 61 589 61 568 q 78 642 61 625 q 122 658 94 658 l 564 658 q 590 624 581 643 q 600 579 600 604 q 590 537 600 557 q 564 497 579 517 l 271 138 l 594 138 q 607 108 601 126 q 613 69 613 90 q 596 17 613 33 q 551 0 579 0 l 90 0 z "},"{":{"ha":431,"x_min":42,"x_max":390,"o":"m 225 375 q 310 203 310 332 l 310 36 q 331 -33 310 -12 q 388 -57 351 -53 q 390 -76 390 -67 q 390 -93 390 -85 q 367 -154 390 -135 q 304 -174 344 -174 q 193 -128 236 -174 q 150 8 150 -83 l 150 165 q 126 267 150 232 q 51 314 101 303 q 44 343 47 326 q 42 375 42 360 q 44 408 42 392 q 51 438 47 425 q 126 484 101 449 q 150 586 150 519 l 150 736 q 194 872 150 828 q 307 917 239 917 q 369 898 347 917 q 390 835 390 879 q 390 818 390 826 q 388 800 390 810 q 331 776 351 796 q 310 707 310 756 l 310 547 q 225 375 310 417 z "},"|":{"ha":369,"x_min":107,"x_max":264,"o":"m 264 -242 q 232 -249 251 -246 q 192 -251 213 -251 q 128 -236 150 -251 q 107 -175 107 -221 l 107 938 q 178 947 133 947 q 242 932 219 947 q 264 869 264 917 l 264 -242 z "},"}":{"ha":431,"x_min":40,"x_max":389,"o":"m 206 375 q 121 547 121 417 l 121 707 q 100 776 121 756 q 43 800 79 796 q 40 818 40 810 q 40 835 40 826 q 62 898 40 879 q 124 917 83 917 q 236 872 192 917 q 281 736 281 828 l 281 586 q 305 484 281 519 q 379 438 329 449 q 386 408 383 425 q 389 375 389 392 q 386 343 389 360 q 379 314 383 326 q 305 267 329 303 q 281 165 281 232 l 281 8 q 238 -128 281 -83 q 126 -174 194 -174 q 63 -154 86 -174 q 40 -93 40 -135 q 40 -76 40 -85 q 43 -57 40 -67 q 100 -33 79 -53 q 121 36 121 -12 l 121 203 q 206 375 121 332 z "},"~":{"ha":661,"x_min":29,"x_max":633,"o":"m 443 414 q 496 433 479 414 q 525 474 513 451 q 601 447 569 474 q 633 376 633 421 q 590 288 633 318 q 483 257 547 257 q 411 265 446 257 q 344 283 376 274 q 281 300 313 292 q 219 308 250 308 q 166 288 183 308 q 138 249 149 268 q 61 275 93 249 q 29 346 29 301 q 42 398 29 375 q 75 435 54 421 q 123 458 96 450 q 179 465 150 465 q 253 457 218 465 q 320 440 288 449 q 383 422 353 431 q 443 414 414 414 z "}," ":{"ha":278,"x_min":0,"x_max":0,"o":""},"¡":{"ha":382,"x_min":86,"x_max":300,"o":"m 101 -149 q 103 -49 101 -111 q 107 83 104 13 q 115 224 110 153 q 126 351 119 296 q 158 365 138 360 q 194 369 178 369 q 244 359 224 369 q 268 321 264 349 q 276 219 272 285 q 283 77 281 153 q 288 -74 286 1 q 289 -206 289 -150 q 190 -232 244 -232 q 125 -211 149 -232 q 101 -149 101 -190 m 300 558 q 271 483 300 513 q 193 453 242 453 q 115 483 144 453 q 86 558 86 513 q 115 634 86 604 q 193 664 144 664 q 271 634 242 664 q 300 558 300 604 z "},"¢":{"ha":672,"x_min":54,"x_max":617,"o":"m 426 538 q 349 524 385 538 q 288 483 314 510 q 247 418 263 457 q 232 328 232 379 q 286 173 232 225 q 426 121 340 121 q 510 134 475 121 q 574 163 546 147 q 605 131 593 149 q 617 89 617 113 q 571 17 617 46 q 446 -18 525 -11 l 446 -135 q 417 -140 436 -137 q 376 -143 399 -143 q 311 -127 332 -143 q 290 -71 290 -111 l 290 -6 q 117 106 181 22 q 54 328 54 189 q 72 453 54 397 q 122 550 90 508 q 196 619 153 592 q 290 663 239 647 l 290 796 q 319 801 300 799 q 360 804 338 804 q 425 788 404 804 q 446 732 446 772 l 446 675 q 565 638 521 668 q 610 565 610 607 q 598 525 610 543 q 571 496 586 507 q 509 524 543 511 q 426 538 475 538 z "},"£":{"ha":700,"x_min":61,"x_max":665,"o":"m 181 311 q 180 328 181 319 q 179 349 179 338 l 125 349 q 82 365 99 349 q 65 419 65 381 q 72 457 65 439 q 83 486 78 475 l 165 486 q 161 533 163 510 q 160 575 160 556 q 183 706 160 651 q 248 797 207 761 q 344 849 289 832 q 461 865 399 865 q 599 835 553 865 q 646 760 646 806 q 636 719 646 740 q 610 688 626 697 q 553 713 582 704 q 485 722 525 722 q 372 685 410 722 q 333 564 333 647 q 334 528 333 547 q 336 486 335 508 l 560 486 q 572 457 565 475 q 578 419 578 439 q 561 365 578 381 q 517 349 544 349 l 350 349 q 351 327 351 338 q 351 308 351 317 q 293 139 351 199 l 649 139 q 660 109 656 126 q 665 71 665 92 q 649 17 665 35 q 604 0 632 0 l 139 0 q 84 23 107 0 q 61 88 61 46 q 61 98 61 94 q 63 108 61 101 q 151 179 122 135 q 181 311 181 224 z "},"¤":{"ha":758,"x_min":79,"x_max":675,"o":"m 654 408 q 640 312 654 356 q 597 236 625 268 l 675 144 q 641 98 661 113 q 599 83 621 83 q 559 101 578 83 q 525 139 540 119 l 503 165 q 376 142 443 142 q 250 165 308 142 l 181 75 q 124 99 149 82 q 99 143 99 115 q 109 180 99 161 q 136 219 119 199 l 151 239 q 113 313 126 271 q 99 408 99 356 q 153 578 99 511 l 79 667 q 113 713 93 699 q 157 728 133 728 q 195 710 176 728 q 231 672 214 692 l 247 651 q 375 676 306 676 q 510 649 447 676 l 578 736 q 635 713 610 729 q 660 668 660 696 q 649 631 660 649 q 622 592 639 613 l 606 569 q 642 497 629 538 q 654 408 654 457 m 503 408 q 468 517 503 479 q 376 554 433 554 q 283 517 318 554 q 249 408 249 479 q 283 300 249 338 q 376 263 318 263 q 468 300 433 263 q 503 408 503 338 z "},"¥":{"ha":794,"x_min":49,"x_max":738,"o":"m 93 371 q 76 428 76 392 q 90 474 76 460 q 125 488 104 488 l 226 488 q 125 654 174 571 q 49 801 76 738 q 85 836 63 821 q 140 851 108 851 q 203 834 181 851 q 250 772 225 817 l 403 501 l 411 501 q 456 587 436 549 q 494 663 476 625 q 532 742 513 701 q 576 833 551 782 q 657 851 613 851 q 715 832 693 851 q 738 779 738 813 q 699 684 738 756 q 583 488 660 613 l 714 488 q 724 460 719 475 q 729 428 729 446 q 715 385 729 399 q 678 371 700 371 l 93 371 m 492 172 l 492 1 q 458 -6 481 -1 q 410 -10 435 -10 q 336 10 358 -10 q 314 74 314 29 l 314 172 l 93 172 q 76 231 76 193 q 90 276 76 264 q 125 289 104 289 l 713 289 q 723 263 718 278 q 728 231 728 247 q 713 186 728 200 q 678 172 699 172 l 492 172 z "},"¦":{"ha":407,"x_min":107,"x_max":264,"o":"m 264 433 q 232 426 251 429 q 192 424 213 424 q 128 439 150 424 q 107 500 107 454 l 107 939 q 138 945 118 942 q 178 949 157 949 q 242 933 219 949 q 264 871 264 917 l 264 433 m 264 -242 q 232 -249 251 -246 q 192 -251 213 -251 q 128 -236 150 -251 q 107 -175 107 -221 l 107 264 q 138 270 118 267 q 178 274 157 274 q 242 258 219 274 q 264 196 264 242 l 264 -242 z "},"§":{"ha":731,"x_min":78,"x_max":654,"o":"m 654 389 q 635 311 654 346 q 589 253 617 276 q 654 122 654 208 q 576 -26 654 28 q 347 -79 499 -79 q 240 -71 289 -79 q 154 -47 190 -62 q 98 -8 118 -31 q 78 44 78 15 q 90 89 78 71 q 119 119 101 107 q 217 76 163 94 q 342 57 271 57 q 481 124 481 57 q 459 165 481 151 q 388 189 438 179 l 283 208 q 131 272 185 226 q 78 404 78 318 q 96 479 78 447 q 146 535 114 511 q 99 591 115 558 q 83 671 83 624 q 158 815 83 764 q 360 865 233 865 q 456 858 411 865 q 535 838 501 851 q 589 803 569 824 q 608 756 608 782 q 599 712 608 731 q 574 682 589 693 q 535 699 558 690 q 485 715 513 707 q 429 726 458 722 q 372 731 400 731 q 286 715 317 731 q 256 667 256 699 q 275 626 256 639 q 335 607 294 614 l 435 589 q 598 522 542 569 q 654 389 654 474 m 328 333 q 397 319 372 324 q 433 311 422 314 q 447 308 444 308 q 450 307 450 307 q 478 340 468 322 q 488 382 488 358 q 388 461 488 442 l 279 481 q 244 408 244 454 q 265 361 244 381 q 328 333 285 342 z "},"¨":{"ha":519,"x_min":33,"x_max":490,"o":"m 221 858 q 194 794 221 821 q 126 768 167 768 q 59 794 85 768 q 33 858 33 821 q 59 924 33 897 q 126 950 85 950 q 194 924 167 950 q 221 858 221 897 m 490 858 q 464 794 490 821 q 397 768 438 768 q 330 794 357 768 q 303 858 303 821 q 330 924 303 897 q 397 950 357 950 q 464 924 438 950 q 490 858 490 897 z "},"©":{"ha":990,"x_min":61,"x_max":929,"o":"m 61 421 q 92 590 61 511 q 181 728 124 669 q 317 819 238 786 q 493 853 396 853 q 669 819 589 853 q 808 728 750 786 q 897 590 865 669 q 929 421 929 511 q 897 253 929 331 q 808 119 865 176 q 669 30 750 63 q 493 -3 589 -3 q 317 30 396 -3 q 181 119 238 63 q 92 253 124 176 q 61 421 61 331 m 493 753 q 362 728 419 753 q 263 659 304 703 q 201 554 222 615 q 179 421 179 493 q 201 291 179 350 q 263 190 222 232 q 362 124 304 147 q 493 100 419 100 q 625 124 567 100 q 724 190 683 147 q 785 291 764 232 q 807 421 807 350 q 785 554 807 493 q 724 659 764 615 q 625 728 683 703 q 493 753 567 753 m 536 550 q 452 520 488 550 q 417 428 417 490 q 451 335 417 367 q 538 303 485 303 q 590 310 569 303 q 626 328 611 318 q 656 271 656 307 q 619 220 656 243 q 518 197 583 197 q 428 212 469 197 q 355 256 386 226 q 306 328 324 285 q 288 428 288 371 q 308 530 288 486 q 362 601 329 574 q 435 643 394 629 q 515 657 475 657 q 613 635 575 657 q 650 578 650 613 q 642 549 650 563 q 621 525 633 535 q 585 542 606 533 q 536 550 564 550 z "},"ª":{"ha":492,"x_min":39,"x_max":428,"o":"m 235 504 q 279 508 258 504 q 311 519 300 513 l 311 611 l 232 603 q 156 556 156 596 q 235 504 156 504 m 229 864 q 373 827 318 864 q 428 704 428 790 l 428 496 q 417 465 428 476 q 389 443 406 453 q 235 411 332 411 q 91 445 143 411 q 39 550 39 479 q 77 645 39 613 q 194 685 115 678 l 311 697 l 311 704 q 288 755 311 740 q 215 769 264 769 q 146 760 181 769 q 88 738 111 751 q 69 758 76 744 q 61 788 61 772 q 70 819 61 807 q 99 840 79 831 q 158 858 122 851 q 229 864 194 864 z "},"«":{"ha":726,"x_min":44,"x_max":676,"o":"m 371 122 q 351 67 371 92 q 289 42 331 42 q 245 56 265 42 q 206 89 225 69 l 61 242 q 49 272 54 254 q 44 307 44 289 q 53 361 44 342 q 75 393 61 381 l 278 596 q 338 564 318 585 q 358 517 358 543 q 348 475 358 493 q 307 426 338 457 l 189 310 l 371 122 m 676 122 q 656 67 676 92 q 596 42 636 42 q 551 56 571 42 q 513 89 532 69 l 368 242 q 356 272 361 254 q 350 307 350 289 q 358 361 350 342 q 381 393 367 381 l 583 596 q 644 564 624 585 q 665 517 665 543 q 655 474 665 493 q 614 426 644 456 l 496 310 l 676 122 z "},"¬":{"ha":743,"x_min":56,"x_max":686,"o":"m 607 578 q 665 557 643 578 q 686 500 686 536 l 686 253 q 653 245 675 249 q 610 242 632 242 q 544 258 565 242 q 522 324 522 275 l 522 442 l 72 442 q 60 471 65 453 q 56 508 56 489 q 73 561 56 544 q 121 578 90 578 l 607 578 z "},"­":{"ha":515,"x_min":58,"x_max":457,"o":"m 76 286 q 64 317 69 299 q 58 356 58 335 q 76 411 58 393 q 125 429 94 429 l 439 429 q 451 399 446 418 q 457 360 457 381 q 439 304 457 322 q 390 286 421 286 l 76 286 z "},"®":{"ha":860,"x_min":65,"x_max":794,"o":"m 65 519 q 92 658 65 593 q 166 772 118 724 q 281 847 214 819 q 429 875 347 875 q 576 847 510 875 q 692 772 643 819 q 767 658 740 724 q 794 519 794 593 q 767 381 794 446 q 692 269 740 317 q 576 193 643 221 q 429 165 510 165 q 281 193 347 165 q 166 269 214 221 q 92 381 118 317 q 65 519 65 446 m 167 519 q 185 414 167 463 q 238 330 204 365 q 321 274 272 294 q 429 254 369 254 q 538 274 489 254 q 620 330 586 294 q 672 414 654 365 q 690 519 690 463 q 672 626 690 578 q 620 711 654 675 q 538 767 586 747 q 429 788 489 788 q 321 767 369 788 q 238 711 272 747 q 185 626 204 675 q 167 519 167 578 m 396 476 l 396 368 q 377 365 389 367 q 350 364 365 364 q 319 371 331 364 q 307 403 307 378 l 307 661 q 333 688 307 679 q 419 697 371 697 q 528 667 490 697 q 567 585 567 638 q 548 526 567 549 q 501 492 529 503 l 576 396 q 558 372 572 381 q 528 363 544 363 q 496 372 508 363 q 472 397 483 381 l 419 476 l 396 476 m 428 542 q 476 586 476 542 q 422 628 476 628 q 408 627 415 628 q 396 626 401 626 l 396 542 l 428 542 z "},"¯":{"ha":482,"x_min":29,"x_max":451,"o":"m 49 788 q 35 816 42 799 q 29 853 29 833 q 46 907 29 892 q 90 922 63 922 l 433 922 q 451 857 451 897 q 435 803 451 819 q 392 788 419 788 l 49 788 z "},"°":{"ha":501,"x_min":38,"x_max":463,"o":"m 463 669 q 446 588 463 624 q 401 526 429 551 q 334 488 372 501 q 251 475 296 475 q 98 527 158 475 q 38 669 38 579 q 54 751 38 715 q 100 813 71 788 q 168 851 129 838 q 251 864 207 864 q 334 851 296 864 q 401 813 372 838 q 446 751 429 788 q 463 669 463 715 m 251 754 q 194 734 219 754 q 169 669 169 714 q 194 603 169 625 q 251 582 218 582 q 308 603 283 582 q 332 669 332 625 q 308 734 332 714 q 251 754 283 754 z "},"±":{"ha":758,"x_min":81,"x_max":678,"o":"m 461 578 l 661 578 q 673 549 668 567 q 678 510 678 531 q 660 456 678 472 q 611 439 642 439 l 461 439 l 461 238 q 428 231 449 235 q 388 228 408 228 q 323 243 344 228 q 301 306 301 258 l 301 439 l 96 439 q 85 467 89 450 q 81 506 81 485 q 99 560 81 543 q 147 578 117 578 l 301 578 l 301 774 q 335 781 314 778 q 376 785 356 785 q 439 769 417 785 q 461 707 461 753 l 461 578 m 96 0 q 85 28 89 11 q 81 67 81 46 q 99 122 81 104 q 147 140 117 140 l 661 140 q 673 110 668 128 q 678 71 678 92 q 660 17 678 33 q 611 0 642 0 l 96 0 z "},"²":{"ha":386,"x_min":31,"x_max":349,"o":"m 172 971 q 296 933 251 971 q 340 829 340 896 q 315 747 340 786 q 239 667 290 708 l 164 607 l 338 607 q 345 588 342 599 q 349 563 349 576 q 307 517 349 517 l 57 517 q 38 540 46 526 q 31 572 31 554 q 51 632 31 614 l 163 729 q 215 784 200 763 q 231 826 231 806 q 212 867 231 853 q 164 882 193 882 q 113 872 135 882 q 72 850 90 863 q 53 869 61 857 q 46 901 46 882 q 82 953 46 935 q 172 971 118 971 z "},"³":{"ha":388,"x_min":21,"x_max":350,"o":"m 178 788 q 217 799 203 788 q 232 831 232 811 q 213 867 232 854 q 157 881 193 881 q 105 873 129 881 q 63 854 81 865 q 35 904 35 871 q 74 954 35 936 q 174 972 114 972 q 298 936 254 972 q 342 842 342 900 q 324 785 342 811 q 279 749 307 760 q 330 708 310 736 q 350 640 350 681 q 299 540 350 574 q 172 506 249 506 q 62 527 103 506 q 21 581 21 549 q 30 612 21 599 q 54 632 39 625 q 99 608 74 619 q 163 596 125 596 q 219 610 199 596 q 240 650 240 624 q 224 687 240 674 q 179 700 208 700 l 107 700 q 94 743 94 719 q 107 788 94 772 l 178 788 z "},"´":{"ha":414,"x_min":89,"x_max":360,"o":"m 253 1000 q 332 976 304 1000 q 360 924 360 953 q 349 881 360 897 q 311 842 338 865 l 182 725 q 113 747 138 725 q 89 796 89 769 q 95 822 89 811 q 115 849 101 833 l 253 1000 z "},"µ":{"ha":788,"x_min":89,"x_max":700,"o":"m 186 -254 q 113 -235 136 -254 q 89 -172 89 -217 l 89 656 q 122 663 100 660 q 168 667 143 667 q 241 649 218 667 q 264 585 264 632 l 264 254 q 302 151 264 182 q 407 119 340 119 q 480 128 450 119 q 525 146 510 136 l 525 656 q 558 663 536 660 q 604 667 579 667 q 677 649 654 667 q 700 585 700 632 l 700 129 q 689 76 700 97 q 649 38 678 56 q 561 -3 614 15 q 431 -21 508 -21 q 250 39 310 -21 q 260 -61 257 -10 q 264 -168 264 -112 l 264 -239 q 231 -249 251 -244 q 186 -254 211 -254 z "},"¶":{"ha":690,"x_min":22,"x_max":604,"o":"m 508 851 q 578 836 553 851 q 604 768 604 821 l 604 -96 q 571 -103 593 -99 q 525 -107 549 -107 q 454 -90 479 -107 q 429 -24 429 -74 l 429 703 l 335 703 l 335 349 q 315 319 335 331 q 253 308 296 308 q 169 324 211 308 q 95 372 128 339 q 42 453 63 404 q 22 571 22 503 q 47 694 22 642 q 113 782 71 747 q 209 834 154 817 q 325 851 264 851 l 508 851 z "},"·":{"ha":265,"x_min":26,"x_max":239,"o":"m 26 364 q 55 441 26 410 q 133 472 83 472 q 210 441 182 472 q 239 364 239 410 q 210 288 239 319 q 133 257 182 257 q 55 288 83 257 q 26 364 26 319 z "},"¸":{"ha":271,"x_min":-12,"x_max":249,"o":"m 165 39 q 229 -29 210 11 q 249 -117 249 -69 q 206 -230 249 -187 q 89 -272 163 -272 q 15 -251 42 -272 q -12 -192 -12 -231 q -6 -153 -12 -174 l 13 -153 q 79 -132 58 -153 q 100 -78 100 -111 q 92 -37 100 -60 q 67 6 85 -14 l 165 39 z "},"¹":{"ha":301,"x_min":15,"x_max":235,"o":"m 126 844 l 56 817 q 28 838 40 824 q 15 875 15 853 q 26 907 15 894 q 54 926 36 919 l 156 968 l 176 968 q 219 951 204 968 q 235 907 235 935 l 235 519 q 213 514 226 517 q 185 511 199 511 q 142 521 157 511 q 126 563 126 531 l 126 844 z "},"º":{"ha":538,"x_min":47,"x_max":485,"o":"m 485 638 q 425 469 485 528 q 267 411 365 411 q 108 470 168 411 q 47 638 47 529 q 108 805 47 746 q 267 864 169 864 q 425 803 365 864 q 485 638 485 743 m 267 765 q 197 733 222 765 q 171 638 171 700 q 197 542 171 575 q 267 510 222 510 q 337 542 311 510 q 363 638 363 575 q 337 732 363 699 q 267 765 311 765 z "},"»":{"ha":726,"x_min":50,"x_max":682,"o":"m 356 515 q 376 571 356 546 q 436 596 396 596 q 481 582 461 596 q 519 549 501 568 l 665 396 q 677 366 672 383 q 682 331 682 349 q 674 276 682 296 q 651 246 665 257 l 449 42 q 388 74 408 53 q 368 121 368 94 q 378 163 368 144 q 419 211 389 181 l 538 328 l 356 515 m 50 515 q 70 571 50 546 q 131 596 90 596 q 175 582 156 596 q 214 549 194 568 l 358 396 q 371 366 365 383 q 376 331 376 349 q 368 276 376 296 q 346 246 360 257 l 143 42 q 82 74 103 53 q 61 121 61 94 q 72 163 61 144 q 113 211 82 182 l 231 328 l 50 515 z "},"¿":{"ha":665,"x_min":43,"x_max":622,"o":"m 482 360 q 515 322 501 346 q 529 267 529 299 q 512 218 529 235 q 458 192 494 201 l 357 167 q 260 119 293 151 q 228 35 228 88 q 264 -47 228 -11 q 382 -82 300 -82 q 492 -66 439 -82 q 576 -26 544 -50 q 609 -62 596 -42 q 622 -110 622 -82 q 603 -161 622 -139 q 549 -199 583 -183 q 467 -224 515 -215 q 364 -232 419 -232 q 229 -212 289 -232 q 128 -158 169 -193 q 65 -74 86 -122 q 43 33 43 -25 q 118 224 43 154 q 344 329 193 294 l 482 360 m 514 560 q 485 483 514 514 q 407 453 456 453 q 329 483 358 453 q 300 560 300 514 q 329 634 300 604 q 407 664 358 664 q 485 634 456 664 q 514 560 514 604 z "},"À":{"ha":847,"x_min":36,"x_max":815,"o":"m 578 199 l 267 199 q 234 92 251 147 q 206 0 217 36 q 176 -10 192 -6 q 136 -14 160 -14 q 63 5 89 -14 q 36 58 36 24 q 41 91 36 75 q 53 128 46 107 q 83 222 64 167 q 123 341 101 276 q 169 474 144 406 q 217 608 194 543 q 262 728 240 672 q 299 825 283 785 q 352 844 317 835 q 424 854 388 854 q 513 840 472 854 q 564 793 553 825 q 625 617 592 717 q 692 413 658 518 q 758 206 726 307 q 815 24 790 104 q 777 -2 801 8 q 719 -12 753 -12 q 651 5 671 -12 q 619 60 631 22 l 578 199 m 422 696 q 395 618 410 661 q 365 528 381 575 q 332 434 349 482 q 300 340 315 386 l 542 340 l 429 696 l 422 696 m 225 1046 q 222 1071 222 1060 q 244 1129 222 1107 q 297 1151 265 1151 q 375 1113 338 1151 l 493 983 q 469 929 490 947 q 421 911 447 911 q 383 919 399 911 q 350 940 367 928 l 225 1046 z "},"Á":{"ha":847,"x_min":36,"x_max":815,"o":"m 578 199 l 267 199 q 234 92 251 147 q 206 0 217 36 q 176 -10 192 -6 q 136 -14 160 -14 q 63 5 89 -14 q 36 58 36 24 q 41 91 36 75 q 53 128 46 107 q 83 222 64 167 q 123 341 101 276 q 169 474 144 406 q 217 608 194 543 q 262 728 240 672 q 299 825 283 785 q 352 844 317 835 q 424 854 388 854 q 513 840 472 854 q 564 793 553 825 q 625 617 592 717 q 692 413 658 518 q 758 206 726 307 q 815 24 790 104 q 777 -2 801 8 q 719 -12 753 -12 q 651 5 671 -12 q 619 60 631 22 l 578 199 m 422 696 q 395 618 410 661 q 365 528 381 575 q 332 434 349 482 q 300 340 315 386 l 542 340 l 429 696 l 422 696 m 529 1157 q 599 1135 574 1157 q 624 1082 624 1114 q 613 1041 624 1058 q 574 1003 603 1024 l 444 911 q 382 931 404 913 q 360 974 360 949 q 365 1001 360 989 q 386 1028 371 1014 l 529 1157 z "},"Â":{"ha":847,"x_min":36,"x_max":815,"o":"m 432 1031 q 372 971 404 1003 q 303 908 339 939 q 247 928 269 910 q 225 975 225 947 q 238 1015 225 999 q 276 1054 250 1031 l 333 1107 q 385 1143 361 1132 q 435 1154 408 1154 q 487 1143 464 1154 q 533 1107 510 1132 l 647 986 q 627 931 647 950 q 574 911 607 911 q 533 925 551 911 q 488 968 515 939 l 432 1031 m 578 199 l 267 199 q 234 92 251 147 q 206 0 217 36 q 176 -10 192 -6 q 136 -14 160 -14 q 63 5 89 -14 q 36 58 36 24 q 41 91 36 75 q 53 128 46 107 q 83 222 64 167 q 123 341 101 276 q 169 474 144 406 q 217 608 194 543 q 262 728 240 672 q 299 825 283 785 q 352 844 317 835 q 424 854 388 854 q 513 840 472 854 q 564 793 553 825 q 625 617 592 717 q 692 413 658 518 q 758 206 726 307 q 815 24 790 104 q 777 -2 801 8 q 719 -12 753 -12 q 651 5 671 -12 q 619 60 631 22 l 578 199 m 422 696 q 395 618 410 661 q 365 528 381 575 q 332 434 349 482 q 300 340 315 386 l 542 340 l 429 696 l 422 696 z "},"Ã":{"ha":847,"x_min":36,"x_max":815,"o":"m 578 199 l 267 199 q 234 92 251 147 q 206 0 217 36 q 176 -10 192 -6 q 136 -14 160 -14 q 63 5 89 -14 q 36 58 36 24 q 41 91 36 75 q 53 128 46 107 q 83 222 64 167 q 123 341 101 276 q 169 474 144 406 q 217 608 194 543 q 262 728 240 672 q 299 825 283 785 q 352 844 317 835 q 424 854 388 854 q 513 840 472 854 q 564 793 553 825 q 625 617 592 717 q 692 413 658 518 q 758 206 726 307 q 815 24 790 104 q 777 -2 801 8 q 719 -12 753 -12 q 651 5 671 -12 q 619 60 631 22 l 578 199 m 422 696 q 395 618 410 661 q 365 528 381 575 q 332 434 349 482 q 300 340 315 386 l 542 340 l 429 696 l 422 696 m 321 1132 q 376 1125 350 1132 q 426 1110 403 1118 q 471 1096 450 1103 q 508 1089 492 1089 q 550 1105 536 1089 q 571 1139 564 1121 l 578 1139 q 639 1117 613 1139 q 665 1056 665 1096 q 632 978 665 1006 q 546 951 599 951 q 487 958 514 951 q 436 974 460 965 q 392 989 413 982 q 356 996 372 996 q 314 980 328 996 q 293 944 300 964 l 288 944 q 226 966 251 944 q 200 1028 200 988 q 210 1074 200 1054 q 238 1106 221 1093 q 277 1126 256 1119 q 321 1132 299 1132 z "},"Ä":{"ha":847,"x_min":36,"x_max":815,"o":"m 578 199 l 267 199 q 234 92 251 147 q 206 0 217 36 q 176 -10 192 -6 q 136 -14 160 -14 q 63 5 89 -14 q 36 58 36 24 q 41 91 36 75 q 53 128 46 107 q 83 222 64 167 q 123 341 101 276 q 169 474 144 406 q 217 608 194 543 q 262 728 240 672 q 299 825 283 785 q 352 844 317 835 q 424 854 388 854 q 513 840 472 854 q 564 793 553 825 q 625 617 592 717 q 692 413 658 518 q 758 206 726 307 q 815 24 790 104 q 777 -2 801 8 q 719 -12 753 -12 q 651 5 671 -12 q 619 60 631 22 l 578 199 m 422 696 q 395 618 410 661 q 365 528 381 575 q 332 434 349 482 q 300 340 315 386 l 542 340 l 429 696 l 422 696 m 385 1032 q 358 968 385 994 q 290 942 331 942 q 223 968 249 942 q 197 1032 197 994 q 223 1097 197 1071 q 290 1124 249 1124 q 358 1097 331 1124 q 385 1032 385 1071 m 654 1032 q 628 968 654 994 q 561 942 601 942 q 494 968 521 942 q 467 1032 467 994 q 494 1097 467 1071 q 561 1124 521 1124 q 628 1097 601 1124 q 654 1032 654 1071 z "},"Å":{"ha":847,"x_min":36,"x_max":815,"o":"m 578 199 l 267 199 q 234 92 251 147 q 206 0 217 36 q 176 -10 192 -6 q 136 -14 160 -14 q 63 5 89 -14 q 36 58 36 24 q 41 91 36 75 q 53 128 46 107 q 83 222 64 167 q 123 341 101 276 q 169 474 144 406 q 217 608 194 543 q 262 728 240 672 q 299 825 283 785 q 352 844 317 835 q 424 854 388 854 q 513 840 472 854 q 564 793 553 825 q 625 617 592 717 q 692 413 658 518 q 758 206 726 307 q 815 24 790 104 q 777 -2 801 8 q 719 -12 753 -12 q 651 5 671 -12 q 619 60 631 22 l 578 199 m 422 696 q 395 618 410 661 q 365 528 381 575 q 332 434 349 482 q 300 340 315 386 l 542 340 l 429 696 l 422 696 m 264 1040 q 308 1140 264 1100 q 431 1179 353 1179 q 555 1140 510 1179 q 600 1040 600 1100 q 555 942 600 982 q 431 903 510 903 q 308 942 353 903 q 264 1040 264 982 m 376 1040 q 392 1003 376 1017 q 431 990 407 990 q 470 1003 454 990 q 486 1040 486 1017 q 470 1077 486 1064 q 431 1090 454 1090 q 392 1077 407 1090 q 376 1040 376 1064 z "},"Æ":{"ha":1194,"x_min":46,"x_max":1133,"o":"m 647 -3 q 578 24 604 -3 q 553 94 553 50 l 553 199 l 299 199 l 203 0 q 174 -9 188 -6 q 138 -12 161 -12 q 69 6 92 -12 q 46 56 46 24 q 51 90 46 72 q 67 129 56 107 q 108 211 82 160 q 165 325 133 263 q 233 456 197 388 q 304 591 269 525 q 371 717 339 657 q 428 821 403 776 q 472 841 443 832 q 538 850 501 850 q 591 844 563 850 q 642 826 619 839 q 667 838 653 833 q 700 843 682 843 l 1107 843 q 1120 814 1114 832 q 1126 774 1126 796 q 1063 699 1126 699 l 728 699 l 728 501 l 1067 501 q 1080 473 1074 490 q 1086 433 1086 456 q 1069 377 1086 396 q 1022 358 1051 358 l 728 358 l 728 143 l 1114 143 q 1127 113 1121 132 q 1133 72 1133 94 q 1116 16 1133 35 q 1069 -3 1099 -3 l 647 -3 m 369 340 l 553 340 l 553 693 l 544 693 l 369 340 z "},"Ç":{"ha":804,"x_min":61,"x_max":751,"o":"m 746 735 q 731 687 746 707 q 696 656 715 667 q 615 699 660 679 q 506 718 571 718 q 317 642 388 718 q 247 421 247 565 q 319 200 247 274 q 514 126 392 126 q 624 144 578 126 q 707 185 671 161 q 739 151 726 172 q 751 101 751 129 q 739 58 751 78 q 697 24 726 39 q 643 0 676 11 q 565 -17 610 -11 q 592 -117 592 -60 q 549 -230 592 -187 q 432 -272 506 -272 q 358 -251 385 -272 q 331 -192 331 -231 q 338 -153 331 -174 l 356 -153 q 422 -132 401 -153 q 443 -78 443 -111 q 426 -18 443 -50 q 281 22 347 -10 q 165 108 214 53 q 89 240 117 163 q 61 421 61 318 q 94 612 61 529 q 185 751 128 694 q 320 836 243 807 q 483 865 397 865 q 592 855 543 865 q 675 826 640 844 q 728 785 710 808 q 746 735 746 761 z "},"È":{"ha":757,"x_min":115,"x_max":696,"o":"m 211 -3 q 141 24 167 -3 q 115 94 115 50 l 115 747 q 141 817 115 792 q 211 843 167 843 l 671 843 q 683 814 678 832 q 689 774 689 796 q 672 718 689 738 q 626 699 656 699 l 290 699 l 290 501 l 629 501 q 642 473 636 490 q 649 433 649 456 q 585 358 649 358 l 290 358 l 290 143 l 676 143 q 690 113 683 132 q 696 72 696 94 q 632 -3 696 -3 l 211 -3 m 233 1046 q 231 1071 231 1060 q 252 1129 231 1107 q 306 1151 274 1151 q 383 1113 346 1151 l 501 983 q 477 929 499 947 q 429 911 456 911 q 391 919 407 911 q 358 940 375 928 l 233 1046 z "},"É":{"ha":757,"x_min":115,"x_max":696,"o":"m 211 -3 q 141 24 167 -3 q 115 94 115 50 l 115 747 q 141 817 115 792 q 211 843 167 843 l 671 843 q 683 814 678 832 q 689 774 689 796 q 672 718 689 738 q 626 699 656 699 l 290 699 l 290 501 l 629 501 q 642 473 636 490 q 649 433 649 456 q 585 358 649 358 l 290 358 l 290 143 l 676 143 q 690 113 683 132 q 696 72 696 94 q 632 -3 696 -3 l 211 -3 m 517 1157 q 586 1135 561 1157 q 611 1082 611 1114 q 601 1041 611 1058 q 561 1003 590 1024 l 432 911 q 369 931 392 913 q 347 974 347 949 q 353 1001 347 989 q 374 1028 358 1014 l 517 1157 z "},"Ê":{"ha":757,"x_min":115,"x_max":696,"o":"m 211 -3 q 141 24 167 -3 q 115 94 115 50 l 115 747 q 141 817 115 792 q 211 843 167 843 l 671 843 q 683 814 678 832 q 689 774 689 796 q 672 718 689 738 q 626 699 656 699 l 290 699 l 290 501 l 629 501 q 642 473 636 490 q 649 433 649 456 q 585 358 649 358 l 290 358 l 290 143 l 676 143 q 690 113 683 132 q 696 72 696 94 q 632 -3 696 -3 l 211 -3 m 408 1031 q 347 971 381 1003 q 279 908 314 939 q 224 928 246 910 q 201 975 201 947 q 214 1015 201 999 q 251 1054 226 1031 l 313 1110 q 411 1154 367 1154 q 463 1142 440 1154 q 510 1107 485 1131 l 622 986 q 602 931 622 950 q 550 911 582 911 q 510 925 528 911 q 464 968 492 939 l 408 1031 z "},"Ë":{"ha":757,"x_min":115,"x_max":696,"o":"m 211 -3 q 141 24 167 -3 q 115 94 115 50 l 115 747 q 141 817 115 792 q 211 843 167 843 l 671 843 q 683 814 678 832 q 689 774 689 796 q 672 718 689 738 q 626 699 656 699 l 290 699 l 290 501 l 629 501 q 642 473 636 490 q 649 433 649 456 q 585 358 649 358 l 290 358 l 290 143 l 676 143 q 690 113 683 132 q 696 72 696 94 q 632 -3 696 -3 l 211 -3 m 368 1025 q 341 961 368 988 q 274 935 314 935 q 206 961 232 935 q 181 1025 181 988 q 206 1090 181 1064 q 274 1117 232 1117 q 341 1090 314 1117 q 368 1025 368 1064 m 638 1025 q 611 961 638 988 q 544 935 585 935 q 477 961 504 935 q 450 1025 450 988 q 477 1090 450 1064 q 544 1117 504 1117 q 611 1090 585 1117 q 638 1025 638 1064 z "},"Ì":{"ha":394,"x_min":-14,"x_max":288,"o":"m 204 -10 q 129 10 151 -10 q 107 75 107 29 l 107 843 q 143 850 119 846 q 190 854 167 854 q 264 836 240 854 q 288 769 288 818 l 288 1 q 252 -6 275 -1 q 204 -10 229 -10 m -11 1046 q -14 1071 -14 1060 q 8 1129 -14 1107 q 61 1151 29 1151 q 139 1113 101 1151 l 257 983 q 233 929 254 947 q 185 911 211 911 q 147 919 163 911 q 114 940 131 928 l -11 1046 z "},"Í":{"ha":394,"x_min":107,"x_max":386,"o":"m 204 -10 q 129 10 151 -10 q 107 75 107 29 l 107 843 q 143 850 119 846 q 190 854 167 854 q 264 836 240 854 q 288 769 288 818 l 288 1 q 252 -6 275 -1 q 204 -10 229 -10 m 292 1157 q 361 1135 336 1157 q 386 1082 386 1114 q 376 1041 386 1058 q 336 1003 365 1024 l 207 911 q 144 931 167 913 q 122 974 122 949 q 128 1001 122 989 q 149 1028 133 1014 l 292 1157 z "},"Î":{"ha":394,"x_min":-10,"x_max":411,"o":"m 204 -10 q 129 10 151 -10 q 107 75 107 29 l 107 843 q 143 850 119 846 q 190 854 167 854 q 264 836 240 854 q 288 769 288 818 l 288 1 q 252 -6 275 -1 q 204 -10 229 -10 m 197 1031 q 136 971 169 1003 q 68 908 103 939 q 13 928 35 910 q -10 975 -10 947 q 3 1015 -10 999 q 40 1054 15 1031 l 101 1110 q 200 1154 156 1154 q 251 1142 229 1154 q 299 1107 274 1131 l 411 986 q 391 931 411 950 q 339 911 371 911 q 299 925 317 911 q 253 968 281 939 l 197 1031 z "},"Ï":{"ha":394,"x_min":-35,"x_max":422,"o":"m 204 -10 q 129 10 151 -10 q 107 75 107 29 l 107 843 q 143 850 119 846 q 190 854 167 854 q 264 836 240 854 q 288 769 288 818 l 288 1 q 252 -6 275 -1 q 204 -10 229 -10 m 153 1025 q 126 961 153 988 q 58 935 99 935 q -9 961 17 935 q -35 1025 -35 988 q -9 1090 -35 1064 q 58 1117 17 1117 q 126 1090 99 1117 q 153 1025 153 1064 m 422 1025 q 396 961 422 988 q 329 935 369 935 q 262 961 289 935 q 235 1025 235 988 q 262 1090 235 1064 q 329 1117 289 1117 q 396 1090 369 1117 q 422 1025 422 1064 z "},"Ð":{"ha":960,"x_min":21,"x_max":899,"o":"m 899 426 q 866 230 899 314 q 774 91 833 146 q 630 8 714 36 q 443 -19 546 -19 q 392 -19 419 -19 q 334 -15 364 -18 q 274 -6 304 -11 q 218 10 244 0 q 151 93 151 35 l 151 353 l 40 353 q 27 381 33 364 q 21 421 21 399 q 38 477 21 458 q 85 496 56 496 l 151 496 l 151 774 q 165 813 151 799 q 204 835 179 826 q 316 858 256 853 q 431 863 376 863 q 622 835 535 863 q 769 754 708 808 q 865 618 831 700 q 899 426 899 536 m 714 425 q 693 555 714 500 q 635 645 672 610 q 548 698 599 681 q 438 715 497 715 q 380 713 406 715 q 331 708 354 711 l 331 496 l 501 496 q 514 467 508 485 q 519 426 519 449 q 456 353 519 353 l 331 353 l 331 138 q 384 130 354 132 q 443 128 414 128 q 643 203 572 128 q 714 425 714 278 z "},"Ñ":{"ha":931,"x_min":107,"x_max":824,"o":"m 200 -10 q 128 9 149 -10 q 107 72 107 28 l 107 813 q 152 843 122 832 q 218 854 182 854 q 295 839 261 854 q 356 778 329 824 l 556 418 q 609 315 583 368 q 654 217 635 261 l 660 218 q 651 377 653 300 q 649 529 649 454 l 649 844 q 683 851 660 847 q 729 854 706 854 q 802 835 781 854 q 824 772 824 817 l 824 22 q 780 -1 808 7 q 713 -10 751 -10 q 637 5 671 -10 q 576 65 603 19 l 376 425 q 323 528 349 474 q 278 628 297 583 l 269 626 q 278 469 276 550 q 281 317 281 389 l 281 1 q 247 -6 269 -1 q 200 -10 225 -10 m 346 1132 q 401 1125 375 1132 q 451 1110 428 1118 q 496 1096 475 1103 q 533 1089 517 1089 q 575 1105 561 1089 q 596 1139 589 1121 l 603 1139 q 664 1117 638 1139 q 690 1056 690 1096 q 657 978 690 1006 q 571 951 624 951 q 512 958 539 951 q 461 974 485 965 q 417 989 438 982 q 381 996 397 996 q 339 980 353 996 q 318 944 325 964 l 313 944 q 251 966 276 944 q 225 1028 225 988 q 235 1074 225 1054 q 263 1106 246 1093 q 302 1126 281 1119 q 346 1132 324 1132 z "},"Ò":{"ha":967,"x_min":61,"x_max":906,"o":"m 906 422 q 874 231 906 314 q 785 91 842 147 q 651 6 729 35 q 483 -22 574 -22 q 315 6 393 -22 q 181 91 238 35 q 93 231 125 147 q 61 422 61 314 q 94 613 61 531 q 183 752 126 696 q 317 837 240 808 q 483 865 394 865 q 649 837 572 865 q 783 752 726 808 q 873 613 840 696 q 906 422 906 531 m 721 422 q 656 642 721 567 q 483 718 592 718 q 312 643 376 718 q 247 422 247 568 q 311 201 247 276 q 483 126 375 126 q 656 201 592 126 q 721 422 721 276 m 289 1046 q 286 1071 286 1060 q 308 1129 286 1107 q 361 1151 329 1151 q 439 1113 401 1151 l 557 983 q 533 929 554 947 q 485 911 511 911 q 447 919 463 911 q 414 940 431 928 l 289 1046 z "},"Ó":{"ha":967,"x_min":61,"x_max":906,"o":"m 906 422 q 874 231 906 314 q 785 91 842 147 q 651 6 729 35 q 483 -22 574 -22 q 315 6 393 -22 q 181 91 238 35 q 93 231 125 147 q 61 422 61 314 q 94 613 61 531 q 183 752 126 696 q 317 837 240 808 q 483 865 394 865 q 649 837 572 865 q 783 752 726 808 q 873 613 840 696 q 906 422 906 531 m 721 422 q 656 642 721 567 q 483 718 592 718 q 312 643 376 718 q 247 422 247 568 q 311 201 247 276 q 483 126 375 126 q 656 201 592 126 q 721 422 721 276 m 593 1157 q 663 1135 638 1157 q 688 1082 688 1114 q 677 1041 688 1058 q 638 1003 667 1024 l 508 911 q 446 931 468 913 q 424 974 424 949 q 429 1001 424 989 q 450 1028 435 1014 l 593 1157 z "},"Ô":{"ha":967,"x_min":61,"x_max":906,"o":"m 906 422 q 874 231 906 314 q 785 91 842 147 q 651 6 729 35 q 483 -22 574 -22 q 315 6 393 -22 q 181 91 238 35 q 93 231 125 147 q 61 422 61 314 q 94 613 61 531 q 183 752 126 696 q 317 837 240 808 q 483 865 394 865 q 649 837 572 865 q 783 752 726 808 q 873 613 840 696 q 906 422 906 531 m 721 422 q 656 642 721 567 q 483 718 592 718 q 312 643 376 718 q 247 422 247 568 q 311 201 247 276 q 483 126 375 126 q 656 201 592 126 q 721 422 721 276 m 485 1031 q 424 971 457 1003 q 356 908 390 939 q 300 928 322 910 q 278 975 278 947 q 290 1015 278 999 q 328 1054 303 1031 l 389 1110 q 488 1154 443 1154 q 539 1142 517 1154 q 586 1107 561 1131 l 699 986 q 678 931 699 950 q 626 911 658 911 q 586 925 604 911 q 540 968 568 939 l 485 1031 z "},"Õ":{"ha":967,"x_min":61,"x_max":906,"o":"m 906 422 q 874 231 906 314 q 785 91 842 147 q 651 6 729 35 q 483 -22 574 -22 q 315 6 393 -22 q 181 91 238 35 q 93 231 125 147 q 61 422 61 314 q 94 613 61 531 q 183 752 126 696 q 317 837 240 808 q 483 865 394 865 q 649 837 572 865 q 783 752 726 808 q 873 613 840 696 q 906 422 906 531 m 721 422 q 656 642 721 567 q 483 718 592 718 q 312 643 376 718 q 247 422 247 568 q 311 201 247 276 q 483 126 375 126 q 656 201 592 126 q 721 422 721 276 m 374 1132 q 429 1125 403 1132 q 479 1110 456 1118 q 524 1096 503 1103 q 561 1089 544 1089 q 603 1105 589 1089 q 624 1139 617 1121 l 631 1139 q 692 1117 665 1139 q 718 1056 718 1096 q 685 978 718 1006 q 599 951 651 951 q 540 958 567 951 q 489 974 513 965 q 445 989 465 982 q 408 996 425 996 q 367 980 381 996 q 346 944 353 964 l 340 944 q 278 966 304 944 q 253 1028 253 988 q 263 1074 253 1054 q 291 1106 274 1093 q 330 1126 308 1119 q 374 1132 351 1132 z "},"Ö":{"ha":967,"x_min":61,"x_max":906,"o":"m 906 422 q 874 231 906 314 q 785 91 842 147 q 651 6 729 35 q 483 -22 574 -22 q 315 6 393 -22 q 181 91 238 35 q 93 231 125 147 q 61 422 61 314 q 94 613 61 531 q 183 752 126 696 q 317 837 240 808 q 483 865 394 865 q 649 837 572 865 q 783 752 726 808 q 873 613 840 696 q 906 422 906 531 m 721 422 q 656 642 721 567 q 483 718 592 718 q 312 643 376 718 q 247 422 247 568 q 311 201 247 276 q 483 126 375 126 q 656 201 592 126 q 721 422 721 276 m 440 1025 q 413 961 440 988 q 346 935 386 935 q 278 961 304 935 q 253 1025 253 988 q 278 1090 253 1064 q 346 1117 304 1117 q 413 1090 386 1117 q 440 1025 440 1064 m 710 1025 q 683 961 710 988 q 617 935 657 935 q 549 961 576 935 q 522 1025 522 988 q 549 1090 522 1064 q 617 1117 576 1117 q 683 1090 657 1117 q 710 1025 710 1064 z "},"×":{"ha":694,"x_min":61,"x_max":635,"o":"m 453 399 l 635 197 q 600 142 624 164 q 542 119 576 119 q 485 149 511 119 l 347 308 l 158 111 q 92 144 121 119 q 64 197 64 168 q 73 226 64 211 q 97 256 82 240 l 244 407 l 61 599 q 94 656 69 629 q 151 682 119 682 q 204 654 179 682 l 353 493 l 535 683 q 590 650 565 674 q 615 594 615 626 q 585 538 615 568 l 453 399 z "},"Ø":{"ha":967,"x_min":58,"x_max":906,"o":"m 906 422 q 874 231 906 314 q 785 91 842 147 q 651 6 729 35 q 483 -22 574 -22 q 342 -1 408 -22 q 222 60 275 19 l 143 -24 q 81 6 103 -14 q 58 54 58 26 q 69 92 58 74 q 106 133 81 110 l 131 158 q 79 277 97 211 q 61 422 61 343 q 94 613 61 531 q 183 752 126 696 q 317 837 240 808 q 483 865 394 865 q 619 845 554 865 q 736 786 683 825 l 814 868 q 875 838 851 858 q 899 793 899 818 q 885 754 899 774 q 850 713 872 735 l 829 690 q 885 570 865 638 q 906 422 906 503 m 725 422 q 701 564 725 501 l 338 175 q 483 126 397 126 q 582 145 538 126 q 658 201 626 164 q 708 294 690 239 q 725 422 725 350 m 243 422 q 264 285 243 343 l 624 672 q 483 718 565 718 q 310 643 376 718 q 243 422 243 568 z "},"Ù":{"ha":913,"x_min":104,"x_max":808,"o":"m 456 -22 q 307 1 372 -22 q 197 66 242 24 q 128 167 151 108 q 104 300 104 226 l 104 843 q 140 850 115 846 q 188 854 164 854 q 260 836 238 854 q 283 769 283 818 l 283 307 q 332 173 283 219 q 456 126 381 126 q 579 173 531 126 q 628 307 628 219 l 628 843 q 664 850 640 846 q 711 854 688 854 q 785 836 761 854 q 808 769 808 818 l 808 300 q 785 167 808 226 q 715 66 761 108 q 604 1 669 24 q 456 -22 539 -22 m 244 1046 q 242 1071 242 1060 q 263 1129 242 1107 q 317 1151 285 1151 q 394 1113 357 1151 l 513 983 q 488 929 510 947 q 440 911 467 911 q 402 919 418 911 q 369 940 386 928 l 244 1046 z "},"Ú":{"ha":913,"x_min":104,"x_max":808,"o":"m 456 -22 q 307 1 372 -22 q 197 66 242 24 q 128 167 151 108 q 104 300 104 226 l 104 843 q 140 850 115 846 q 188 854 164 854 q 260 836 238 854 q 283 769 283 818 l 283 307 q 332 173 283 219 q 456 126 381 126 q 579 173 531 126 q 628 307 628 219 l 628 843 q 664 850 640 846 q 711 854 688 854 q 785 836 761 854 q 808 769 808 818 l 808 300 q 785 167 808 226 q 715 66 761 108 q 604 1 669 24 q 456 -22 539 -22 m 560 1157 q 629 1135 604 1157 q 654 1082 654 1114 q 644 1041 654 1058 q 604 1003 633 1024 l 475 911 q 413 931 435 913 q 390 974 390 949 q 396 1001 390 989 q 417 1028 401 1014 l 560 1157 z "},"Û":{"ha":913,"x_min":104,"x_max":808,"o":"m 456 -22 q 307 1 372 -22 q 197 66 242 24 q 128 167 151 108 q 104 300 104 226 l 104 843 q 140 850 115 846 q 188 854 164 854 q 260 836 238 854 q 283 769 283 818 l 283 307 q 332 173 283 219 q 456 126 381 126 q 579 173 531 126 q 628 307 628 219 l 628 843 q 664 850 640 846 q 711 854 688 854 q 785 836 761 854 q 808 769 808 818 l 808 300 q 785 167 808 226 q 715 66 761 108 q 604 1 669 24 q 456 -22 539 -22 m 463 1031 q 401 971 435 1003 q 333 908 368 939 q 278 928 300 910 q 256 975 256 947 q 268 1015 256 999 q 306 1054 281 1031 l 367 1110 q 465 1154 421 1154 q 517 1142 494 1154 q 564 1107 539 1131 l 676 986 q 656 931 676 950 q 604 911 636 911 q 564 925 582 911 q 518 968 546 939 l 463 1031 z "},"Ü":{"ha":913,"x_min":104,"x_max":808,"o":"m 456 -22 q 307 1 372 -22 q 197 66 242 24 q 128 167 151 108 q 104 300 104 226 l 104 843 q 140 850 115 846 q 188 854 164 854 q 260 836 238 854 q 283 769 283 818 l 283 307 q 332 173 283 219 q 456 126 381 126 q 579 173 531 126 q 628 307 628 219 l 628 843 q 664 850 640 846 q 711 854 688 854 q 785 836 761 854 q 808 769 808 818 l 808 300 q 785 167 808 226 q 715 66 761 108 q 604 1 669 24 q 456 -22 539 -22 m 413 1025 q 385 961 413 988 q 318 935 358 935 q 251 961 276 935 q 225 1025 225 988 q 251 1090 225 1064 q 318 1117 276 1117 q 385 1090 358 1117 q 413 1025 413 1064 m 682 1025 q 656 961 682 988 q 589 935 629 935 q 522 961 549 935 q 494 1025 494 988 q 522 1090 494 1064 q 589 1117 549 1117 q 656 1090 629 1117 q 682 1025 682 1064 z "},"Ý":{"ha":781,"x_min":18,"x_max":754,"o":"m 754 774 q 739 723 754 758 q 692 629 724 688 q 610 488 660 571 q 489 294 560 404 l 489 1 q 455 -6 478 -1 q 407 -10 432 -10 q 333 10 354 -10 q 313 74 313 29 l 313 293 q 233 413 275 347 q 151 544 192 478 q 76 676 111 611 q 18 793 42 740 q 53 831 29 814 q 113 849 76 849 q 177 831 153 849 q 225 768 201 813 q 260 703 236 749 q 312 608 285 658 q 363 514 339 558 q 397 453 388 469 l 404 453 q 454 551 431 504 q 500 642 478 597 q 544 734 522 688 q 589 831 565 781 q 627 844 606 840 q 668 849 649 849 q 730 829 706 849 q 754 774 754 810 m 483 1157 q 553 1135 528 1157 q 578 1082 578 1114 q 567 1041 578 1058 q 528 1003 557 1024 l 399 911 q 336 931 358 913 q 314 974 314 949 q 319 1001 314 989 q 340 1028 325 1014 l 483 1157 z "},"Þ":{"ha":800,"x_min":103,"x_max":746,"o":"m 103 844 q 138 851 114 847 q 186 854 163 854 q 259 836 236 854 q 282 771 282 818 l 282 708 l 419 708 q 665 632 583 708 q 746 425 746 556 q 665 219 746 297 q 419 142 583 142 l 282 142 l 282 1 q 248 -6 271 -1 q 200 -10 225 -10 q 125 10 147 -10 q 103 75 103 29 l 103 844 m 282 286 l 393 286 q 519 320 474 286 q 564 425 564 354 q 519 530 564 496 q 393 564 474 564 l 282 564 l 282 286 z "},"ß":{"ha":835,"x_min":93,"x_max":785,"o":"m 268 0 q 235 -7 257 -3 q 190 -11 214 -11 q 117 8 140 -11 q 93 71 93 26 l 93 644 q 117 773 93 718 q 182 865 140 828 q 280 919 224 901 q 401 938 336 938 q 526 917 469 938 q 625 859 583 897 q 690 765 667 821 q 713 639 713 710 q 664 560 713 583 l 610 536 q 557 472 557 513 q 570 436 557 451 q 615 404 583 421 q 742 311 700 358 q 785 185 785 264 q 767 94 785 133 q 716 29 749 56 q 638 -10 683 3 q 540 -24 593 -24 q 410 2 458 -24 q 361 72 361 28 q 403 147 361 124 q 453 121 425 132 q 517 110 481 110 q 581 131 557 110 q 606 183 606 151 q 588 236 606 215 q 521 283 569 257 q 414 364 450 321 q 378 475 378 407 q 410 571 378 531 q 503 635 443 611 l 538 649 q 500 752 538 711 q 401 793 463 793 q 307 757 346 793 q 268 644 268 721 l 268 0 l 268 0 z "},"à":{"ha":725,"x_min":49,"x_max":640,"o":"m 347 113 q 421 120 388 113 q 469 139 454 128 l 469 293 l 335 281 q 250 256 279 275 q 221 197 221 238 q 251 135 221 157 q 347 113 281 113 m 342 678 q 559 619 478 678 q 640 439 640 561 l 640 118 q 624 65 640 85 q 582 31 607 46 q 483 -7 543 7 q 347 -21 424 -21 q 128 33 208 -21 q 49 193 49 86 q 108 335 49 286 q 279 396 167 385 l 469 415 l 469 440 q 431 518 469 493 q 324 543 393 543 q 218 530 269 543 q 126 497 167 517 q 101 527 111 508 q 90 568 90 546 q 103 613 90 596 q 146 644 117 631 q 238 669 186 661 q 342 678 289 678 m 161 889 q 158 914 158 903 q 181 973 158 951 q 236 994 203 994 q 313 957 281 994 l 436 801 q 412 747 433 765 q 364 728 390 728 q 325 735 340 728 q 294 757 310 742 l 161 889 z "},"á":{"ha":725,"x_min":49,"x_max":640,"o":"m 347 113 q 421 120 388 113 q 469 139 454 128 l 469 293 l 335 281 q 250 256 279 275 q 221 197 221 238 q 251 135 221 157 q 347 113 281 113 m 342 678 q 559 619 478 678 q 640 439 640 561 l 640 118 q 624 65 640 85 q 582 31 607 46 q 483 -7 543 7 q 347 -21 424 -21 q 128 33 208 -21 q 49 193 49 86 q 108 335 49 286 q 279 396 167 385 l 469 415 l 469 440 q 431 518 469 493 q 324 543 393 543 q 218 530 269 543 q 126 497 167 517 q 101 527 111 508 q 90 568 90 546 q 103 613 90 596 q 146 644 117 631 q 238 669 186 661 q 342 678 289 678 m 442 1000 q 521 976 493 1000 q 549 924 549 953 q 538 881 549 897 q 500 842 526 865 l 371 725 q 302 747 326 725 q 278 796 278 769 q 284 822 278 811 q 304 849 290 833 l 442 1000 z "},"â":{"ha":725,"x_min":49,"x_max":640,"o":"m 347 113 q 421 120 388 113 q 469 139 454 128 l 469 293 l 335 281 q 250 256 279 275 q 221 197 221 238 q 251 135 221 157 q 347 113 281 113 m 342 678 q 559 619 478 678 q 640 439 640 561 l 640 118 q 624 65 640 85 q 582 31 607 46 q 483 -7 543 7 q 347 -21 424 -21 q 128 33 208 -21 q 49 193 49 86 q 108 335 49 286 q 279 396 167 385 l 469 415 l 469 440 q 431 518 469 493 q 324 543 393 543 q 218 530 269 543 q 126 497 167 517 q 101 527 111 508 q 90 568 90 546 q 103 613 90 596 q 146 644 117 631 q 238 669 186 661 q 342 678 289 678 m 356 864 q 294 795 321 824 q 239 732 268 767 q 174 752 199 733 q 150 800 150 771 q 162 838 150 822 q 196 876 174 853 l 261 946 q 306 978 283 967 q 358 990 328 990 q 410 980 388 990 q 461 936 433 969 l 568 806 q 551 756 568 776 q 500 735 535 735 q 460 747 476 735 q 429 778 444 758 l 356 864 z "},"ã":{"ha":725,"x_min":49,"x_max":640,"o":"m 347 113 q 421 120 388 113 q 469 139 454 128 l 469 293 l 335 281 q 250 256 279 275 q 221 197 221 238 q 251 135 221 157 q 347 113 281 113 m 342 678 q 559 619 478 678 q 640 439 640 561 l 640 118 q 624 65 640 85 q 582 31 607 46 q 483 -7 543 7 q 347 -21 424 -21 q 128 33 208 -21 q 49 193 49 86 q 108 335 49 286 q 279 396 167 385 l 469 415 l 469 440 q 431 518 469 493 q 324 543 393 543 q 218 530 269 543 q 126 497 167 517 q 101 527 111 508 q 90 568 90 546 q 103 613 90 596 q 146 644 117 631 q 238 669 186 661 q 342 678 289 678 m 243 950 q 299 943 272 950 q 349 928 325 936 q 393 914 372 921 q 431 907 414 907 q 472 923 458 907 q 493 957 486 939 l 500 957 q 561 935 535 957 q 588 874 588 914 q 554 797 588 824 q 468 769 521 769 q 409 776 436 769 q 358 792 382 783 q 315 807 335 800 q 278 814 294 814 q 236 798 250 814 q 215 763 222 782 l 210 763 q 148 784 174 763 q 122 846 122 806 q 133 892 122 872 q 160 924 143 911 q 199 944 178 938 q 243 950 221 950 z "},"ä":{"ha":725,"x_min":49,"x_max":640,"o":"m 347 113 q 421 120 388 113 q 469 139 454 128 l 469 293 l 335 281 q 250 256 279 275 q 221 197 221 238 q 251 135 221 157 q 347 113 281 113 m 342 678 q 559 619 478 678 q 640 439 640 561 l 640 118 q 624 65 640 85 q 582 31 607 46 q 483 -7 543 7 q 347 -21 424 -21 q 128 33 208 -21 q 49 193 49 86 q 108 335 49 286 q 279 396 167 385 l 469 415 l 469 440 q 431 518 469 493 q 324 543 393 543 q 218 530 269 543 q 126 497 167 517 q 101 527 111 508 q 90 568 90 546 q 103 613 90 596 q 146 644 117 631 q 238 669 186 661 q 342 678 289 678 m 322 856 q 295 792 322 818 q 228 765 268 765 q 160 792 186 765 q 135 856 135 818 q 160 921 135 894 q 228 947 186 947 q 295 921 268 947 q 322 856 322 894 m 592 856 q 565 792 592 818 q 499 765 539 765 q 431 792 458 765 q 404 856 404 818 q 431 921 404 894 q 499 947 458 947 q 565 921 539 947 q 592 856 592 894 z "},"å":{"ha":725,"x_min":49,"x_max":640,"o":"m 347 113 q 421 120 388 113 q 469 139 454 128 l 469 293 l 335 281 q 250 256 279 275 q 221 197 221 238 q 251 135 221 157 q 347 113 281 113 m 342 678 q 559 619 478 678 q 640 439 640 561 l 640 118 q 624 65 640 85 q 582 31 607 46 q 483 -7 543 7 q 347 -21 424 -21 q 128 33 208 -21 q 49 193 49 86 q 108 335 49 286 q 279 396 167 385 l 469 415 l 469 440 q 431 518 469 493 q 324 543 393 543 q 218 530 269 543 q 126 497 167 517 q 101 527 111 508 q 90 568 90 546 q 103 613 90 596 q 146 644 117 631 q 238 669 186 661 q 342 678 289 678 m 197 871 q 240 972 197 931 q 361 1014 283 1014 q 485 972 440 1014 q 529 871 529 931 q 485 770 529 811 q 361 729 440 729 q 240 770 283 729 q 197 871 197 811 m 308 871 q 324 830 308 844 q 363 815 339 815 q 402 830 386 815 q 418 871 418 844 q 402 912 418 897 q 363 926 386 926 q 324 912 339 926 q 308 871 308 897 z "},"æ":{"ha":1140,"x_min":49,"x_max":1092,"o":"m 342 678 q 564 589 499 678 q 662 656 606 633 q 783 678 718 678 q 908 656 851 678 q 1006 597 965 635 q 1069 505 1046 558 q 1092 389 1092 451 q 1071 331 1092 350 q 1014 306 1050 311 l 628 250 q 701 147 647 179 q 831 115 754 115 q 939 133 889 115 q 1019 169 989 150 q 1051 139 1039 158 q 1063 97 1063 119 q 1044 48 1063 69 q 993 11 1025 26 q 916 -12 961 -4 q 819 -21 871 -21 q 688 -1 746 -21 q 589 56 631 19 q 554 26 574 36 q 469 -8 517 6 q 346 -21 421 -21 q 128 33 207 -21 q 49 193 49 86 q 108 335 49 286 q 279 396 167 385 l 469 415 l 469 440 q 431 518 469 493 q 324 543 393 543 q 218 530 269 543 q 126 497 167 517 q 101 527 111 508 q 90 568 90 546 q 103 613 90 596 q 146 644 117 631 q 238 669 186 661 q 342 678 289 678 m 347 113 q 421 120 388 113 q 469 139 454 128 l 469 293 l 335 281 q 250 256 279 275 q 221 197 221 238 q 251 135 221 157 q 347 113 281 113 m 783 546 q 669 501 714 546 q 618 372 624 456 l 926 418 q 886 508 921 469 q 783 546 851 546 z "},"ç":{"ha":672,"x_min":56,"x_max":618,"o":"m 428 538 q 351 524 386 538 q 290 483 315 510 q 249 418 264 457 q 233 328 233 379 q 288 173 233 225 q 428 121 342 121 q 512 134 476 121 q 575 163 547 147 q 606 131 594 149 q 618 89 618 113 q 581 24 618 51 q 481 -14 544 -3 q 503 -62 496 -36 q 510 -117 510 -89 q 467 -230 510 -187 q 350 -272 424 -272 q 276 -251 303 -272 q 249 -192 249 -231 q 256 -153 249 -174 l 274 -153 q 340 -132 319 -153 q 361 -78 361 -111 q 357 -47 361 -64 q 343 -14 353 -31 q 134 88 213 3 q 56 328 56 174 q 83 481 56 415 q 159 591 111 547 q 271 656 207 635 q 407 678 335 678 q 556 645 500 678 q 611 565 611 613 q 599 525 611 543 q 572 496 588 507 q 510 524 544 511 q 428 538 476 538 z "},"è":{"ha":742,"x_min":56,"x_max":693,"o":"m 231 250 q 303 147 250 179 q 433 115 356 115 q 541 133 492 115 q 621 169 590 150 q 653 139 640 158 q 665 97 665 119 q 647 48 665 69 q 595 11 628 26 q 518 -12 563 -4 q 422 -21 474 -21 q 273 1 340 -21 q 158 69 206 24 q 83 181 110 114 q 56 336 56 247 q 82 486 56 422 q 153 593 108 550 q 258 657 199 636 q 385 678 318 678 q 510 656 453 678 q 607 597 567 635 q 670 505 647 558 q 693 389 693 451 q 673 331 693 350 q 617 306 653 311 l 231 250 m 385 546 q 271 501 317 546 q 219 372 225 456 l 528 418 q 488 508 522 469 q 385 546 453 546 m 178 889 q 175 914 175 903 q 197 973 175 951 q 253 994 219 994 q 329 957 297 994 l 453 801 q 428 747 450 765 q 381 728 407 728 q 342 735 357 728 q 311 757 326 742 l 178 889 z "},"é":{"ha":742,"x_min":56,"x_max":693,"o":"m 231 250 q 303 147 250 179 q 433 115 356 115 q 541 133 492 115 q 621 169 590 150 q 653 139 640 158 q 665 97 665 119 q 647 48 665 69 q 595 11 628 26 q 518 -12 563 -4 q 422 -21 474 -21 q 273 1 340 -21 q 158 69 206 24 q 83 181 110 114 q 56 336 56 247 q 82 486 56 422 q 153 593 108 550 q 258 657 199 636 q 385 678 318 678 q 510 656 453 678 q 607 597 567 635 q 670 505 647 558 q 693 389 693 451 q 673 331 693 350 q 617 306 653 311 l 231 250 m 385 546 q 271 501 317 546 q 219 372 225 456 l 528 418 q 488 508 522 469 q 385 546 453 546 m 476 1000 q 556 976 528 1000 q 583 924 583 953 q 572 881 583 897 q 535 842 561 865 l 406 725 q 337 747 361 725 q 313 796 313 769 q 319 822 313 811 q 339 849 325 833 l 476 1000 z "},"ê":{"ha":742,"x_min":56,"x_max":693,"o":"m 231 250 q 303 147 250 179 q 433 115 356 115 q 541 133 492 115 q 621 169 590 150 q 653 139 640 158 q 665 97 665 119 q 647 48 665 69 q 595 11 628 26 q 518 -12 563 -4 q 422 -21 474 -21 q 273 1 340 -21 q 158 69 206 24 q 83 181 110 114 q 56 336 56 247 q 82 486 56 422 q 153 593 108 550 q 258 657 199 636 q 385 678 318 678 q 510 656 453 678 q 607 597 567 635 q 670 505 647 558 q 693 389 693 451 q 673 331 693 350 q 617 306 653 311 l 231 250 m 385 546 q 271 501 317 546 q 219 372 225 456 l 528 418 q 488 508 522 469 q 385 546 453 546 m 385 864 q 324 795 350 824 q 268 732 297 767 q 203 752 228 733 q 179 800 179 771 q 191 838 179 822 q 225 876 203 853 l 290 946 q 335 978 313 967 q 388 990 357 990 q 440 980 417 990 q 490 936 463 969 l 597 806 q 581 756 597 776 q 529 735 564 735 q 490 747 506 735 q 458 778 474 758 l 385 864 z "},"ë":{"ha":742,"x_min":56,"x_max":693,"o":"m 231 250 q 303 147 250 179 q 433 115 356 115 q 541 133 492 115 q 621 169 590 150 q 653 139 640 158 q 665 97 665 119 q 647 48 665 69 q 595 11 628 26 q 518 -12 563 -4 q 422 -21 474 -21 q 273 1 340 -21 q 158 69 206 24 q 83 181 110 114 q 56 336 56 247 q 82 486 56 422 q 153 593 108 550 q 258 657 199 636 q 385 678 318 678 q 510 656 453 678 q 607 597 567 635 q 670 505 647 558 q 693 389 693 451 q 673 331 693 350 q 617 306 653 311 l 231 250 m 385 546 q 271 501 317 546 q 219 372 225 456 l 528 418 q 488 508 522 469 q 385 546 453 546 m 335 856 q 308 792 335 818 q 240 765 281 765 q 173 792 199 765 q 147 856 147 818 q 173 921 147 894 q 240 947 199 947 q 308 921 281 947 q 335 856 335 894 m 604 856 q 578 792 604 818 q 511 765 551 765 q 444 792 471 765 q 417 856 417 818 q 444 921 417 894 q 511 947 471 947 q 578 921 551 947 q 604 856 604 894 z "},"ì":{"ha":364,"x_min":-25,"x_max":269,"o":"m 192 -11 q 118 8 142 -11 q 94 71 94 26 l 94 651 q 126 658 106 654 q 172 663 147 663 q 246 644 222 663 q 269 581 269 625 l 269 0 q 238 -7 258 -3 q 192 -11 217 -11 m -22 889 q -25 914 -25 903 q -3 973 -25 951 q 53 994 19 994 q 129 957 97 994 l 253 801 q 228 747 250 765 q 181 728 207 728 q 142 735 157 728 q 111 757 126 742 l -22 889 z "},"í":{"ha":364,"x_min":94,"x_max":382,"o":"m 192 -11 q 118 8 142 -11 q 94 71 94 26 l 94 651 q 126 658 106 654 q 172 663 147 663 q 246 644 222 663 q 269 581 269 625 l 269 0 q 238 -7 258 -3 q 192 -11 217 -11 m 275 1000 q 354 976 326 1000 q 382 924 382 953 q 371 881 382 897 q 333 842 360 865 l 204 725 q 135 747 160 725 q 111 796 111 769 q 117 822 111 811 q 138 849 124 833 l 275 1000 z "},"î":{"ha":364,"x_min":-24,"x_max":394,"o":"m 192 -11 q 118 8 142 -11 q 94 71 94 26 l 94 651 q 126 658 106 654 q 172 663 147 663 q 246 644 222 663 q 269 581 269 625 l 269 0 q 238 -7 258 -3 q 192 -11 217 -11 m 182 864 q 121 795 147 824 q 65 732 94 767 q 1 752 25 733 q -24 800 -24 771 q -12 838 -24 822 q 22 876 0 853 l 88 946 q 132 978 110 967 q 185 990 154 990 q 237 980 214 990 q 288 936 260 969 l 394 806 q 378 756 394 776 q 326 735 361 735 q 287 747 303 735 q 256 778 271 758 l 182 864 z "},"ï":{"ha":364,"x_min":-47,"x_max":410,"o":"m 192 -11 q 118 8 142 -11 q 94 71 94 26 l 94 651 q 126 658 106 654 q 172 663 147 663 q 246 644 222 663 q 269 581 269 625 l 269 0 q 238 -7 258 -3 q 192 -11 217 -11 m 140 856 q 113 792 140 818 q 46 765 86 765 q -22 792 4 765 q -47 856 -47 818 q -22 921 -47 894 q 46 947 4 947 q 113 921 86 947 q 140 856 140 894 m 410 856 q 383 792 410 818 q 317 765 357 765 q 249 792 276 765 q 222 856 222 818 q 249 921 222 894 q 317 947 276 947 q 383 921 357 947 q 410 856 410 894 z "},"ð":{"ha":781,"x_min":56,"x_max":724,"o":"m 560 779 q 676 585 629 696 q 724 347 724 474 q 703 194 724 263 q 641 78 682 126 q 538 5 600 31 q 392 -21 475 -21 q 252 2 314 -21 q 147 67 190 25 q 79 170 103 110 q 56 306 56 231 q 82 445 56 386 q 151 543 108 504 q 250 601 194 582 q 364 621 306 621 q 438 613 404 621 q 499 589 471 604 q 457 658 479 625 q 404 719 435 690 l 219 651 q 189 683 201 663 q 176 726 176 703 q 217 779 176 764 l 290 808 q 232 834 263 824 q 169 856 201 844 q 196 927 172 901 q 257 953 219 953 q 356 931 304 953 q 458 874 407 910 l 604 933 q 635 901 621 922 q 649 857 649 881 q 637 819 649 832 q 606 799 625 806 l 560 779 m 544 311 q 535 419 544 372 q 474 468 510 451 q 397 485 438 485 q 276 436 317 485 q 235 306 235 388 q 276 169 235 219 q 393 119 318 119 q 507 172 469 119 q 544 311 544 224 z "},"ñ":{"ha":794,"x_min":94,"x_max":706,"o":"m 531 424 q 497 511 531 483 q 404 539 463 539 q 330 529 364 539 q 271 504 296 519 l 271 1 q 238 -6 258 -1 q 190 -10 217 -10 q 118 8 142 -10 q 94 72 94 26 l 94 518 q 108 572 94 551 q 151 613 122 593 q 258 659 192 640 q 406 678 325 678 q 627 615 549 678 q 706 429 706 551 l 706 1 q 673 -6 694 -1 q 626 -10 651 -10 q 553 8 576 -10 q 531 72 531 26 l 531 424 m 283 950 q 339 943 313 950 q 389 928 365 936 q 433 914 413 921 q 471 907 454 907 q 513 923 499 907 q 533 957 526 939 l 540 957 q 601 935 575 957 q 628 874 628 914 q 594 797 628 824 q 508 769 561 769 q 449 776 476 769 q 399 792 422 783 q 355 807 375 800 q 318 814 335 814 q 276 798 290 814 q 256 763 263 782 l 250 763 q 188 784 214 763 q 163 846 163 806 q 173 892 163 872 q 201 924 183 911 q 240 944 218 938 q 283 950 261 950 z "},"ò":{"ha":792,"x_min":56,"x_max":736,"o":"m 736 329 q 712 184 736 249 q 643 74 688 119 q 536 3 599 28 q 396 -21 474 -21 q 256 3 318 -21 q 149 73 193 28 q 80 183 104 118 q 56 329 56 247 q 80 474 56 410 q 149 584 104 539 q 257 653 194 629 q 396 678 319 678 q 535 653 472 678 q 642 583 597 629 q 712 473 688 538 q 736 329 736 408 m 396 539 q 278 484 321 539 q 235 329 235 429 q 277 174 235 228 q 396 119 319 119 q 515 174 472 119 q 557 329 557 229 q 514 484 557 429 q 396 539 471 539 m 215 889 q 213 914 213 903 q 235 973 213 951 q 290 994 257 994 q 367 957 335 994 l 490 801 q 466 747 488 765 q 418 728 444 728 q 379 735 394 728 q 349 757 364 742 l 215 889 z "},"ó":{"ha":792,"x_min":56,"x_max":736,"o":"m 736 329 q 712 184 736 249 q 643 74 688 119 q 536 3 599 28 q 396 -21 474 -21 q 256 3 318 -21 q 149 73 193 28 q 80 183 104 118 q 56 329 56 247 q 80 474 56 410 q 149 584 104 539 q 257 653 194 629 q 396 678 319 678 q 535 653 472 678 q 642 583 597 629 q 712 473 688 538 q 736 329 736 408 m 396 539 q 278 484 321 539 q 235 329 235 429 q 277 174 235 228 q 396 119 319 119 q 515 174 472 119 q 557 329 557 229 q 514 484 557 429 q 396 539 471 539 m 476 1000 q 556 976 528 1000 q 583 924 583 953 q 572 881 583 897 q 535 842 561 865 l 406 725 q 337 747 361 725 q 313 796 313 769 q 319 822 313 811 q 339 849 325 833 l 476 1000 z "},"ô":{"ha":792,"x_min":56,"x_max":736,"o":"m 736 329 q 712 184 736 249 q 643 74 688 119 q 536 3 599 28 q 396 -21 474 -21 q 256 3 318 -21 q 149 73 193 28 q 80 183 104 118 q 56 329 56 247 q 80 474 56 410 q 149 584 104 539 q 257 653 194 629 q 396 678 319 678 q 535 653 472 678 q 642 583 597 629 q 712 473 688 538 q 736 329 736 408 m 396 539 q 278 484 321 539 q 235 329 235 429 q 277 174 235 228 q 396 119 319 119 q 515 174 472 119 q 557 329 557 229 q 514 484 557 429 q 396 539 471 539 m 393 864 q 332 795 358 824 q 276 732 306 767 q 212 752 236 733 q 188 800 188 771 q 199 838 188 822 q 233 876 211 853 l 299 946 q 343 978 321 967 q 396 990 365 990 q 448 980 425 990 q 499 936 471 969 l 606 806 q 589 756 606 776 q 538 735 572 735 q 498 747 514 735 q 467 778 482 758 l 393 864 z "},"õ":{"ha":792,"x_min":56,"x_max":736,"o":"m 736 329 q 712 184 736 249 q 643 74 688 119 q 536 3 599 28 q 396 -21 474 -21 q 256 3 318 -21 q 149 73 193 28 q 80 183 104 118 q 56 329 56 247 q 80 474 56 410 q 149 584 104 539 q 257 653 194 629 q 396 678 319 678 q 535 653 472 678 q 642 583 597 629 q 712 473 688 538 q 736 329 736 408 m 396 539 q 278 484 321 539 q 235 329 235 429 q 277 174 235 228 q 396 119 319 119 q 515 174 472 119 q 557 329 557 229 q 514 484 557 429 q 396 539 471 539 m 288 950 q 343 943 317 950 q 393 928 369 936 q 438 914 417 921 q 475 907 458 907 q 517 923 503 907 q 538 957 531 939 l 544 957 q 606 935 579 957 q 632 874 632 914 q 599 797 632 824 q 513 769 565 769 q 453 776 481 769 q 403 792 426 783 q 359 807 379 800 q 322 814 339 814 q 281 798 294 814 q 260 763 267 782 l 254 763 q 192 784 218 763 q 167 846 167 806 q 177 892 167 872 q 205 924 188 911 q 244 944 222 938 q 288 950 265 950 z "},"ö":{"ha":792,"x_min":56,"x_max":736,"o":"m 736 329 q 712 184 736 249 q 643 74 688 119 q 536 3 599 28 q 396 -21 474 -21 q 256 3 318 -21 q 149 73 193 28 q 80 183 104 118 q 56 329 56 247 q 80 474 56 410 q 149 584 104 539 q 257 653 194 629 q 396 678 319 678 q 535 653 472 678 q 642 583 597 629 q 712 473 688 538 q 736 329 736 408 m 396 539 q 278 484 321 539 q 235 329 235 429 q 277 174 235 228 q 396 119 319 119 q 515 174 472 119 q 557 329 557 229 q 514 484 557 429 q 396 539 471 539 m 354 856 q 327 792 354 818 q 260 765 300 765 q 192 792 218 765 q 167 856 167 818 q 192 921 167 894 q 260 947 218 947 q 327 921 300 947 q 354 856 354 894 m 624 856 q 597 792 624 818 q 531 765 571 765 q 463 792 490 765 q 436 856 436 818 q 463 921 436 894 q 531 947 490 947 q 597 921 571 947 q 624 856 624 894 z "},"÷":{"ha":728,"x_min":56,"x_max":671,"o":"m 72 338 q 60 367 65 350 q 56 406 56 385 q 74 460 56 443 q 124 478 92 478 l 654 478 q 666 449 661 467 q 671 410 671 431 q 653 355 671 372 q 604 338 635 338 l 72 338 m 275 176 q 300 243 275 217 q 367 269 325 269 q 433 243 408 269 q 458 176 458 217 q 433 111 458 138 q 367 85 408 85 q 300 111 325 85 q 275 176 275 138 m 275 636 q 300 703 275 676 q 367 729 325 729 q 433 703 408 729 q 458 636 458 676 q 433 570 458 596 q 367 544 408 544 q 300 570 325 544 q 275 636 275 596 z "},"ø":{"ha":792,"x_min":56,"x_max":736,"o":"m 736 329 q 712 184 736 249 q 643 74 688 119 q 536 3 599 28 q 396 -21 474 -21 q 244 7 313 -21 l 182 -85 q 126 -67 151 -85 q 101 -26 101 -50 q 111 1 101 -12 l 154 65 q 81 178 107 111 q 56 329 56 244 q 80 474 56 410 q 149 584 104 539 q 257 653 194 629 q 396 678 319 678 q 546 647 476 678 l 610 743 q 664 727 638 743 q 690 685 690 711 q 681 660 690 674 l 633 592 q 709 479 682 546 q 736 329 736 413 m 567 329 q 539 456 567 404 l 326 132 q 396 118 356 118 q 519 172 472 118 q 567 329 567 225 m 396 540 q 273 486 321 540 q 225 329 225 432 q 251 203 225 256 l 464 526 q 432 537 449 533 q 396 540 415 540 z "},"ù":{"ha":786,"x_min":88,"x_max":699,"o":"m 699 129 q 688 76 699 97 q 647 38 676 54 q 545 -4 607 13 q 404 -21 483 -21 q 274 -5 332 -21 q 174 44 215 11 q 110 129 132 78 q 88 251 88 181 l 88 656 q 120 663 99 660 q 168 667 142 667 q 240 649 217 667 q 264 585 264 632 l 264 254 q 301 151 264 182 q 406 119 338 119 q 478 128 449 119 q 524 146 508 136 l 524 656 q 556 663 535 660 q 603 667 578 667 q 676 649 653 667 q 699 585 699 632 l 699 129 m 181 889 q 178 914 178 903 q 200 973 178 951 q 256 994 222 994 q 332 957 300 994 l 456 801 q 431 747 453 765 q 383 728 410 728 q 344 735 360 728 q 314 757 329 742 l 181 889 z "},"ú":{"ha":786,"x_min":88,"x_max":699,"o":"m 699 129 q 688 76 699 97 q 647 38 676 54 q 545 -4 607 13 q 404 -21 483 -21 q 274 -5 332 -21 q 174 44 215 11 q 110 129 132 78 q 88 251 88 181 l 88 656 q 120 663 99 660 q 168 667 142 667 q 240 649 217 667 q 264 585 264 632 l 264 254 q 301 151 264 182 q 406 119 338 119 q 478 128 449 119 q 524 146 508 136 l 524 656 q 556 663 535 660 q 603 667 578 667 q 676 649 653 667 q 699 585 699 632 l 699 129 m 494 1000 q 574 976 546 1000 q 601 924 601 953 q 590 881 601 897 q 553 842 579 865 l 424 725 q 355 747 379 725 q 331 796 331 769 q 337 822 331 811 q 357 849 343 833 l 494 1000 z "},"û":{"ha":786,"x_min":88,"x_max":699,"o":"m 699 129 q 688 76 699 97 q 647 38 676 54 q 545 -4 607 13 q 404 -21 483 -21 q 274 -5 332 -21 q 174 44 215 11 q 110 129 132 78 q 88 251 88 181 l 88 656 q 120 663 99 660 q 168 667 142 667 q 240 649 217 667 q 264 585 264 632 l 264 254 q 301 151 264 182 q 406 119 338 119 q 478 128 449 119 q 524 146 508 136 l 524 656 q 556 663 535 660 q 603 667 578 667 q 676 649 653 667 q 699 585 699 632 l 699 129 m 393 864 q 332 795 358 824 q 276 732 306 767 q 212 752 236 733 q 188 800 188 771 q 199 838 188 822 q 233 876 211 853 l 299 946 q 343 978 321 967 q 396 990 365 990 q 448 980 425 990 q 499 936 471 969 l 606 806 q 589 756 606 776 q 538 735 572 735 q 498 747 514 735 q 467 778 482 758 l 393 864 z "},"ü":{"ha":786,"x_min":88,"x_max":699,"o":"m 699 129 q 688 76 699 97 q 647 38 676 54 q 545 -4 607 13 q 404 -21 483 -21 q 274 -5 332 -21 q 174 44 215 11 q 110 129 132 78 q 88 251 88 181 l 88 656 q 120 663 99 660 q 168 667 142 667 q 240 649 217 667 q 264 585 264 632 l 264 254 q 301 151 264 182 q 406 119 338 119 q 478 128 449 119 q 524 146 508 136 l 524 656 q 556 663 535 660 q 603 667 578 667 q 676 649 653 667 q 699 585 699 632 l 699 129 m 349 856 q 322 792 349 818 q 254 765 294 765 q 187 792 213 765 q 161 856 161 818 q 187 921 161 894 q 254 947 213 947 q 322 921 294 947 q 349 856 349 894 m 618 856 q 592 792 618 818 q 525 765 565 765 q 458 792 485 765 q 431 856 431 818 q 458 921 431 894 q 525 947 485 947 q 592 921 565 947 q 618 856 618 894 z "},"ý":{"ha":724,"x_min":35,"x_max":683,"o":"m 206 158 q 126 346 172 228 q 35 632 81 464 q 74 660 49 649 q 128 672 99 672 q 187 656 164 672 q 224 596 210 639 q 372 171 289 386 l 378 171 q 416 275 396 217 q 455 397 436 333 q 490 526 474 461 q 519 653 507 592 q 555 667 536 661 q 594 672 574 672 q 657 656 631 672 q 683 601 683 639 q 665 484 683 560 q 617 322 647 408 q 550 147 588 235 q 475 -8 513 58 q 344 -199 403 -136 q 228 -262 285 -262 q 156 -237 183 -262 q 122 -172 129 -211 q 169 -127 144 -153 q 219 -72 194 -101 q 267 -12 244 -43 q 306 47 289 18 q 281 58 293 51 q 258 76 269 64 q 233 108 246 89 q 206 158 219 128 m 440 1000 q 519 976 492 1000 q 547 924 547 953 q 536 881 547 897 q 499 842 525 865 l 369 725 q 301 747 325 725 q 276 796 276 769 q 283 822 276 811 q 303 849 289 833 l 440 1000 z "},"þ":{"ha":793,"x_min":90,"x_max":733,"o":"m 403 -19 q 328 -12 363 -19 q 267 7 294 -4 l 267 -240 q 233 -248 254 -244 q 186 -251 213 -251 q 114 -233 138 -251 q 90 -169 90 -215 l 90 904 q 123 910 101 907 q 169 914 144 914 q 243 896 219 914 q 267 832 267 878 l 267 651 q 329 670 294 663 q 404 678 364 678 q 532 658 472 678 q 636 595 592 638 q 707 488 681 553 q 733 332 733 422 q 708 179 733 244 q 640 69 683 114 q 535 3 596 25 q 403 -19 475 -19 m 376 121 q 507 172 460 121 q 554 332 554 224 q 541 427 554 388 q 504 492 528 467 q 449 528 481 517 q 381 539 418 539 q 267 510 321 539 l 267 150 q 316 129 289 138 q 376 121 343 121 z "},"ÿ":{"ha":724,"x_min":35,"x_max":683,"o":"m 206 158 q 126 346 172 228 q 35 632 81 464 q 74 660 49 649 q 128 672 99 672 q 187 656 164 672 q 224 596 210 639 q 372 171 289 386 l 378 171 q 416 275 396 217 q 455 397 436 333 q 490 526 474 461 q 519 653 507 592 q 555 667 536 661 q 594 672 574 672 q 657 656 631 672 q 683 601 683 639 q 665 484 683 560 q 617 322 647 408 q 550 147 588 235 q 475 -8 513 58 q 344 -199 403 -136 q 228 -262 285 -262 q 156 -237 183 -262 q 122 -172 129 -211 q 169 -127 144 -153 q 219 -72 194 -101 q 267 -12 244 -43 q 306 47 289 18 q 281 58 293 51 q 258 76 269 64 q 233 108 246 89 q 206 158 219 128 m 318 856 q 291 792 318 818 q 224 765 264 765 q 156 792 182 765 q 131 856 131 818 q 156 921 131 894 q 224 947 182 947 q 291 921 264 947 q 318 856 318 894 m 588 856 q 561 792 588 818 q 494 765 535 765 q 427 792 454 765 q 400 856 400 818 q 427 921 400 894 q 494 947 454 947 q 561 921 535 947 q 588 856 588 894 z "},"Ā":{"ha":847,"x_min":36,"x_max":815,"o":"m 225 961 q 212 990 218 972 q 206 1026 206 1007 q 222 1080 206 1064 q 267 1096 239 1096 l 610 1096 q 628 1031 628 1071 q 612 976 628 992 q 568 961 596 961 l 225 961 m 578 199 l 267 199 q 234 92 251 147 q 206 0 217 36 q 176 -10 192 -6 q 136 -14 160 -14 q 63 5 89 -14 q 36 58 36 24 q 41 91 36 75 q 53 128 46 107 q 83 222 64 167 q 123 341 101 276 q 169 474 144 406 q 217 608 194 543 q 262 728 240 672 q 299 825 283 785 q 352 844 317 835 q 424 854 388 854 q 513 840 472 854 q 564 793 553 825 q 625 617 592 717 q 692 413 658 518 q 758 206 726 307 q 815 24 790 104 q 777 -2 801 8 q 719 -12 753 -12 q 651 5 671 -12 q 619 60 631 22 l 578 199 m 422 696 q 395 618 410 661 q 365 528 381 575 q 332 434 349 482 q 300 340 315 386 l 542 340 l 429 696 l 422 696 z "},"ā":{"ha":725,"x_min":49,"x_max":640,"o":"m 347 113 q 421 120 388 113 q 469 139 454 128 l 469 293 l 335 281 q 250 256 279 275 q 221 197 221 238 q 251 135 221 157 q 347 113 281 113 m 342 678 q 559 619 478 678 q 640 439 640 561 l 640 118 q 624 65 640 85 q 582 31 607 46 q 483 -7 543 7 q 347 -21 424 -21 q 128 33 208 -21 q 49 193 49 86 q 108 335 49 286 q 279 396 167 385 l 469 415 l 469 440 q 431 518 469 493 q 324 543 393 543 q 218 530 269 543 q 126 497 167 517 q 101 527 111 508 q 90 568 90 546 q 103 613 90 596 q 146 644 117 631 q 238 669 186 661 q 342 678 289 678 m 176 788 q 163 816 169 799 q 157 853 157 833 q 174 907 157 892 q 218 922 190 922 l 561 922 q 579 857 579 897 q 563 803 579 819 q 519 788 547 788 l 176 788 z "},"Ă":{"ha":847,"x_min":36,"x_max":815,"o":"m 578 199 l 267 199 q 234 92 251 147 q 206 0 217 36 q 176 -10 192 -6 q 136 -14 160 -14 q 63 5 89 -14 q 36 58 36 24 q 41 91 36 75 q 53 128 46 107 q 83 222 64 167 q 123 341 101 276 q 169 474 144 406 q 217 608 194 543 q 262 728 240 672 q 299 825 283 785 q 352 844 317 835 q 424 854 388 854 q 513 840 472 854 q 564 793 553 825 q 625 617 592 717 q 692 413 658 518 q 758 206 726 307 q 815 24 790 104 q 777 -2 801 8 q 719 -12 753 -12 q 651 5 671 -12 q 619 60 631 22 l 578 199 m 422 696 q 395 618 410 661 q 365 528 381 575 q 332 434 349 482 q 300 340 315 386 l 542 340 l 429 696 l 422 696 m 426 1051 q 497 1074 469 1051 q 532 1132 524 1096 q 544 1134 539 1133 q 556 1135 549 1135 q 616 1112 596 1135 q 636 1057 636 1089 q 622 1006 636 1031 q 582 963 608 982 q 517 933 556 944 q 426 922 478 922 q 335 933 374 922 q 269 963 296 944 q 228 1006 242 982 q 215 1057 215 1031 q 235 1112 215 1089 q 296 1135 256 1135 q 308 1134 303 1135 q 321 1132 314 1133 q 355 1074 328 1096 q 426 1051 382 1051 z "},"ă":{"ha":725,"x_min":49,"x_max":640,"o":"m 347 113 q 421 120 388 113 q 469 139 454 128 l 469 293 l 335 281 q 250 256 279 275 q 221 197 221 238 q 251 135 221 157 q 347 113 281 113 m 342 678 q 559 619 478 678 q 640 439 640 561 l 640 118 q 624 65 640 85 q 582 31 607 46 q 483 -7 543 7 q 347 -21 424 -21 q 128 33 208 -21 q 49 193 49 86 q 108 335 49 286 q 279 396 167 385 l 469 415 l 469 440 q 431 518 469 493 q 324 543 393 543 q 218 530 269 543 q 126 497 167 517 q 101 527 111 508 q 90 568 90 546 q 103 613 90 596 q 146 644 117 631 q 238 669 186 661 q 342 678 289 678 m 365 889 q 435 911 408 889 q 471 969 463 933 q 483 972 478 971 q 494 972 488 972 q 555 949 535 972 q 575 894 575 926 q 561 844 575 868 q 521 801 547 819 q 456 771 494 782 q 365 760 417 760 q 274 771 313 760 q 208 801 235 782 q 167 844 181 819 q 154 894 154 868 q 174 949 154 926 q 235 972 194 972 q 247 972 242 972 q 260 969 253 971 q 294 911 267 933 q 365 889 321 889 z "},"Ą":{"ha":847,"x_min":36,"x_max":840,"o":"m 578 199 l 267 199 q 234 92 251 147 q 206 0 217 36 q 176 -10 192 -6 q 136 -14 160 -14 q 63 5 89 -14 q 36 58 36 24 q 41 91 36 75 q 53 128 46 107 q 83 222 64 167 q 123 341 101 276 q 169 474 144 406 q 217 608 194 543 q 262 728 240 672 q 299 825 283 785 q 352 844 317 835 q 424 854 388 854 q 513 840 472 854 q 564 793 553 825 q 625 617 592 717 q 692 413 658 518 q 758 206 726 307 q 815 24 790 104 q 778 -1 800 6 q 748 -35 760 -17 q 736 -79 736 -53 q 758 -128 736 -111 q 818 -146 779 -146 l 831 -146 q 838 -168 835 -157 q 840 -192 840 -179 q 819 -247 840 -224 q 740 -269 797 -269 q 624 -233 671 -269 q 578 -129 578 -196 q 601 -45 578 -81 q 649 7 624 -10 q 619 60 631 21 l 578 199 m 422 696 q 395 618 410 661 q 365 528 381 575 q 332 434 349 482 q 300 340 315 386 l 542 340 l 429 696 l 422 696 z "},"ą":{"ha":725,"x_min":49,"x_max":640,"o":"m 342 678 q 559 619 478 678 q 640 439 640 561 l 640 118 q 629 74 640 90 q 600 43 618 57 q 544 -11 565 15 q 522 -79 522 -37 q 544 -128 522 -111 q 603 -146 565 -146 l 617 -146 q 624 -168 621 -157 q 626 -192 626 -179 q 605 -247 626 -224 q 525 -269 583 -269 q 409 -233 456 -269 q 363 -129 363 -196 q 376 -65 363 -92 q 410 -18 390 -37 q 379 -20 394 -19 q 347 -21 364 -21 q 128 33 208 -21 q 49 193 49 86 q 108 335 49 286 q 279 396 167 385 l 469 415 l 469 440 q 431 518 469 493 q 324 543 393 543 q 218 530 269 543 q 126 497 167 517 q 101 527 111 508 q 90 568 90 546 q 103 613 90 596 q 146 644 117 631 q 238 669 186 661 q 342 678 289 678 m 347 113 q 421 120 388 113 q 469 139 454 128 l 469 293 l 335 281 q 250 256 279 275 q 221 197 221 238 q 251 135 221 157 q 347 113 281 113 z "},"Ć":{"ha":804,"x_min":61,"x_max":751,"o":"m 746 735 q 731 687 746 707 q 696 656 715 667 q 615 699 660 679 q 506 718 571 718 q 317 642 388 718 q 247 421 247 565 q 319 200 247 274 q 514 126 392 126 q 624 144 578 126 q 707 185 671 161 q 739 151 726 172 q 751 101 751 129 q 739 58 751 78 q 697 24 726 39 q 619 -8 669 7 q 493 -22 568 -22 q 323 5 401 -22 q 186 87 244 32 q 94 225 128 142 q 61 421 61 308 q 94 612 61 529 q 185 751 128 694 q 320 836 243 807 q 483 865 397 865 q 592 855 543 865 q 675 826 640 844 q 728 785 710 808 q 746 735 746 761 m 554 1157 q 624 1135 599 1157 q 649 1082 649 1114 q 638 1041 649 1058 q 599 1003 628 1024 l 469 911 q 407 931 429 913 q 385 974 385 949 q 390 1001 385 989 q 411 1028 396 1014 l 554 1157 z "},"ć":{"ha":672,"x_min":56,"x_max":618,"o":"m 428 538 q 351 524 386 538 q 290 483 315 510 q 249 418 264 457 q 233 328 233 379 q 288 173 233 225 q 428 121 342 121 q 512 134 476 121 q 575 163 547 147 q 606 131 594 149 q 618 89 618 113 q 563 11 618 42 q 413 -19 507 -19 q 267 2 333 -19 q 154 67 201 24 q 81 176 107 111 q 56 328 56 242 q 83 481 56 415 q 159 591 111 547 q 271 656 207 635 q 407 678 335 678 q 556 645 500 678 q 611 565 611 613 q 599 525 611 543 q 572 496 588 507 q 510 524 544 511 q 428 538 476 538 m 474 1000 q 553 976 525 1000 q 581 924 581 953 q 569 881 581 897 q 532 842 558 865 l 403 725 q 334 747 358 725 q 310 796 310 769 q 316 822 310 811 q 336 849 322 833 l 474 1000 z "},"Ĉ":{"ha":804,"x_min":61,"x_max":751,"o":"m 746 735 q 731 687 746 707 q 696 656 715 667 q 615 699 660 679 q 506 718 571 718 q 317 642 388 718 q 247 421 247 565 q 319 200 247 274 q 514 126 392 126 q 624 144 578 126 q 707 185 671 161 q 739 151 726 172 q 751 101 751 129 q 739 58 751 78 q 697 24 726 39 q 619 -8 669 7 q 493 -22 568 -22 q 323 5 401 -22 q 186 87 244 32 q 94 225 128 142 q 61 421 61 308 q 94 612 61 529 q 185 751 128 694 q 320 836 243 807 q 483 865 397 865 q 592 855 543 865 q 675 826 640 844 q 728 785 710 808 q 746 735 746 761 m 469 1031 q 408 971 442 1003 q 340 908 375 939 q 285 928 307 910 q 263 975 263 947 q 275 1015 263 999 q 313 1054 288 1031 l 374 1110 q 472 1154 428 1154 q 524 1142 501 1154 q 571 1107 546 1131 l 683 986 q 663 931 683 950 q 611 911 643 911 q 571 925 589 911 q 525 968 553 939 l 469 1031 z "},"ĉ":{"ha":672,"x_min":56,"x_max":618,"o":"m 428 538 q 351 524 386 538 q 290 483 315 510 q 249 418 264 457 q 233 328 233 379 q 288 173 233 225 q 428 121 342 121 q 512 134 476 121 q 575 163 547 147 q 606 131 594 149 q 618 89 618 113 q 563 11 618 42 q 413 -19 507 -19 q 267 2 333 -19 q 154 67 201 24 q 81 176 107 111 q 56 328 56 242 q 83 481 56 415 q 159 591 111 547 q 271 656 207 635 q 407 678 335 678 q 556 645 500 678 q 611 565 611 613 q 599 525 611 543 q 572 496 588 507 q 510 524 544 511 q 428 538 476 538 m 382 864 q 321 795 347 824 q 265 732 294 767 q 201 752 225 733 q 176 800 176 771 q 188 838 176 822 q 222 876 200 853 l 288 946 q 332 978 310 967 q 385 990 354 990 q 437 980 414 990 q 488 936 460 969 l 594 806 q 578 756 594 776 q 526 735 561 735 q 487 747 503 735 q 456 778 471 758 l 382 864 z "},"Ċ":{"ha":804,"x_min":61,"x_max":751,"o":"m 746 735 q 731 687 746 707 q 696 656 715 667 q 615 699 660 679 q 506 718 571 718 q 317 642 388 718 q 247 421 247 565 q 319 200 247 274 q 514 126 392 126 q 624 144 578 126 q 707 185 671 161 q 739 151 726 172 q 751 101 751 129 q 739 58 751 78 q 697 24 726 39 q 619 -8 669 7 q 493 -22 568 -22 q 323 5 401 -22 q 186 87 244 32 q 94 225 128 142 q 61 421 61 308 q 94 612 61 529 q 185 751 128 694 q 320 836 243 807 q 483 865 397 865 q 592 855 543 865 q 675 826 640 844 q 728 785 710 808 q 746 735 746 761 m 568 1036 q 541 968 568 996 q 469 940 514 940 q 398 968 425 940 q 371 1036 371 996 q 398 1105 371 1078 q 469 1132 425 1132 q 541 1105 514 1132 q 568 1036 568 1078 z "},"ċ":{"ha":672,"x_min":56,"x_max":618,"o":"m 428 538 q 351 524 386 538 q 290 483 315 510 q 249 418 264 457 q 233 328 233 379 q 288 173 233 225 q 428 121 342 121 q 512 134 476 121 q 575 163 547 147 q 606 131 594 149 q 618 89 618 113 q 563 11 618 42 q 413 -19 507 -19 q 267 2 333 -19 q 154 67 201 24 q 81 176 107 111 q 56 328 56 242 q 83 481 56 415 q 159 591 111 547 q 271 656 207 635 q 407 678 335 678 q 556 645 500 678 q 611 565 611 613 q 599 525 611 543 q 572 496 588 507 q 510 524 544 511 q 428 538 476 538 m 479 861 q 452 793 479 821 q 381 765 425 765 q 309 793 336 765 q 282 861 282 821 q 309 930 282 903 q 381 957 336 957 q 452 930 425 957 q 479 861 479 903 z "},"Č":{"ha":804,"x_min":61,"x_max":751,"o":"m 746 735 q 731 687 746 707 q 696 656 715 667 q 615 699 660 679 q 506 718 571 718 q 317 642 388 718 q 247 421 247 565 q 319 200 247 274 q 514 126 392 126 q 624 144 578 126 q 707 185 671 161 q 739 151 726 172 q 751 101 751 129 q 739 58 751 78 q 697 24 726 39 q 619 -8 669 7 q 493 -22 568 -22 q 323 5 401 -22 q 186 87 244 32 q 94 225 128 142 q 61 421 61 308 q 94 612 61 529 q 185 751 128 694 q 320 836 243 807 q 483 865 397 865 q 592 855 543 865 q 675 826 640 844 q 728 785 710 808 q 746 735 746 761 m 604 1154 q 664 1134 640 1153 q 688 1086 688 1115 q 674 1047 688 1063 q 635 1007 661 1031 l 575 951 q 526 919 547 928 q 478 910 504 910 q 422 922 446 910 q 376 956 399 933 l 261 1068 q 280 1129 261 1108 q 332 1150 299 1150 q 374 1138 354 1150 q 422 1094 393 1126 l 478 1031 l 604 1154 z "},"č":{"ha":672,"x_min":56,"x_max":618,"o":"m 428 538 q 351 524 386 538 q 290 483 315 510 q 249 418 264 457 q 233 328 233 379 q 288 173 233 225 q 428 121 342 121 q 512 134 476 121 q 575 163 547 147 q 606 131 594 149 q 618 89 618 113 q 563 11 618 42 q 413 -19 507 -19 q 267 2 333 -19 q 154 67 201 24 q 81 176 107 111 q 56 328 56 242 q 83 481 56 415 q 159 591 111 547 q 271 656 207 635 q 407 678 335 678 q 556 645 500 678 q 611 565 611 613 q 599 525 611 543 q 572 496 588 507 q 510 524 544 511 q 428 538 476 538 m 379 863 l 504 988 q 569 967 544 986 q 593 917 593 947 q 580 878 593 894 q 542 839 567 863 l 468 769 q 382 733 428 733 q 330 744 353 733 q 272 788 307 754 l 163 896 q 161 908 161 901 q 178 960 161 936 q 229 985 194 985 q 269 975 251 985 q 314 935 286 965 l 379 863 z "},"Ď":{"ha":915,"x_min":107,"x_max":854,"o":"m 669 425 q 649 555 669 500 q 591 645 628 610 q 503 698 554 681 q 393 715 453 715 q 335 713 361 715 q 286 708 310 711 l 286 138 q 340 130 310 132 q 399 128 369 128 q 599 203 528 128 q 669 425 669 278 m 854 426 q 822 230 854 314 q 729 91 789 146 q 585 8 669 36 q 399 -19 501 -19 q 347 -19 375 -19 q 290 -15 319 -18 q 230 -6 260 -11 q 174 10 200 0 q 107 93 107 35 l 107 774 q 121 813 107 799 q 160 835 135 826 q 272 858 211 853 q 386 863 332 863 q 577 835 490 863 q 725 754 664 808 q 820 618 786 700 q 854 426 854 536 m 582 1154 q 642 1134 618 1153 q 665 1086 665 1115 q 652 1047 665 1063 q 613 1007 639 1031 l 553 951 q 503 919 525 928 q 456 910 482 910 q 400 922 424 910 q 354 956 376 933 l 239 1068 q 258 1129 239 1108 q 310 1150 276 1150 q 351 1138 332 1150 q 400 1094 371 1126 l 456 1031 l 582 1154 z "},"ď":{"ha":972,"x_min":56,"x_max":979,"o":"m 697 128 q 683 76 697 96 q 642 39 669 57 q 550 -2 607 17 q 418 -21 493 -21 q 153 65 251 -21 q 56 326 56 150 q 82 484 56 418 q 153 593 108 550 q 260 657 199 636 q 392 678 321 678 q 463 670 429 678 q 522 651 496 663 l 522 903 q 555 910 533 907 q 601 914 576 914 q 674 896 651 914 q 697 832 697 878 l 697 128 m 522 510 q 474 531 501 522 q 414 539 446 539 q 285 489 336 539 q 233 325 233 439 q 283 169 233 218 q 417 119 332 119 q 478 128 453 119 q 522 147 504 136 l 522 510 m 908 700 q 870 672 890 681 q 826 664 850 664 q 760 690 783 664 q 799 796 783 743 q 821 896 814 849 q 859 911 838 906 q 903 917 881 917 q 958 903 936 917 q 979 858 979 889 q 973 819 979 842 q 956 776 967 797 q 933 734 946 754 q 908 700 921 714 z "},"Đ":{"ha":967,"x_min":14,"x_max":904,"o":"m 904 426 q 872 230 904 314 q 779 91 839 146 q 635 8 719 36 q 449 -19 551 -19 q 397 -19 425 -19 q 340 -15 369 -18 q 280 -6 310 -11 q 224 10 250 0 q 157 93 157 35 l 157 353 l 33 353 q 20 381 26 364 q 14 421 14 399 q 31 477 14 458 q 78 496 49 496 l 157 496 l 157 774 q 171 813 157 799 q 210 835 185 826 q 322 858 261 853 q 436 863 382 863 q 627 835 540 863 q 775 754 714 808 q 870 618 836 700 q 904 426 904 536 m 719 425 q 699 555 719 500 q 641 645 678 610 q 553 698 604 681 q 443 715 503 715 q 385 713 411 715 q 336 708 360 711 l 336 496 l 497 496 q 510 467 504 485 q 517 426 517 449 q 453 353 517 353 l 336 353 l 336 138 q 390 130 360 132 q 449 128 419 128 q 649 203 578 128 q 719 425 719 278 z "},"đ":{"ha":794,"x_min":56,"x_max":792,"o":"m 697 735 l 697 128 q 683 76 697 96 q 642 39 669 57 q 550 -2 607 17 q 418 -21 493 -21 q 153 65 251 -21 q 56 326 56 150 q 82 484 56 418 q 153 593 108 550 q 260 657 199 636 q 392 678 321 678 q 463 670 429 678 q 522 651 496 663 l 522 735 l 401 735 q 391 757 396 743 q 386 788 386 771 q 399 828 386 815 q 435 842 413 842 l 522 842 l 522 925 q 555 933 533 929 q 601 936 576 936 q 674 918 651 936 q 697 854 697 900 l 697 842 l 778 842 q 787 819 782 833 q 792 790 792 806 q 743 735 792 735 l 697 735 m 522 510 q 474 531 501 522 q 414 539 446 539 q 285 489 336 539 q 233 325 233 439 q 283 169 233 218 q 417 119 332 119 q 478 128 453 119 q 522 147 504 136 l 522 510 z "},"Ē":{"ha":757,"x_min":115,"x_max":696,"o":"m 211 -3 q 141 24 167 -3 q 115 94 115 50 l 115 747 q 141 817 115 792 q 211 843 167 843 l 671 843 q 683 814 678 832 q 689 774 689 796 q 672 718 689 738 q 626 699 656 699 l 290 699 l 290 501 l 629 501 q 642 473 636 490 q 649 433 649 456 q 585 358 649 358 l 290 358 l 290 143 l 676 143 q 690 113 683 132 q 696 72 696 94 q 632 -3 696 -3 l 211 -3 m 215 961 q 202 990 208 972 q 196 1026 196 1007 q 213 1081 196 1065 q 257 1096 229 1096 l 600 1096 q 618 1031 618 1071 q 602 977 618 993 q 558 961 586 961 l 215 961 z "},"ē":{"ha":742,"x_min":56,"x_max":693,"o":"m 231 250 q 303 147 250 179 q 433 115 356 115 q 541 133 492 115 q 621 169 590 150 q 653 139 640 158 q 665 97 665 119 q 647 48 665 69 q 595 11 628 26 q 518 -12 563 -4 q 422 -21 474 -21 q 273 1 340 -21 q 158 69 206 24 q 83 181 110 114 q 56 336 56 247 q 82 486 56 422 q 153 593 108 550 q 258 657 199 636 q 385 678 318 678 q 510 656 453 678 q 607 597 567 635 q 670 505 647 558 q 693 389 693 451 q 673 331 693 350 q 617 306 653 311 l 231 250 m 385 546 q 271 501 317 546 q 219 372 225 456 l 528 418 q 488 508 522 469 q 385 546 453 546 m 192 788 q 178 816 185 799 q 172 853 172 833 q 189 907 172 892 q 233 922 206 922 l 576 922 q 594 857 594 897 q 578 803 594 819 q 535 788 563 788 l 192 788 z "},"Ĕ":{"ha":757,"x_min":115,"x_max":696,"o":"m 211 -3 q 141 24 167 -3 q 115 94 115 50 l 115 747 q 141 817 115 792 q 211 843 167 843 l 671 843 q 683 814 678 832 q 689 774 689 796 q 672 718 689 738 q 626 699 656 699 l 290 699 l 290 501 l 629 501 q 642 473 636 490 q 649 433 649 456 q 585 358 649 358 l 290 358 l 290 143 l 676 143 q 690 113 683 132 q 696 72 696 94 q 632 -3 696 -3 l 211 -3 m 417 1058 q 487 1081 460 1058 q 522 1139 514 1103 q 534 1141 529 1140 q 546 1142 539 1142 q 606 1119 586 1142 q 626 1064 626 1096 q 613 1013 626 1038 q 572 970 599 989 q 507 940 546 951 q 417 929 468 929 q 325 940 364 929 q 259 970 286 951 q 219 1013 232 989 q 206 1064 206 1038 q 226 1119 206 1096 q 286 1142 246 1142 q 299 1141 293 1142 q 311 1139 304 1140 q 345 1081 318 1103 q 417 1058 372 1058 z "},"ĕ":{"ha":742,"x_min":56,"x_max":693,"o":"m 231 250 q 303 147 250 179 q 433 115 356 115 q 541 133 492 115 q 621 169 590 150 q 653 139 640 158 q 665 97 665 119 q 647 48 665 69 q 595 11 628 26 q 518 -12 563 -4 q 422 -21 474 -21 q 273 1 340 -21 q 158 69 206 24 q 83 181 110 114 q 56 336 56 247 q 82 486 56 422 q 153 593 108 550 q 258 657 199 636 q 385 678 318 678 q 510 656 453 678 q 607 597 567 635 q 670 505 647 558 q 693 389 693 451 q 673 331 693 350 q 617 306 653 311 l 231 250 m 385 546 q 271 501 317 546 q 219 372 225 456 l 528 418 q 488 508 522 469 q 385 546 453 546 m 390 889 q 460 911 433 889 q 496 969 488 933 q 508 972 503 971 q 519 972 513 972 q 580 949 560 972 q 600 894 600 926 q 586 844 600 868 q 546 801 572 819 q 481 771 519 782 q 390 760 442 760 q 299 771 338 760 q 233 801 260 782 q 192 844 206 819 q 179 894 179 868 q 199 949 179 926 q 260 972 219 972 q 272 972 267 972 q 285 969 278 971 q 319 911 292 933 q 390 889 346 889 z "},"Ė":{"ha":757,"x_min":115,"x_max":696,"o":"m 211 -3 q 141 24 167 -3 q 115 94 115 50 l 115 747 q 141 817 115 792 q 211 843 167 843 l 671 843 q 683 814 678 832 q 689 774 689 796 q 672 718 689 738 q 626 699 656 699 l 290 699 l 290 501 l 629 501 q 642 473 636 490 q 649 433 649 456 q 585 358 649 358 l 290 358 l 290 143 l 676 143 q 690 113 683 132 q 696 72 696 94 q 632 -3 696 -3 l 211 -3 m 521 1036 q 494 968 521 996 q 422 940 467 940 q 351 968 378 940 q 324 1036 324 996 q 351 1105 324 1078 q 422 1132 378 1132 q 494 1105 467 1132 q 521 1036 521 1078 z "},"ė":{"ha":742,"x_min":56,"x_max":693,"o":"m 231 250 q 303 147 250 179 q 433 115 356 115 q 541 133 492 115 q 621 169 590 150 q 653 139 640 158 q 665 97 665 119 q 647 48 665 69 q 595 11 628 26 q 518 -12 563 -4 q 422 -21 474 -21 q 273 1 340 -21 q 158 69 206 24 q 83 181 110 114 q 56 336 56 247 q 82 486 56 422 q 153 593 108 550 q 258 657 199 636 q 385 678 318 678 q 510 656 453 678 q 607 597 567 635 q 670 505 647 558 q 693 389 693 451 q 673 331 693 350 q 617 306 653 311 l 231 250 m 385 546 q 271 501 317 546 q 219 372 225 456 l 528 418 q 488 508 522 469 q 385 546 453 546 m 485 861 q 458 793 485 821 q 386 765 431 765 q 315 793 342 765 q 288 861 288 821 q 315 930 288 903 q 386 957 342 957 q 458 930 431 957 q 485 861 485 903 z "},"Ę":{"ha":757,"x_min":115,"x_max":697,"o":"m 211 -3 q 141 24 167 -3 q 115 94 115 50 l 115 747 q 141 817 115 792 q 211 843 167 843 l 671 843 q 683 814 678 832 q 689 774 689 796 q 672 718 689 738 q 626 699 656 699 l 290 699 l 290 501 l 629 501 q 642 473 636 490 q 649 433 649 456 q 585 358 649 358 l 290 358 l 290 143 l 676 143 q 690 113 683 132 q 696 72 696 94 q 679 17 696 35 q 633 -3 663 -1 q 604 -35 615 -17 q 593 -79 593 -53 q 615 -128 593 -111 q 675 -146 636 -146 l 688 -146 q 694 -168 692 -157 q 697 -192 697 -179 q 676 -247 697 -224 q 596 -269 654 -269 q 480 -233 526 -269 q 433 -129 433 -196 q 452 -53 433 -85 q 494 -3 471 -22 l 211 -3 l 211 -3 z "},"ę":{"ha":742,"x_min":56,"x_max":693,"o":"m 231 250 q 303 147 250 179 q 433 115 356 115 q 541 133 492 115 q 621 169 590 150 q 653 139 640 158 q 665 97 665 119 q 638 38 665 63 q 563 -1 610 13 q 532 -35 543 -17 q 521 -79 521 -53 q 542 -128 521 -111 q 603 -146 564 -146 l 615 -146 q 622 -168 619 -157 q 625 -192 625 -179 q 603 -247 625 -224 q 524 -269 582 -269 q 408 -233 454 -269 q 361 -129 361 -196 q 373 -67 361 -93 q 403 -21 385 -40 q 261 6 325 -18 q 151 74 197 29 q 81 185 106 119 q 56 336 56 250 q 82 486 56 422 q 153 593 108 550 q 258 657 199 636 q 385 678 318 678 q 510 656 453 678 q 607 597 567 635 q 670 505 647 558 q 693 389 693 451 q 673 331 693 350 q 617 306 653 311 l 231 250 m 385 546 q 271 501 317 546 q 219 372 225 456 l 528 418 q 488 508 522 469 q 385 546 453 546 z "},"Ě":{"ha":757,"x_min":115,"x_max":696,"o":"m 211 -3 q 141 24 167 -3 q 115 94 115 50 l 115 747 q 141 817 115 792 q 211 843 167 843 l 671 843 q 683 814 678 832 q 689 774 689 796 q 672 718 689 738 q 626 699 656 699 l 290 699 l 290 501 l 629 501 q 642 473 636 490 q 649 433 649 456 q 585 358 649 358 l 290 358 l 290 143 l 676 143 q 690 113 683 132 q 696 72 696 94 q 632 -3 696 -3 l 211 -3 m 544 1154 q 604 1134 581 1153 q 628 1086 628 1115 q 615 1047 628 1063 q 575 1007 601 1031 l 515 951 q 466 919 488 928 q 418 910 444 910 q 363 922 386 910 q 317 956 339 933 l 201 1068 q 220 1129 201 1108 q 272 1150 239 1150 q 314 1138 294 1150 q 363 1094 333 1126 l 418 1031 l 544 1154 z "},"ě":{"ha":742,"x_min":56,"x_max":693,"o":"m 231 250 q 303 147 250 179 q 433 115 356 115 q 541 133 492 115 q 621 169 590 150 q 653 139 640 158 q 665 97 665 119 q 647 48 665 69 q 595 11 628 26 q 518 -12 563 -4 q 422 -21 474 -21 q 273 1 340 -21 q 158 69 206 24 q 83 181 110 114 q 56 336 56 247 q 82 486 56 422 q 153 593 108 550 q 258 657 199 636 q 385 678 318 678 q 510 656 453 678 q 607 597 567 635 q 670 505 647 558 q 693 389 693 451 q 673 331 693 350 q 617 306 653 311 l 231 250 m 385 546 q 271 501 317 546 q 219 372 225 456 l 528 418 q 488 508 522 469 q 385 546 453 546 m 390 863 l 515 988 q 580 967 556 986 q 604 917 604 947 q 591 878 604 894 q 553 839 578 863 l 479 769 q 393 733 439 733 q 341 744 364 733 q 283 788 318 754 l 174 896 q 172 908 172 901 q 189 960 172 936 q 240 985 206 985 q 280 975 263 985 q 325 935 297 965 l 390 863 z "},"Ĝ":{"ha":906,"x_min":61,"x_max":824,"o":"m 824 117 q 809 63 824 82 q 763 28 794 44 q 717 8 744 17 q 658 -8 690 -1 q 590 -18 625 -14 q 521 -22 556 -22 q 338 3 422 -22 q 192 83 254 29 q 96 221 131 138 q 61 419 61 304 q 97 613 61 529 q 194 753 132 697 q 338 837 256 808 q 514 865 419 865 q 627 855 576 865 q 715 827 678 844 q 771 785 751 810 q 790 735 790 761 q 775 686 790 707 q 740 654 760 665 q 653 698 704 678 q 526 718 601 718 q 414 698 465 718 q 326 640 363 678 q 268 547 289 603 q 247 421 247 492 q 268 289 247 344 q 326 197 289 233 q 413 142 363 160 q 524 125 464 125 q 597 132 564 125 q 649 149 631 139 l 649 342 l 471 342 q 458 371 464 353 q 453 411 453 389 q 470 465 453 447 q 515 483 488 483 l 749 483 q 803 464 783 483 q 824 410 824 444 l 824 117 m 486 1031 q 425 971 458 1003 q 357 908 392 939 q 301 928 324 910 q 279 975 279 947 q 292 1015 279 999 q 329 1054 304 1031 l 390 1110 q 489 1154 444 1154 q 540 1142 518 1154 q 588 1107 563 1131 l 700 986 q 680 931 700 950 q 628 911 660 911 q 588 925 606 911 q 542 968 569 939 l 486 1031 z "},"ĝ":{"ha":767,"x_min":57,"x_max":681,"o":"m 513 57 q 448 33 485 43 q 363 24 411 24 q 244 41 300 24 q 147 97 189 58 q 81 198 106 136 q 57 349 57 260 q 81 491 57 429 q 151 594 106 553 q 258 657 196 636 q 397 678 321 678 q 530 660 469 678 q 626 618 590 642 q 666 581 651 601 q 681 528 681 560 l 681 -8 q 655 -131 681 -79 q 585 -215 629 -182 q 481 -262 540 -247 q 351 -278 421 -278 q 226 -265 279 -278 q 146 -235 172 -251 q 100 -157 100 -206 q 111 -111 100 -131 q 138 -82 122 -92 q 225 -121 174 -104 q 335 -137 276 -137 q 465 -106 418 -137 q 513 -3 513 -74 l 513 57 m 392 160 q 460 171 432 160 q 510 197 489 182 l 510 511 q 465 531 490 522 q 403 539 439 539 q 280 492 326 539 q 233 349 233 446 q 245 260 233 296 q 278 201 257 224 q 329 169 300 179 q 392 160 358 160 m 393 864 q 332 795 358 824 q 276 732 306 767 q 212 752 236 733 q 188 800 188 771 q 199 838 188 822 q 233 876 211 853 l 299 946 q 343 978 321 967 q 396 990 365 990 q 448 980 425 990 q 499 936 471 969 l 606 806 q 589 756 606 776 q 538 735 572 735 q 498 747 514 735 q 467 778 482 758 l 393 864 z "},"Ğ":{"ha":906,"x_min":61,"x_max":824,"o":"m 824 117 q 809 63 824 82 q 763 28 794 44 q 717 8 744 17 q 658 -8 690 -1 q 590 -18 625 -14 q 521 -22 556 -22 q 338 3 422 -22 q 192 83 254 29 q 96 221 131 138 q 61 419 61 304 q 97 613 61 529 q 194 753 132 697 q 338 837 256 808 q 514 865 419 865 q 627 855 576 865 q 715 827 678 844 q 771 785 751 810 q 790 735 790 761 q 775 686 790 707 q 740 654 760 665 q 653 698 704 678 q 526 718 601 718 q 414 698 465 718 q 326 640 363 678 q 268 547 289 603 q 247 421 247 492 q 268 289 247 344 q 326 197 289 233 q 413 142 363 160 q 524 125 464 125 q 597 132 564 125 q 649 149 631 139 l 649 342 l 471 342 q 458 371 464 353 q 453 411 453 389 q 470 465 453 447 q 515 483 488 483 l 749 483 q 803 464 783 483 q 824 410 824 444 l 824 117 m 479 1058 q 549 1081 522 1058 q 585 1139 576 1103 q 597 1141 592 1140 q 608 1142 601 1142 q 669 1119 649 1142 q 689 1064 689 1096 q 675 1013 689 1038 q 635 970 661 989 q 569 940 608 951 q 479 929 531 929 q 388 940 426 929 q 322 970 349 951 q 281 1013 294 989 q 268 1064 268 1038 q 288 1119 268 1096 q 349 1142 308 1142 q 361 1141 356 1142 q 374 1139 367 1140 q 408 1081 381 1103 q 479 1058 435 1058 z "},"ğ":{"ha":767,"x_min":57,"x_max":681,"o":"m 513 57 q 448 33 485 43 q 363 24 411 24 q 244 41 300 24 q 147 97 189 58 q 81 198 106 136 q 57 349 57 260 q 81 491 57 429 q 151 594 106 553 q 258 657 196 636 q 397 678 321 678 q 530 660 469 678 q 626 618 590 642 q 666 581 651 601 q 681 528 681 560 l 681 -8 q 655 -131 681 -79 q 585 -215 629 -182 q 481 -262 540 -247 q 351 -278 421 -278 q 226 -265 279 -278 q 146 -235 172 -251 q 100 -157 100 -206 q 111 -111 100 -131 q 138 -82 122 -92 q 225 -121 174 -104 q 335 -137 276 -137 q 465 -106 418 -137 q 513 -3 513 -74 l 513 57 m 392 160 q 460 171 432 160 q 510 197 489 182 l 510 511 q 465 531 490 522 q 403 539 439 539 q 280 492 326 539 q 233 349 233 446 q 245 260 233 296 q 278 201 257 224 q 329 169 300 179 q 392 160 358 160 m 389 889 q 459 911 432 889 q 494 969 486 933 q 506 972 501 971 q 518 972 511 972 q 578 949 558 972 q 599 894 599 926 q 585 844 599 868 q 544 801 571 819 q 479 771 518 782 q 389 760 440 760 q 297 771 336 760 q 231 801 258 782 q 191 844 204 819 q 178 894 178 868 q 198 949 178 926 q 258 972 218 972 q 271 972 265 972 q 283 969 276 971 q 317 911 290 933 q 389 889 344 889 z "},"Ġ":{"ha":906,"x_min":61,"x_max":824,"o":"m 824 117 q 809 63 824 82 q 763 28 794 44 q 717 8 744 17 q 658 -8 690 -1 q 590 -18 625 -14 q 521 -22 556 -22 q 338 3 422 -22 q 192 83 254 29 q 96 221 131 138 q 61 419 61 304 q 97 613 61 529 q 194 753 132 697 q 338 837 256 808 q 514 865 419 865 q 627 855 576 865 q 715 827 678 844 q 771 785 751 810 q 790 735 790 761 q 775 686 790 707 q 740 654 760 665 q 653 698 704 678 q 526 718 601 718 q 414 698 465 718 q 326 640 363 678 q 268 547 289 603 q 247 421 247 492 q 268 289 247 344 q 326 197 289 233 q 413 142 363 160 q 524 125 464 125 q 597 132 564 125 q 649 149 631 139 l 649 342 l 471 342 q 458 371 464 353 q 453 411 453 389 q 470 465 453 447 q 515 483 488 483 l 749 483 q 803 464 783 483 q 824 410 824 444 l 824 117 m 603 1036 q 576 968 603 996 q 504 940 549 940 q 433 968 460 940 q 406 1036 406 996 q 433 1105 406 1078 q 504 1132 460 1132 q 576 1105 549 1132 q 603 1036 603 1078 z "},"ġ":{"ha":767,"x_min":57,"x_max":681,"o":"m 513 57 q 448 33 485 43 q 363 24 411 24 q 244 41 300 24 q 147 97 189 58 q 81 198 106 136 q 57 349 57 260 q 81 491 57 429 q 151 594 106 553 q 258 657 196 636 q 397 678 321 678 q 530 660 469 678 q 626 618 590 642 q 666 581 651 601 q 681 528 681 560 l 681 -8 q 655 -131 681 -79 q 585 -215 629 -182 q 481 -262 540 -247 q 351 -278 421 -278 q 226 -265 279 -278 q 146 -235 172 -251 q 100 -157 100 -206 q 111 -111 100 -131 q 138 -82 122 -92 q 225 -121 174 -104 q 335 -137 276 -137 q 465 -106 418 -137 q 513 -3 513 -74 l 513 57 m 392 160 q 460 171 432 160 q 510 197 489 182 l 510 511 q 465 531 490 522 q 403 539 439 539 q 280 492 326 539 q 233 349 233 446 q 245 260 233 296 q 278 201 257 224 q 329 169 300 179 q 392 160 358 160 m 490 861 q 463 793 490 821 q 392 765 436 765 q 320 793 347 765 q 293 861 293 821 q 320 930 293 903 q 392 957 347 957 q 463 930 436 957 q 490 861 490 903 z "},"Ģ":{"ha":906,"x_min":61,"x_max":824,"o":"m 824 117 q 809 63 824 82 q 763 28 794 44 q 717 8 744 17 q 658 -8 690 -1 q 590 -18 625 -14 q 521 -22 556 -22 q 338 3 422 -22 q 192 83 254 29 q 96 221 131 138 q 61 419 61 304 q 97 613 61 529 q 194 753 132 697 q 338 837 256 808 q 514 865 419 865 q 627 855 576 865 q 715 827 678 844 q 771 785 751 810 q 790 735 790 761 q 775 686 790 707 q 740 654 760 665 q 653 698 704 678 q 526 718 601 718 q 414 698 465 718 q 326 640 363 678 q 268 547 289 603 q 247 421 247 492 q 268 289 247 344 q 326 197 289 233 q 413 142 363 160 q 524 125 464 125 q 597 132 564 125 q 649 149 631 139 l 649 342 l 471 342 q 458 371 464 353 q 453 411 453 389 q 470 465 453 447 q 515 483 488 483 l 749 483 q 803 464 783 483 q 824 410 824 444 l 824 117 m 507 -294 q 469 -322 489 -314 q 425 -331 449 -331 q 358 -306 383 -331 q 398 -199 383 -253 q 419 -99 413 -146 q 458 -85 438 -90 q 501 -79 479 -79 q 556 -92 535 -79 q 578 -136 578 -106 q 572 -175 578 -153 q 555 -219 565 -197 q 532 -262 544 -242 q 507 -294 519 -282 z "},"ģ":{"ha":767,"x_min":57,"x_max":681,"o":"m 381 960 q 417 987 399 979 q 457 994 435 994 q 496 988 476 994 q 529 969 515 981 q 467 763 479 864 q 431 748 451 754 q 389 742 411 742 q 331 754 353 742 q 310 793 310 767 q 316 835 310 811 q 332 882 322 858 q 355 926 342 906 q 381 960 368 947 m 513 57 q 448 33 485 43 q 363 24 411 24 q 244 41 300 24 q 147 97 189 58 q 81 198 106 136 q 57 349 57 260 q 81 491 57 429 q 151 594 106 553 q 258 657 196 636 q 397 678 321 678 q 530 660 469 678 q 626 618 590 642 q 666 581 651 601 q 681 528 681 560 l 681 -8 q 655 -131 681 -79 q 585 -215 629 -182 q 481 -262 540 -247 q 351 -278 421 -278 q 226 -265 279 -278 q 146 -235 172 -251 q 100 -157 100 -206 q 111 -111 100 -131 q 138 -82 122 -92 q 225 -121 174 -104 q 335 -137 276 -137 q 465 -106 418 -137 q 513 -3 513 -74 l 513 57 m 392 160 q 460 171 432 160 q 510 197 489 182 l 510 511 q 465 531 490 522 q 403 539 439 539 q 280 492 326 539 q 233 349 233 446 q 245 260 233 296 q 278 201 257 224 q 329 169 300 179 q 392 160 358 160 z "},"Ĥ":{"ha":915,"x_min":119,"x_max":828,"o":"m 300 1 q 265 -6 288 -1 q 215 -10 242 -10 q 141 10 163 -10 q 119 75 119 29 l 119 843 q 155 850 131 846 q 203 854 179 854 q 276 836 253 854 q 300 769 300 818 l 300 496 l 647 496 l 647 843 q 683 850 658 846 q 731 854 707 854 q 804 835 781 854 q 828 768 828 817 l 828 1 q 792 -6 815 -1 q 743 -10 769 -10 q 669 10 690 -10 q 647 75 647 29 l 647 351 l 300 351 l 300 1 m 463 1031 q 401 971 435 1003 q 333 908 368 939 q 278 928 300 910 q 256 975 256 947 q 268 1015 256 999 q 306 1054 281 1031 l 367 1110 q 465 1154 421 1154 q 517 1142 494 1154 q 564 1107 539 1131 l 676 986 q 656 931 676 950 q 604 911 636 911 q 564 925 582 911 q 518 968 546 939 l 463 1031 z "},"ĥ":{"ha":793,"x_min":-37,"x_max":703,"o":"m 268 1 q 235 -6 256 -1 q 188 -10 214 -10 q 115 8 139 -10 q 92 72 92 26 l 92 903 q 124 910 103 907 q 172 914 146 914 q 244 896 221 914 q 268 832 268 878 l 268 640 q 338 667 299 656 q 426 678 378 678 q 628 613 553 678 q 703 415 703 547 l 703 1 q 670 -6 692 -1 q 624 -10 649 -10 q 550 8 574 -10 q 526 72 526 26 l 526 407 q 490 508 526 476 q 396 539 454 539 q 326 527 358 539 q 268 499 294 515 l 268 1 m 169 1042 q 108 982 142 1014 q 40 919 75 950 q -15 940 7 921 q -37 986 -37 958 q -25 1026 -37 1010 q 13 1065 -12 1042 l 74 1121 q 172 1165 128 1165 q 224 1153 201 1165 q 271 1118 246 1142 l 383 997 q 363 942 383 961 q 311 922 343 922 q 271 936 289 922 q 225 979 253 950 l 169 1042 z "},"Ħ":{"ha":942,"x_min":31,"x_max":911,"o":"m 301 1 q 266 -6 289 -1 q 217 -10 243 -10 q 142 10 164 -10 q 121 75 121 29 l 121 601 l 46 601 q 35 625 40 611 q 31 656 31 639 q 44 697 31 685 q 81 710 57 710 l 121 710 l 121 843 q 156 850 132 846 q 204 854 181 854 q 278 836 254 854 q 301 769 301 818 l 301 710 l 649 710 l 649 843 q 684 850 660 846 q 732 854 708 854 q 806 835 782 854 q 829 768 829 817 l 829 710 l 897 710 q 906 689 901 703 q 911 658 911 675 q 863 601 911 601 l 829 601 l 829 1 q 794 -6 817 -1 q 744 -10 771 -10 q 670 10 692 -10 q 649 75 649 29 l 649 351 l 301 351 l 301 1 m 649 496 l 649 601 l 301 601 l 301 496 l 649 496 z "},"ħ":{"ha":799,"x_min":3,"x_max":701,"o":"m 267 1 q 233 -6 254 -1 q 186 -10 213 -10 q 114 8 138 -10 q 90 72 90 26 l 90 735 l 18 735 q 8 756 14 742 q 3 786 3 769 q 16 828 3 814 q 51 842 29 842 l 90 842 l 90 925 q 123 933 101 929 q 171 936 144 936 q 243 918 219 936 q 267 854 267 900 l 267 842 l 393 842 q 404 818 400 832 q 408 789 408 804 q 396 747 408 760 q 360 735 383 735 l 267 735 l 267 640 q 337 667 297 656 q 425 678 376 678 q 626 613 551 678 q 701 415 701 547 l 701 1 q 669 -6 690 -1 q 622 -10 647 -10 q 549 8 572 -10 q 525 72 525 26 l 525 407 q 489 508 525 476 q 394 539 453 539 q 325 527 357 539 q 267 499 293 515 l 267 1 l 267 1 z "},"Ĩ":{"ha":394,"x_min":-42,"x_max":424,"o":"m 204 -10 q 129 10 151 -10 q 107 75 107 29 l 107 843 q 143 850 119 846 q 190 854 167 854 q 264 836 240 854 q 288 769 288 818 l 288 1 q 252 -6 275 -1 q 204 -10 229 -10 m 79 1132 q 135 1125 108 1132 q 185 1110 161 1118 q 229 1096 208 1103 q 267 1089 250 1089 q 308 1105 294 1089 q 329 1139 322 1121 l 336 1139 q 397 1117 371 1139 q 424 1056 424 1096 q 390 978 424 1006 q 304 951 357 951 q 245 958 272 951 q 194 974 218 965 q 151 989 171 982 q 114 996 131 996 q 72 980 86 996 q 51 944 58 964 l 46 944 q -16 966 10 944 q -42 1028 -42 988 q -31 1074 -42 1054 q -3 1106 -21 1093 q 35 1126 14 1119 q 79 1132 57 1132 z "},"ĩ":{"ha":364,"x_min":-53,"x_max":413,"o":"m 192 -11 q 118 8 142 -11 q 94 71 94 26 l 94 651 q 126 658 106 654 q 172 663 147 663 q 246 644 222 663 q 269 581 269 625 l 269 0 q 238 -7 258 -3 q 192 -11 217 -11 m 68 950 q 124 943 97 950 q 174 928 150 936 q 218 914 197 921 q 256 907 239 907 q 297 923 283 907 q 318 957 311 939 l 325 957 q 386 935 360 957 q 413 874 413 914 q 379 797 413 824 q 293 769 346 769 q 234 776 261 769 q 183 792 207 783 q 140 807 160 800 q 103 814 119 814 q 61 798 75 814 q 40 763 47 782 l 35 763 q -27 784 -1 763 q -53 846 -53 806 q -42 892 -53 872 q -15 924 -32 911 q 24 944 3 938 q 68 950 46 950 z "},"Ī":{"ha":394,"x_min":-19,"x_max":403,"o":"m 204 -10 q 129 10 151 -10 q 107 75 107 29 l 107 843 q 143 850 119 846 q 190 854 167 854 q 264 836 240 854 q 288 769 288 818 l 288 1 q 252 -6 275 -1 q 204 -10 229 -10 m 0 961 q -13 990 -7 972 q -19 1026 -19 1007 q -3 1081 -19 1065 q 42 1096 14 1096 l 385 1096 q 403 1031 403 1071 q 387 977 403 993 q 343 961 371 961 l 0 961 z "},"ī":{"ha":364,"x_min":-32,"x_max":390,"o":"m 192 -11 q 118 8 142 -11 q 94 71 94 26 l 94 651 q 126 658 106 654 q 172 663 147 663 q 246 644 222 663 q 269 581 269 625 l 269 0 q 238 -7 258 -3 q 192 -11 217 -11 m -12 788 q -26 816 -19 799 q -32 853 -32 833 q -15 907 -32 892 q 29 922 1 922 l 372 922 q 390 857 390 897 q 374 803 390 819 q 331 788 358 788 l -12 788 z "},"Į":{"ha":394,"x_min":88,"x_max":358,"o":"m 88 -121 q 103 -51 88 -81 q 146 0 118 -21 q 107 75 107 15 l 107 843 q 143 850 119 846 q 190 854 167 854 q 264 836 240 854 q 288 769 288 818 l 288 1 q 247 -78 247 -31 q 268 -130 247 -111 q 321 -149 289 -149 l 349 -149 q 358 -196 358 -172 q 331 -256 358 -235 q 256 -278 304 -278 q 134 -233 181 -278 q 88 -121 88 -189 z "},"į":{"ha":364,"x_min":63,"x_max":325,"o":"m 94 653 q 127 660 106 656 q 174 664 149 664 q 247 646 224 664 q 269 582 269 628 l 269 1 q 235 -30 250 -11 q 221 -79 221 -49 q 242 -128 221 -111 q 303 -146 264 -146 l 317 -146 q 325 -192 325 -167 q 303 -247 325 -224 q 224 -269 282 -269 q 109 -233 156 -269 q 63 -129 63 -196 q 83 -49 63 -82 q 128 1 104 -17 q 94 72 94 18 l 94 653 m 81 854 q 109 923 81 894 q 182 951 138 951 q 254 923 226 951 q 282 854 282 894 q 254 784 282 813 q 182 756 226 756 q 109 784 138 756 q 81 854 81 813 z "},"İ":{"ha":394,"x_min":93,"x_max":290,"o":"m 204 -10 q 129 10 151 -10 q 107 75 107 29 l 107 843 q 143 850 119 846 q 190 854 167 854 q 264 836 240 854 q 288 769 288 818 l 288 1 q 252 -6 275 -1 q 204 -10 229 -10 m 290 1036 q 263 968 290 996 q 192 940 236 940 q 120 968 147 940 q 93 1036 93 996 q 120 1105 93 1078 q 192 1132 147 1132 q 263 1105 236 1132 q 290 1036 290 1078 z "},"ı":{"ha":364,"x_min":94,"x_max":269,"o":"m 269 1 q 238 -6 258 -1 q 192 -10 217 -10 q 118 9 142 -10 q 94 72 94 28 l 94 657 q 126 663 106 660 q 172 667 147 667 q 246 649 222 667 q 269 585 269 631 l 269 1 l 269 1 z "},"Ĵ":{"ha":546,"x_min":26,"x_max":561,"o":"m 444 228 q 375 42 444 103 q 192 -18 306 -18 q 71 5 115 -18 q 26 79 26 28 q 34 119 26 103 q 51 147 42 136 q 99 135 75 140 q 150 129 122 129 q 264 247 264 129 l 264 843 q 300 850 276 846 q 347 854 324 854 q 421 836 397 854 q 444 769 444 818 l 444 228 m 347 1031 q 286 971 319 1003 q 218 908 253 939 q 163 928 185 910 q 140 975 140 947 q 153 1015 140 999 q 190 1054 165 1031 l 251 1110 q 350 1154 306 1154 q 401 1142 379 1154 q 449 1107 424 1131 l 561 986 q 541 931 561 950 q 489 911 521 911 q 449 925 467 911 q 403 968 431 939 l 347 1031 z "},"ĵ":{"ha":365,"x_min":-33,"x_max":385,"o":"m 36 -137 q 83 -89 69 -119 q 97 -11 97 -58 l 97 651 q 130 658 108 654 q 175 663 151 663 q 249 644 225 663 q 274 581 274 625 l 274 -29 q 236 -181 274 -125 q 104 -256 188 -256 q 31 -228 58 -256 q 4 -156 4 -201 l 36 -137 m 172 864 q 111 795 138 824 q 56 732 85 767 q -9 752 15 733 q -33 800 -33 771 q -22 838 -33 822 q 13 876 -10 853 l 78 946 q 122 978 100 967 q 175 990 144 990 q 227 980 204 990 q 278 936 250 969 l 385 806 q 368 756 385 776 q 317 735 351 735 q 277 747 293 735 q 246 778 261 758 l 172 864 z "},"Ķ":{"ha":815,"x_min":101,"x_max":778,"o":"m 282 361 l 282 1 q 247 -6 269 -3 q 197 -10 224 -10 q 123 9 144 -10 q 101 75 101 28 l 101 843 q 137 850 113 846 q 185 854 161 854 q 258 836 235 854 q 282 769 282 818 l 282 483 l 615 850 q 712 824 682 850 q 742 761 742 797 q 727 709 742 732 q 683 657 713 686 l 449 424 q 639 225 557 313 q 778 85 721 138 q 748 13 776 39 q 679 -12 719 -12 q 611 9 639 -12 q 557 58 583 31 l 282 361 m 433 -294 q 395 -322 415 -314 q 351 -331 375 -331 q 285 -306 310 -331 q 324 -199 310 -253 q 346 -99 339 -146 q 385 -85 364 -90 q 428 -79 406 -79 q 483 -92 461 -79 q 504 -136 504 -106 q 498 -175 504 -153 q 481 -219 492 -197 q 458 -262 471 -242 q 433 -294 446 -282 z "},"ķ":{"ha":725,"x_min":90,"x_max":685,"o":"m 267 1 q 233 -6 254 -1 q 186 -10 213 -10 q 114 8 138 -10 q 90 72 90 26 l 90 903 q 123 910 101 907 q 171 914 144 914 q 243 896 219 914 q 267 832 267 878 l 267 401 l 536 669 q 621 646 589 669 q 653 586 653 622 q 633 531 653 554 q 569 471 613 507 l 419 340 l 685 92 q 656 16 679 43 q 588 -11 632 -11 q 531 4 556 -11 q 472 58 507 19 l 267 286 l 267 1 m 407 -294 q 369 -322 389 -314 q 325 -331 349 -331 q 258 -306 283 -331 q 298 -199 283 -253 q 319 -99 313 -146 q 358 -85 338 -90 q 401 -79 379 -79 q 456 -92 435 -79 q 478 -136 478 -106 q 472 -175 478 -153 q 455 -219 465 -197 q 432 -262 444 -242 q 407 -294 419 -282 z "},"ĸ":{"ha":725,"x_min":90,"x_max":685,"o":"m 267 399 l 544 669 q 629 645 597 669 q 661 585 661 621 q 640 531 661 554 q 576 471 618 507 l 419 338 l 685 92 q 656 16 679 43 q 588 -11 632 -11 q 530 6 556 -11 q 472 58 504 24 l 267 285 l 267 1 q 233 -6 254 -1 q 186 -10 213 -10 q 114 8 138 -10 q 90 72 90 26 l 90 657 q 123 663 101 660 q 169 667 144 667 q 243 649 219 667 q 267 585 267 631 l 267 399 z "},"Ĺ":{"ha":704,"x_min":107,"x_max":665,"o":"m 203 -3 q 133 24 158 -3 q 107 94 107 50 l 107 843 q 142 850 118 846 q 190 854 167 854 q 264 836 240 854 q 288 769 288 818 l 288 146 l 644 146 q 658 116 651 135 q 665 75 665 97 q 648 17 665 38 q 600 -3 631 -3 l 203 -3 m 299 1157 q 368 1135 343 1157 q 393 1082 393 1114 q 383 1041 393 1058 q 343 1003 372 1024 l 214 911 q 151 931 174 913 q 129 974 129 949 q 135 1001 129 989 q 156 1028 140 1014 l 299 1157 z "},"ĺ":{"ha":368,"x_min":96,"x_max":385,"o":"m 290 1214 q 360 1192 335 1214 q 385 1139 385 1171 q 374 1098 385 1115 q 335 1060 364 1081 l 206 968 q 143 988 165 969 q 121 1031 121 1006 q 126 1058 121 1046 q 147 1085 132 1071 l 290 1214 m 271 1 q 238 -6 260 -1 q 192 -10 217 -10 q 119 8 142 -10 q 96 72 96 26 l 96 903 q 128 910 107 907 q 175 914 150 914 q 248 896 225 914 q 271 832 271 878 l 271 1 z "},"Ļ":{"ha":704,"x_min":107,"x_max":665,"o":"m 203 -3 q 133 24 158 -3 q 107 94 107 50 l 107 843 q 142 850 118 846 q 190 854 167 854 q 264 836 240 854 q 288 769 288 818 l 288 146 l 644 146 q 658 116 651 135 q 665 75 665 97 q 648 17 665 38 q 600 -3 631 -3 l 203 -3 m 396 -294 q 358 -322 378 -314 q 314 -331 338 -331 q 247 -306 272 -331 q 287 -199 272 -253 q 308 -99 301 -146 q 347 -85 326 -90 q 390 -79 368 -79 q 445 -92 424 -79 q 467 -136 467 -106 q 460 -175 467 -153 q 444 -219 454 -197 q 421 -262 433 -242 q 396 -294 408 -282 z "},"ļ":{"ha":369,"x_min":50,"x_max":272,"o":"m 272 1 q 240 -6 261 -1 q 193 -10 218 -10 q 120 8 143 -10 q 97 72 97 26 l 97 903 q 130 910 108 907 q 176 914 151 914 q 249 896 226 914 q 272 832 272 878 l 272 1 m 199 -294 q 160 -322 181 -314 q 117 -331 140 -331 q 50 -306 75 -331 q 90 -199 75 -253 q 111 -99 104 -146 q 150 -85 129 -90 q 193 -79 171 -79 q 248 -92 226 -79 q 269 -136 269 -106 q 263 -175 269 -153 q 247 -219 257 -197 q 224 -262 236 -242 q 199 -294 211 -282 z "},"Ľ":{"ha":704,"x_min":107,"x_max":665,"o":"m 203 -3 q 133 24 158 -3 q 107 94 107 50 l 107 843 q 142 850 118 846 q 190 854 167 854 q 264 836 240 854 q 288 769 288 818 l 288 146 l 644 146 q 658 116 651 135 q 665 75 665 97 q 648 17 665 38 q 600 -3 631 -3 l 203 -3 m 539 638 q 501 610 521 618 q 457 601 481 601 q 390 628 414 601 q 429 733 414 681 q 451 833 444 786 q 490 849 468 843 q 533 854 511 854 q 588 840 567 854 q 610 796 610 826 q 603 757 610 779 q 587 713 597 735 q 564 672 576 692 q 539 638 551 651 z "},"ľ":{"ha":547,"x_min":97,"x_max":554,"o":"m 272 1 q 240 -6 261 -1 q 193 -10 218 -10 q 120 8 143 -10 q 97 72 97 26 l 97 903 q 130 910 108 907 q 176 914 151 914 q 249 896 226 914 q 272 832 272 878 l 272 1 m 483 700 q 445 672 465 681 q 401 664 425 664 q 335 690 358 664 q 374 796 358 743 q 396 896 389 849 q 434 911 413 906 q 478 917 456 917 q 533 903 511 917 q 554 858 554 889 q 548 819 554 842 q 531 776 542 797 q 508 734 521 754 q 483 700 496 714 z "},"Ŀ":{"ha":704,"x_min":107,"x_max":665,"o":"m 203 -3 q 133 24 158 -3 q 107 94 107 50 l 107 843 q 142 850 118 846 q 190 854 167 854 q 264 836 240 854 q 288 769 288 818 l 288 146 l 644 146 q 658 116 651 135 q 665 75 665 97 q 648 17 665 38 q 600 -3 631 -3 l 203 -3 m 438 467 q 466 544 438 513 q 544 575 494 575 q 622 544 593 575 q 650 467 650 513 q 622 391 650 422 q 544 360 593 360 q 466 391 494 360 q 438 467 438 422 z "},"ŀ":{"ha":540,"x_min":97,"x_max":561,"o":"m 272 1 q 240 -6 261 -1 q 193 -10 218 -10 q 120 8 143 -10 q 97 72 97 26 l 97 903 q 130 910 108 907 q 176 914 151 914 q 249 896 226 914 q 272 832 272 878 l 272 1 m 349 418 q 377 495 349 464 q 456 526 406 526 q 533 495 504 526 q 561 418 561 464 q 533 342 561 374 q 456 311 504 311 q 377 342 406 311 q 349 418 349 374 z "},"Ł":{"ha":746,"x_min":14,"x_max":714,"o":"m 251 -3 q 181 24 207 -3 q 156 94 156 50 l 156 335 l 65 297 q 32 334 50 310 q 14 388 14 358 q 53 443 14 426 l 156 485 l 156 843 q 191 850 167 846 q 239 854 215 854 q 313 836 289 854 q 336 769 336 818 l 336 560 l 501 628 q 535 592 517 617 q 554 538 554 567 q 514 483 554 499 l 336 410 l 336 146 l 693 146 q 707 116 700 135 q 714 75 714 97 q 697 17 714 38 q 649 -3 679 -3 l 251 -3 l 251 -3 z "},"ł":{"ha":497,"x_min":14,"x_max":483,"o":"m 338 1 q 305 -6 326 -1 q 258 -10 283 -10 q 185 8 208 -10 q 163 72 163 26 l 163 356 l 65 315 q 32 352 50 328 q 14 406 14 376 q 53 460 14 444 l 163 504 l 163 903 q 195 910 174 907 q 242 914 217 914 q 315 896 292 914 q 338 832 338 878 l 338 578 l 432 617 q 465 579 447 604 q 483 525 483 554 q 444 472 483 488 l 338 428 l 338 1 l 338 1 z "},"Ń":{"ha":924,"x_min":106,"x_max":822,"o":"m 199 -10 q 126 9 147 -10 q 106 72 106 28 l 106 813 q 151 843 121 832 q 217 854 181 854 q 294 839 260 854 q 354 778 328 824 l 554 418 q 608 315 582 368 q 653 217 633 261 l 658 218 q 649 377 651 300 q 647 529 647 454 l 647 844 q 681 851 658 847 q 728 854 704 854 q 801 835 779 854 q 822 772 822 817 l 822 22 q 778 -1 807 7 q 711 -10 750 -10 q 635 5 669 -10 q 575 65 601 19 l 375 425 q 322 528 347 474 q 276 628 296 583 l 268 626 q 277 469 275 550 q 279 317 279 389 l 279 1 q 246 -6 268 -1 q 199 -10 224 -10 m 578 1157 q 647 1135 622 1157 q 672 1082 672 1114 q 662 1041 672 1058 q 622 1003 651 1024 l 493 911 q 431 931 453 913 q 408 974 408 949 q 414 1001 408 989 q 435 1028 419 1014 l 578 1157 z "},"ń":{"ha":788,"x_min":88,"x_max":699,"o":"m 524 424 q 490 511 524 483 q 397 539 456 539 q 323 529 357 539 q 264 504 289 519 l 264 1 q 231 -6 251 -1 q 183 -10 210 -10 q 111 8 135 -10 q 88 72 88 26 l 88 518 q 101 572 88 551 q 144 613 115 593 q 251 659 185 640 q 399 678 318 678 q 620 615 542 678 q 699 429 699 551 l 699 1 q 666 -6 688 -1 q 619 -10 644 -10 q 547 8 569 -10 q 524 72 524 26 l 524 424 m 496 1000 q 575 976 547 1000 q 603 924 603 953 q 592 881 603 897 q 554 842 581 865 l 425 725 q 356 747 381 725 q 332 796 332 769 q 338 822 332 811 q 358 849 344 833 l 496 1000 z "},"Ņ":{"ha":924,"x_min":106,"x_max":822,"o":"m 199 -10 q 126 9 147 -10 q 106 72 106 28 l 106 813 q 151 843 121 832 q 217 854 181 854 q 294 839 260 854 q 354 778 328 824 l 554 418 q 608 315 582 368 q 653 217 633 261 l 658 218 q 649 377 651 300 q 647 529 647 454 l 647 844 q 681 851 658 847 q 728 854 704 854 q 801 835 779 854 q 822 772 822 817 l 822 22 q 778 -1 807 7 q 711 -10 750 -10 q 635 5 669 -10 q 575 65 601 19 l 375 425 q 322 528 347 474 q 276 628 296 583 l 268 626 q 277 469 275 550 q 279 317 279 389 l 279 1 q 246 -6 268 -1 q 199 -10 224 -10 m 483 -294 q 445 -322 465 -314 q 401 -331 425 -331 q 335 -306 360 -331 q 374 -199 360 -253 q 396 -99 389 -146 q 435 -85 414 -90 q 478 -79 456 -79 q 533 -92 511 -79 q 554 -136 554 -106 q 548 -175 554 -153 q 531 -219 542 -197 q 508 -262 521 -242 q 483 -294 496 -282 z "},"ņ":{"ha":788,"x_min":88,"x_max":699,"o":"m 524 424 q 490 511 524 483 q 397 539 456 539 q 323 529 357 539 q 264 504 289 519 l 264 1 q 231 -6 251 -1 q 183 -10 210 -10 q 111 8 135 -10 q 88 72 88 26 l 88 518 q 101 572 88 551 q 144 613 115 593 q 251 659 185 640 q 399 678 318 678 q 620 615 542 678 q 699 429 699 551 l 699 1 q 666 -6 688 -1 q 619 -10 644 -10 q 547 8 569 -10 q 524 72 524 26 l 524 424 m 411 -294 q 373 -322 393 -314 q 329 -331 353 -331 q 263 -306 288 -331 q 302 -199 288 -253 q 324 -99 317 -146 q 363 -85 342 -90 q 406 -79 383 -79 q 460 -92 439 -79 q 482 -136 482 -106 q 476 -175 482 -153 q 459 -219 469 -197 q 436 -262 449 -242 q 411 -294 424 -282 z "},"Ň":{"ha":924,"x_min":106,"x_max":822,"o":"m 199 -10 q 126 9 147 -10 q 106 72 106 28 l 106 813 q 151 843 121 832 q 217 854 181 854 q 294 839 260 854 q 354 778 328 824 l 554 418 q 608 315 582 368 q 653 217 633 261 l 658 218 q 649 377 651 300 q 647 529 647 454 l 647 844 q 681 851 658 847 q 728 854 704 854 q 801 835 779 854 q 822 772 822 817 l 822 22 q 778 -1 807 7 q 711 -10 750 -10 q 635 5 669 -10 q 575 65 601 19 l 375 425 q 322 528 347 474 q 276 628 296 583 l 268 626 q 277 469 275 550 q 279 317 279 389 l 279 1 q 246 -6 268 -1 q 199 -10 224 -10 m 599 1154 q 658 1134 635 1153 q 682 1086 682 1115 q 669 1047 682 1063 q 629 1007 656 1031 l 569 951 q 520 919 542 928 q 472 910 499 910 q 417 922 440 910 q 371 956 393 933 l 256 1068 q 274 1129 256 1108 q 326 1150 293 1150 q 368 1138 349 1150 q 417 1094 388 1126 l 472 1031 l 599 1154 z "},"ň":{"ha":788,"x_min":88,"x_max":699,"o":"m 524 424 q 490 511 524 483 q 397 539 456 539 q 323 529 357 539 q 264 504 289 519 l 264 1 q 231 -6 251 -1 q 183 -10 210 -10 q 111 8 135 -10 q 88 72 88 26 l 88 518 q 101 572 88 551 q 144 613 115 593 q 251 659 185 640 q 399 678 318 678 q 620 615 542 678 q 699 429 699 551 l 699 1 q 666 -6 688 -1 q 619 -10 644 -10 q 547 8 569 -10 q 524 72 524 26 l 524 424 m 386 863 l 511 988 q 576 967 551 986 q 600 917 600 947 q 587 878 600 894 q 549 839 574 863 l 475 769 q 389 733 435 733 q 337 744 360 733 q 279 788 314 754 l 169 896 q 168 908 168 901 q 185 960 168 936 q 236 985 201 985 q 276 975 258 985 q 321 935 293 965 l 386 863 z "},"ŉ":{"ha":954,"x_min":22,"x_max":865,"o":"m 690 424 q 656 511 690 483 q 564 539 622 539 q 490 529 524 539 q 431 504 456 519 l 431 1 q 397 -6 418 -1 q 350 -10 376 -10 q 278 8 301 -10 q 254 72 254 26 l 254 518 q 268 572 254 551 q 311 613 282 593 q 418 659 351 640 q 565 678 485 678 q 787 615 708 678 q 865 429 865 551 l 865 1 q 833 -6 854 -1 q 786 -10 811 -10 q 713 8 736 -10 q 690 72 690 26 l 690 424 m 163 574 q 92 532 139 532 q 22 550 54 532 q 31 623 26 583 q 40 703 36 663 q 48 783 44 744 q 53 856 51 822 q 91 870 69 864 q 136 876 113 876 q 197 860 171 876 q 222 804 222 844 q 217 748 222 781 q 203 683 211 715 q 183 621 194 650 q 163 574 172 592 z "},"Ō":{"ha":967,"x_min":61,"x_max":906,"o":"m 906 422 q 874 231 906 314 q 785 91 842 147 q 651 6 729 35 q 483 -22 574 -22 q 315 6 393 -22 q 181 91 238 35 q 93 231 125 147 q 61 422 61 314 q 94 613 61 531 q 183 752 126 696 q 317 837 240 808 q 483 865 394 865 q 649 837 572 865 q 783 752 726 808 q 873 613 840 696 q 906 422 906 531 m 721 422 q 656 642 721 567 q 483 718 592 718 q 312 643 376 718 q 247 422 247 568 q 311 201 247 276 q 483 126 375 126 q 656 201 592 126 q 721 422 721 276 m 285 961 q 272 990 278 972 q 265 1026 265 1007 q 282 1081 265 1065 q 326 1096 299 1096 l 669 1096 q 688 1031 688 1071 q 672 977 688 993 q 628 961 656 961 l 285 961 z "},"ō":{"ha":792,"x_min":56,"x_max":736,"o":"m 736 329 q 712 184 736 249 q 643 74 688 119 q 536 3 599 28 q 396 -21 474 -21 q 256 3 318 -21 q 149 73 193 28 q 80 183 104 118 q 56 329 56 247 q 80 474 56 410 q 149 584 104 539 q 257 653 194 629 q 396 678 319 678 q 535 653 472 678 q 642 583 597 629 q 712 473 688 538 q 736 329 736 408 m 396 539 q 278 484 321 539 q 235 329 235 429 q 277 174 235 228 q 396 119 319 119 q 515 174 472 119 q 557 329 557 229 q 514 484 557 429 q 396 539 471 539 m 204 788 q 191 816 197 799 q 185 853 185 833 q 201 907 185 892 q 246 922 218 922 l 589 922 q 607 857 607 897 q 591 803 607 819 q 547 788 575 788 l 204 788 z "},"Ő":{"ha":967,"x_min":61,"x_max":906,"o":"m 906 422 q 874 231 906 314 q 785 91 842 147 q 651 6 729 35 q 483 -22 574 -22 q 315 6 393 -22 q 181 91 238 35 q 93 231 125 147 q 61 422 61 314 q 94 613 61 531 q 183 752 126 696 q 317 837 240 808 q 483 865 394 865 q 649 837 572 865 q 783 752 726 808 q 873 613 840 696 q 906 422 906 531 m 721 422 q 656 642 721 567 q 483 718 592 718 q 312 643 376 718 q 247 422 247 568 q 311 201 247 276 q 483 126 375 126 q 656 201 592 126 q 721 422 721 276 m 386 1156 q 463 1133 438 1156 q 489 1082 489 1111 q 477 1040 489 1057 q 442 996 465 1022 l 365 911 q 297 931 321 911 q 274 978 274 951 q 278 1006 274 993 q 296 1035 283 1018 l 386 1156 m 654 1156 q 733 1133 707 1156 q 758 1082 758 1111 q 747 1040 758 1057 q 711 996 735 1022 l 633 911 q 565 931 589 911 q 542 978 542 951 q 547 1006 542 993 q 565 1035 553 1018 l 654 1156 z "},"ő":{"ha":792,"x_min":56,"x_max":736,"o":"m 736 329 q 712 184 736 249 q 643 74 688 119 q 536 3 599 28 q 396 -21 474 -21 q 256 3 318 -21 q 149 73 193 28 q 80 183 104 118 q 56 329 56 247 q 80 474 56 410 q 149 584 104 539 q 257 653 194 629 q 396 678 319 678 q 535 653 472 678 q 642 583 597 629 q 712 473 688 538 q 736 329 736 408 m 396 539 q 278 484 321 539 q 235 329 235 429 q 277 174 235 228 q 396 119 319 119 q 515 174 472 119 q 557 329 557 229 q 514 484 557 429 q 396 539 471 539 m 315 1000 q 394 978 367 1000 q 421 925 421 956 q 408 885 421 901 q 374 842 396 868 l 272 725 q 203 747 228 725 q 178 794 178 768 q 183 822 178 810 q 201 849 189 833 l 315 1000 m 590 1000 q 670 978 643 1000 q 697 925 697 956 q 685 885 697 901 q 649 842 672 868 l 547 725 q 478 747 503 725 q 454 794 454 768 q 459 822 454 810 q 476 849 464 833 l 590 1000 z "},"Œ":{"ha":1322,"x_min":61,"x_max":1260,"o":"m 783 -3 q 694 50 717 -3 q 475 -22 607 -22 q 310 6 386 -22 q 179 91 235 35 q 92 231 124 147 q 61 422 61 314 q 93 613 61 531 q 181 752 125 696 q 313 837 238 808 q 475 865 388 865 q 694 792 608 865 q 728 829 706 815 q 783 843 751 843 l 1235 843 q 1248 814 1242 832 q 1254 774 1254 796 q 1190 699 1254 699 l 856 699 l 856 501 l 1194 501 q 1208 473 1201 490 q 1214 433 1214 456 q 1197 377 1214 396 q 1150 358 1179 358 l 856 358 l 856 143 l 1242 143 q 1254 113 1249 132 q 1260 72 1260 94 q 1196 -3 1260 -3 l 783 -3 m 476 126 q 679 236 618 126 l 679 606 q 596 690 647 663 q 476 718 544 718 q 310 643 374 718 q 246 422 246 568 q 309 201 246 276 q 476 126 372 126 z "},"œ":{"ha":1238,"x_min":56,"x_max":1189,"o":"m 390 678 q 534 647 472 678 q 636 563 596 617 q 741 649 678 621 q 881 678 804 678 q 1006 656 949 678 q 1103 597 1063 635 q 1166 505 1143 558 q 1189 389 1189 451 q 1168 331 1189 350 q 1111 306 1147 311 l 726 250 q 799 147 746 179 q 928 115 851 115 q 1036 133 986 115 q 1117 169 1086 150 q 1149 139 1136 158 q 1161 97 1161 119 q 1142 48 1161 69 q 1091 11 1124 26 q 1013 -12 1058 -4 q 917 -21 968 -21 q 755 8 825 -21 q 640 97 685 38 q 538 10 600 42 q 390 -21 475 -21 q 251 3 313 -21 q 145 73 189 28 q 78 183 101 118 q 56 329 56 247 q 79 474 56 410 q 147 584 103 539 q 252 653 190 629 q 390 678 314 678 m 396 539 q 278 484 321 539 q 235 329 235 429 q 277 174 235 228 q 396 119 319 119 q 515 174 472 119 q 557 329 557 229 q 514 484 557 429 q 396 539 471 539 m 881 546 q 766 501 811 546 q 715 372 721 456 l 1024 418 q 983 508 1018 469 q 881 546 949 546 z "},"Ŕ":{"ha":832,"x_min":107,"x_max":785,"o":"m 288 1 q 252 -6 275 -1 q 203 -10 229 -10 q 128 10 150 -10 q 107 75 107 29 l 107 772 q 121 813 107 799 q 160 835 135 826 q 265 856 204 850 q 389 863 325 863 q 664 787 572 863 q 756 578 756 711 q 710 426 756 490 q 583 326 664 361 q 701 176 644 247 q 785 64 757 104 q 746 8 774 28 q 685 -12 718 -12 q 619 7 642 -12 q 574 60 596 26 l 417 294 l 288 294 l 288 1 m 399 436 q 526 471 478 436 q 574 576 574 506 q 386 717 574 717 q 333 714 358 717 q 285 708 307 711 l 285 436 l 399 436 m 500 1157 q 569 1135 544 1157 q 594 1082 594 1114 q 584 1041 594 1058 q 544 1003 574 1024 l 415 911 q 353 931 375 913 q 331 974 331 949 q 336 1001 331 989 q 357 1028 342 1014 l 500 1157 z "},"ŕ":{"ha":551,"x_min":88,"x_max":528,"o":"m 264 1 q 231 -6 251 -1 q 183 -10 210 -10 q 111 8 135 -10 q 88 72 88 26 l 88 513 q 104 574 88 549 q 153 618 121 599 q 259 661 196 644 q 396 678 322 678 q 528 596 528 678 q 522 559 528 576 q 508 531 515 542 q 429 538 476 538 q 338 526 381 538 q 264 499 294 515 l 264 1 m 385 1000 q 464 976 436 1000 q 492 924 492 953 q 481 881 492 897 q 443 842 469 865 l 314 725 q 245 747 269 725 q 221 796 221 769 q 227 822 221 811 q 247 849 233 833 l 385 1000 z "},"Ŗ":{"ha":832,"x_min":107,"x_max":785,"o":"m 288 1 q 252 -6 275 -1 q 203 -10 229 -10 q 128 10 150 -10 q 107 75 107 29 l 107 772 q 121 813 107 799 q 160 835 135 826 q 265 856 204 850 q 389 863 325 863 q 664 787 572 863 q 756 578 756 711 q 710 426 756 490 q 583 326 664 361 q 701 176 644 247 q 785 64 757 104 q 746 8 774 28 q 685 -12 718 -12 q 619 7 642 -12 q 574 60 596 26 l 417 294 l 288 294 l 288 1 m 399 436 q 526 471 478 436 q 574 576 574 506 q 386 717 574 717 q 333 714 358 717 q 285 708 307 711 l 285 436 l 399 436 m 454 -294 q 416 -322 436 -314 q 372 -331 396 -331 q 306 -306 331 -331 q 345 -199 331 -253 q 367 -99 360 -146 q 406 -85 385 -90 q 449 -79 426 -79 q 503 -92 482 -79 q 525 -136 525 -106 q 519 -175 525 -153 q 502 -219 513 -197 q 479 -262 492 -242 q 454 -294 467 -282 z "},"ŗ":{"ha":551,"x_min":43,"x_max":528,"o":"m 264 1 q 231 -6 251 -1 q 183 -10 210 -10 q 111 8 135 -10 q 88 72 88 26 l 88 513 q 104 574 88 549 q 153 618 121 599 q 259 661 196 644 q 396 678 322 678 q 528 596 528 678 q 522 559 528 576 q 508 531 515 542 q 429 538 476 538 q 338 526 381 538 q 264 499 294 515 l 264 1 m 192 -294 q 153 -322 174 -314 q 110 -331 133 -331 q 43 -306 68 -331 q 83 -199 68 -253 q 104 -99 97 -146 q 143 -85 122 -90 q 186 -79 164 -79 q 241 -92 219 -79 q 263 -136 263 -106 q 256 -175 263 -153 q 240 -219 250 -197 q 217 -262 229 -242 q 192 -294 204 -282 z "},"Ř":{"ha":832,"x_min":107,"x_max":785,"o":"m 288 1 q 252 -6 275 -1 q 203 -10 229 -10 q 128 10 150 -10 q 107 75 107 29 l 107 772 q 121 813 107 799 q 160 835 135 826 q 265 856 204 850 q 389 863 325 863 q 664 787 572 863 q 756 578 756 711 q 710 426 756 490 q 583 326 664 361 q 701 176 644 247 q 785 64 757 104 q 746 8 774 28 q 685 -12 718 -12 q 619 7 642 -12 q 574 60 596 26 l 417 294 l 288 294 l 288 1 m 399 436 q 526 471 478 436 q 574 576 574 506 q 386 717 574 717 q 333 714 358 717 q 285 708 307 711 l 285 436 l 399 436 m 549 1154 q 608 1134 585 1153 q 632 1086 632 1115 q 619 1047 632 1063 q 579 1007 606 1031 l 519 951 q 470 919 492 928 q 422 910 449 910 q 367 922 390 910 q 321 956 343 933 l 206 1068 q 224 1129 206 1108 q 276 1150 243 1150 q 318 1138 299 1150 q 367 1094 338 1126 l 422 1031 l 549 1154 z "},"ř":{"ha":551,"x_min":88,"x_max":528,"o":"m 264 1 q 231 -6 251 -1 q 183 -10 210 -10 q 111 8 135 -10 q 88 72 88 26 l 88 513 q 104 574 88 549 q 153 618 121 599 q 259 661 196 644 q 396 678 322 678 q 528 596 528 678 q 522 559 528 576 q 508 531 515 542 q 429 538 476 538 q 338 526 381 538 q 264 499 294 515 l 264 1 m 314 863 l 439 988 q 503 967 479 986 q 528 917 528 947 q 515 878 528 894 q 476 839 501 863 l 403 769 q 317 733 363 733 q 265 744 288 733 q 207 788 242 754 l 97 896 q 96 908 96 901 q 113 960 96 936 q 164 985 129 985 q 203 975 186 985 q 249 935 221 965 l 314 863 z "},"Ś":{"ha":746,"x_min":65,"x_max":693,"o":"m 353 126 q 471 158 433 126 q 508 236 508 189 q 479 305 508 279 q 390 349 450 331 l 301 376 q 206 414 249 393 q 132 463 163 435 q 85 530 101 492 q 68 621 68 568 q 153 799 68 733 q 385 865 238 865 q 492 856 443 865 q 578 831 542 847 q 634 792 614 815 q 654 739 654 768 q 641 691 654 711 q 608 658 628 671 q 520 699 575 682 q 400 717 465 717 q 290 691 328 717 q 253 621 253 665 q 278 565 253 585 q 360 528 304 546 l 439 503 q 626 404 560 467 q 693 235 693 342 q 671 131 693 178 q 606 49 649 83 q 501 -3 564 15 q 357 -22 438 -22 q 240 -11 293 -22 q 147 19 186 0 q 87 63 108 38 q 65 119 65 89 q 84 174 65 151 q 128 208 103 197 q 219 152 163 178 q 353 126 276 126 m 460 1157 q 529 1135 504 1157 q 554 1082 554 1114 q 544 1041 554 1058 q 504 1003 533 1024 l 375 911 q 313 931 335 913 q 290 974 290 949 q 296 1001 290 989 q 317 1028 301 1014 l 460 1157 z "},"ś":{"ha":653,"x_min":61,"x_max":600,"o":"m 600 186 q 528 34 600 89 q 317 -21 456 -21 q 213 -12 260 -21 q 133 12 167 -4 q 80 51 99 28 q 61 101 61 74 q 73 147 61 128 q 104 179 85 167 q 194 135 143 154 q 311 115 244 115 q 397 134 368 115 q 426 186 426 153 q 343 261 426 243 l 265 279 q 113 350 163 303 q 64 476 64 397 q 136 623 64 567 q 339 679 208 679 q 431 672 389 679 q 505 649 474 664 q 553 615 536 635 q 571 568 571 594 q 560 524 571 543 q 533 494 549 506 q 501 511 521 503 q 456 526 481 519 q 405 538 432 533 q 351 543 378 543 q 267 526 297 543 q 236 476 236 508 q 253 438 236 453 q 314 413 271 422 l 382 396 q 549 319 497 369 q 600 186 600 268 m 415 1000 q 494 976 467 1000 q 522 924 522 953 q 511 881 522 897 q 474 842 500 865 l 344 725 q 276 747 300 725 q 251 796 251 769 q 258 822 251 811 q 278 849 264 833 l 415 1000 z "},"Ŝ":{"ha":746,"x_min":65,"x_max":693,"o":"m 353 126 q 471 158 433 126 q 508 236 508 189 q 479 305 508 279 q 390 349 450 331 l 301 376 q 206 414 249 393 q 132 463 163 435 q 85 530 101 492 q 68 621 68 568 q 153 799 68 733 q 385 865 238 865 q 492 856 443 865 q 578 831 542 847 q 634 792 614 815 q 654 739 654 768 q 641 691 654 711 q 608 658 628 671 q 520 699 575 682 q 400 717 465 717 q 290 691 328 717 q 253 621 253 665 q 278 565 253 585 q 360 528 304 546 l 439 503 q 626 404 560 467 q 693 235 693 342 q 671 131 693 178 q 606 49 649 83 q 501 -3 564 15 q 357 -22 438 -22 q 240 -11 293 -22 q 147 19 186 0 q 87 63 108 38 q 65 119 65 89 q 84 174 65 151 q 128 208 103 197 q 219 152 163 178 q 353 126 276 126 m 382 1031 q 321 971 354 1003 q 253 908 288 939 q 197 928 219 910 q 175 975 175 947 q 188 1015 175 999 q 225 1054 200 1031 l 286 1110 q 385 1154 340 1154 q 436 1142 414 1154 q 483 1107 458 1131 l 596 986 q 576 931 596 950 q 524 911 556 911 q 483 925 501 911 q 438 968 465 939 l 382 1031 z "},"ŝ":{"ha":653,"x_min":61,"x_max":600,"o":"m 600 186 q 528 34 600 89 q 317 -21 456 -21 q 213 -12 260 -21 q 133 12 167 -4 q 80 51 99 28 q 61 101 61 74 q 73 147 61 128 q 104 179 85 167 q 194 135 143 154 q 311 115 244 115 q 397 134 368 115 q 426 186 426 153 q 343 261 426 243 l 265 279 q 113 350 163 303 q 64 476 64 397 q 136 623 64 567 q 339 679 208 679 q 431 672 389 679 q 505 649 474 664 q 553 615 536 635 q 571 568 571 594 q 560 524 571 543 q 533 494 549 506 q 501 511 521 503 q 456 526 481 519 q 405 538 432 533 q 351 543 378 543 q 267 526 297 543 q 236 476 236 508 q 253 438 236 453 q 314 413 271 422 l 382 396 q 549 319 497 369 q 600 186 600 268 m 322 864 q 261 795 288 824 q 206 732 235 767 q 141 752 165 733 q 117 800 117 771 q 128 838 117 822 q 163 876 140 853 l 228 946 q 272 978 250 967 q 325 990 294 990 q 377 980 354 990 q 428 936 400 969 l 535 806 q 518 756 535 776 q 467 735 501 735 q 427 747 443 735 q 396 778 411 758 l 322 864 z "},"Ş":{"ha":746,"x_min":65,"x_max":693,"o":"m 353 126 q 471 158 433 126 q 508 236 508 189 q 479 305 508 279 q 390 349 450 331 l 301 376 q 206 414 249 393 q 132 463 163 435 q 85 530 101 492 q 68 621 68 568 q 153 799 68 733 q 385 865 238 865 q 492 856 443 865 q 578 831 542 847 q 634 792 614 815 q 654 739 654 768 q 641 691 654 711 q 608 658 628 671 q 520 699 575 682 q 400 717 465 717 q 290 691 328 717 q 253 621 253 665 q 278 565 253 585 q 360 528 304 546 l 439 503 q 626 404 560 467 q 693 235 693 342 q 632 72 693 139 q 453 -14 571 6 q 481 -117 481 -57 q 438 -230 481 -187 q 321 -272 394 -272 q 247 -251 274 -272 q 219 -192 219 -231 q 226 -153 219 -174 l 244 -153 q 311 -132 290 -153 q 332 -78 332 -111 q 328 -51 332 -65 q 317 -21 325 -36 q 215 -6 261 -18 q 135 24 168 6 q 83 67 101 43 q 65 119 65 92 q 84 174 65 151 q 128 208 103 197 q 219 152 163 178 q 353 126 276 126 z "},"ş":{"ha":653,"x_min":61,"x_max":600,"o":"m 600 186 q 554 58 600 108 q 421 -11 508 8 q 451 -117 451 -56 q 408 -230 451 -187 q 292 -272 365 -272 q 217 -251 244 -272 q 190 -192 190 -231 q 197 -153 190 -174 l 215 -153 q 282 -132 261 -153 q 303 -78 303 -111 q 299 -50 303 -65 q 288 -19 296 -35 q 124 17 186 -15 q 61 101 61 49 q 73 147 61 128 q 104 179 85 167 q 194 135 143 154 q 311 115 244 115 q 397 134 368 115 q 426 186 426 153 q 343 261 426 243 l 265 279 q 113 350 163 303 q 64 476 64 397 q 136 623 64 567 q 339 679 208 679 q 431 672 389 679 q 505 649 474 664 q 553 615 536 635 q 571 568 571 594 q 560 524 571 543 q 533 494 549 506 q 501 511 521 503 q 456 526 481 519 q 405 538 432 533 q 351 543 378 543 q 267 526 297 543 q 236 476 236 508 q 253 438 236 453 q 314 413 271 422 l 382 396 q 549 319 497 369 q 600 186 600 268 z "},"Š":{"ha":746,"x_min":65,"x_max":693,"o":"m 353 126 q 471 158 433 126 q 508 236 508 189 q 479 305 508 279 q 390 349 450 331 l 301 376 q 206 414 249 393 q 132 463 163 435 q 85 530 101 492 q 68 621 68 568 q 153 799 68 733 q 385 865 238 865 q 492 856 443 865 q 578 831 542 847 q 634 792 614 815 q 654 739 654 768 q 641 691 654 711 q 608 658 628 671 q 520 699 575 682 q 400 717 465 717 q 290 691 328 717 q 253 621 253 665 q 278 565 253 585 q 360 528 304 546 l 439 503 q 626 404 560 467 q 693 235 693 342 q 671 131 693 178 q 606 49 649 83 q 501 -3 564 15 q 357 -22 438 -22 q 240 -11 293 -22 q 147 19 186 0 q 87 63 108 38 q 65 119 65 89 q 84 174 65 151 q 128 208 103 197 q 219 152 163 178 q 353 126 276 126 m 506 1154 q 565 1134 542 1153 q 589 1086 589 1115 q 576 1047 589 1063 q 536 1007 563 1031 l 476 951 q 427 919 449 928 q 379 910 406 910 q 324 922 347 910 q 278 956 300 933 l 163 1068 q 181 1129 163 1108 q 233 1150 200 1150 q 275 1138 256 1150 q 324 1094 294 1126 l 379 1031 l 506 1154 z "},"š":{"ha":653,"x_min":61,"x_max":600,"o":"m 600 186 q 528 34 600 89 q 317 -21 456 -21 q 213 -12 260 -21 q 133 12 167 -4 q 80 51 99 28 q 61 101 61 74 q 73 147 61 128 q 104 179 85 167 q 194 135 143 154 q 311 115 244 115 q 397 134 368 115 q 426 186 426 153 q 343 261 426 243 l 265 279 q 113 350 163 303 q 64 476 64 397 q 136 623 64 567 q 339 679 208 679 q 431 672 389 679 q 505 649 474 664 q 553 615 536 635 q 571 568 571 594 q 560 524 571 543 q 533 494 549 506 q 501 511 521 503 q 456 526 481 519 q 405 538 432 533 q 351 543 378 543 q 267 526 297 543 q 236 476 236 508 q 253 438 236 453 q 314 413 271 422 l 382 396 q 549 319 497 369 q 600 186 600 268 m 322 863 l 447 988 q 512 967 488 986 q 536 917 536 947 q 523 878 536 894 q 485 839 510 863 l 411 769 q 325 733 371 733 q 273 744 296 733 q 215 788 250 754 l 106 896 q 104 908 104 901 q 121 960 104 936 q 172 985 138 985 q 212 975 194 985 q 257 935 229 965 l 322 863 z "},"Ț":{"ha":750,"x_min":29,"x_max":719,"o":"m 700 843 q 713 813 707 832 q 719 772 719 794 q 702 715 719 735 q 654 696 685 696 l 463 696 l 463 1 q 428 -6 451 -1 q 379 -10 404 -10 q 304 10 326 -10 q 282 75 282 29 l 282 696 l 49 696 q 35 726 42 708 q 29 767 29 744 q 47 824 29 806 q 94 843 64 843 l 700 843 m 388 -294 q 349 -322 369 -314 q 306 -331 329 -331 q 239 -306 264 -331 q 278 -199 264 -253 q 300 -99 293 -146 q 339 -85 318 -90 q 382 -79 360 -79 q 437 -92 415 -79 q 458 -136 458 -106 q 452 -175 458 -153 q 435 -219 446 -197 q 413 -262 425 -242 q 388 -294 400 -282 z "},"ț":{"ha":535,"x_min":90,"x_max":486,"o":"m 264 204 q 291 140 264 160 q 367 121 318 121 q 415 126 390 121 q 458 140 439 132 q 477 113 469 129 q 485 76 485 97 q 447 8 485 35 q 326 -19 410 -19 q 153 30 217 -19 q 90 193 90 79 l 90 831 q 123 838 101 833 q 169 842 144 842 q 241 824 218 842 q 264 760 264 806 l 264 644 l 468 644 q 481 615 475 633 q 486 576 486 597 q 469 524 486 540 q 425 507 453 507 l 264 507 l 264 204 m 306 -294 q 267 -322 288 -314 q 224 -331 247 -331 q 157 -306 182 -331 q 197 -199 182 -253 q 218 -99 211 -146 q 257 -85 236 -90 q 300 -79 278 -79 q 355 -92 333 -79 q 376 -136 376 -106 q 370 -175 376 -153 q 353 -219 364 -197 q 331 -262 343 -242 q 306 -294 318 -282 z "},"Ť":{"ha":750,"x_min":29,"x_max":719,"o":"m 700 843 q 713 813 707 832 q 719 772 719 794 q 702 715 719 735 q 654 696 685 696 l 463 696 l 463 1 q 428 -6 451 -1 q 379 -10 404 -10 q 304 10 326 -10 q 282 75 282 29 l 282 696 l 49 696 q 35 726 42 708 q 29 767 29 744 q 47 824 29 806 q 94 843 64 843 l 700 843 m 506 1154 q 565 1134 542 1153 q 589 1086 589 1115 q 576 1047 589 1063 q 536 1007 563 1031 l 476 951 q 427 919 449 928 q 379 910 406 910 q 324 922 347 910 q 278 956 300 933 l 163 1068 q 181 1129 163 1108 q 233 1150 200 1150 q 275 1138 256 1150 q 324 1094 294 1126 l 379 1031 l 506 1154 z "},"ť":{"ha":724,"x_min":90,"x_max":744,"o":"m 264 204 q 291 140 264 160 q 367 121 318 121 q 415 126 390 121 q 458 140 439 132 q 477 113 469 129 q 485 76 485 97 q 447 8 485 35 q 326 -19 410 -19 q 153 30 217 -19 q 90 193 90 79 l 90 831 q 123 838 101 833 q 169 842 144 842 q 241 824 218 842 q 264 760 264 806 l 264 644 l 468 644 q 481 615 475 633 q 486 576 486 597 q 469 524 486 540 q 425 507 453 507 l 264 507 l 264 204 m 674 700 q 635 672 656 681 q 592 664 615 664 q 525 690 549 664 q 564 796 549 743 q 586 896 579 849 q 624 911 603 906 q 668 917 646 917 q 723 903 701 917 q 744 858 744 889 q 738 819 744 842 q 722 776 732 797 q 699 734 711 754 q 674 700 686 714 z "},"Ũ":{"ha":913,"x_min":104,"x_max":808,"o":"m 456 -22 q 307 1 372 -22 q 197 66 242 24 q 128 167 151 108 q 104 300 104 226 l 104 843 q 140 850 115 846 q 188 854 164 854 q 260 836 238 854 q 283 769 283 818 l 283 307 q 332 173 283 219 q 456 126 381 126 q 579 173 531 126 q 628 307 628 219 l 628 843 q 664 850 640 846 q 711 854 688 854 q 785 836 761 854 q 808 769 808 818 l 808 300 q 785 167 808 226 q 715 66 761 108 q 604 1 669 24 q 456 -22 539 -22 m 344 1132 q 400 1125 374 1132 q 450 1110 426 1118 q 494 1096 474 1103 q 532 1089 515 1089 q 574 1105 560 1089 q 594 1139 588 1121 l 601 1139 q 663 1117 636 1139 q 689 1056 689 1096 q 656 978 689 1006 q 569 951 622 951 q 510 958 538 951 q 460 974 483 965 q 416 989 436 982 q 379 996 396 996 q 338 980 351 996 q 317 944 324 964 l 311 944 q 249 966 275 944 q 224 1028 224 988 q 234 1074 224 1054 q 262 1106 244 1093 q 301 1126 279 1119 q 344 1132 322 1132 z "},"ũ":{"ha":788,"x_min":88,"x_max":699,"o":"m 699 129 q 688 76 699 97 q 647 38 676 54 q 545 -4 607 13 q 404 -21 483 -21 q 274 -5 332 -21 q 174 44 215 11 q 110 129 132 78 q 88 251 88 181 l 88 656 q 120 663 99 660 q 168 667 142 667 q 240 649 217 667 q 264 585 264 632 l 264 254 q 301 151 264 182 q 406 119 338 119 q 478 128 449 119 q 524 146 508 136 l 524 656 q 556 663 535 660 q 603 667 578 667 q 676 649 653 667 q 699 585 699 632 l 699 129 m 279 950 q 335 943 308 950 q 385 928 361 936 q 429 914 408 921 q 467 907 450 907 q 508 923 494 907 q 529 957 522 939 l 536 957 q 597 935 571 957 q 624 874 624 914 q 590 797 624 824 q 504 769 557 769 q 445 776 472 769 q 394 792 418 783 q 351 807 371 800 q 314 814 331 814 q 272 798 286 814 q 251 763 258 782 l 246 763 q 184 784 210 763 q 158 846 158 806 q 169 892 158 872 q 197 924 179 911 q 235 944 214 938 q 279 950 257 950 z "},"Ū":{"ha":913,"x_min":104,"x_max":808,"o":"m 456 -22 q 307 1 372 -22 q 197 66 242 24 q 128 167 151 108 q 104 300 104 226 l 104 843 q 140 850 115 846 q 188 854 164 854 q 260 836 238 854 q 283 769 283 818 l 283 307 q 332 173 283 219 q 456 126 381 126 q 579 173 531 126 q 628 307 628 219 l 628 843 q 664 850 640 846 q 711 854 688 854 q 785 836 761 854 q 808 769 808 818 l 808 300 q 785 167 808 226 q 715 66 761 108 q 604 1 669 24 q 456 -22 539 -22 m 257 961 q 244 990 250 972 q 238 1026 238 1007 q 254 1081 238 1065 q 299 1096 271 1096 l 642 1096 q 660 1031 660 1071 q 644 977 660 993 q 600 961 628 961 l 257 961 z "},"ū":{"ha":786,"x_min":88,"x_max":699,"o":"m 699 129 q 688 76 699 97 q 647 38 676 54 q 545 -4 607 13 q 404 -21 483 -21 q 274 -5 332 -21 q 174 44 215 11 q 110 129 132 78 q 88 251 88 181 l 88 656 q 120 663 99 660 q 168 667 142 667 q 240 649 217 667 q 264 585 264 632 l 264 254 q 301 151 264 182 q 406 119 338 119 q 478 128 449 119 q 524 146 508 136 l 524 656 q 556 663 535 660 q 603 667 578 667 q 676 649 653 667 q 699 585 699 632 l 699 129 m 206 788 q 192 816 199 799 q 186 853 186 833 q 203 907 186 892 q 247 922 219 922 l 590 922 q 608 857 608 897 q 592 803 608 819 q 549 788 576 788 l 206 788 z "},"Ŭ":{"ha":913,"x_min":104,"x_max":808,"o":"m 456 -22 q 307 1 372 -22 q 197 66 242 24 q 128 167 151 108 q 104 300 104 226 l 104 843 q 140 850 115 846 q 188 854 164 854 q 260 836 238 854 q 283 769 283 818 l 283 307 q 332 173 283 219 q 456 126 381 126 q 579 173 531 126 q 628 307 628 219 l 628 843 q 664 850 640 846 q 711 854 688 854 q 785 836 761 854 q 808 769 808 818 l 808 300 q 785 167 808 226 q 715 66 761 108 q 604 1 669 24 q 456 -22 539 -22 m 453 1044 q 523 1067 496 1044 q 558 1125 550 1089 q 570 1127 565 1126 q 582 1128 575 1128 q 642 1105 622 1128 q 663 1050 663 1082 q 649 999 663 1024 q 608 956 635 975 q 543 926 582 938 q 453 915 504 915 q 361 926 400 915 q 295 956 322 938 q 255 999 268 975 q 242 1050 242 1024 q 262 1105 242 1082 q 322 1128 282 1128 q 335 1127 329 1128 q 347 1125 340 1126 q 381 1067 354 1089 q 453 1044 408 1044 z "},"ŭ":{"ha":788,"x_min":88,"x_max":699,"o":"m 699 129 q 688 76 699 97 q 647 38 676 54 q 545 -4 607 13 q 404 -21 483 -21 q 274 -5 332 -21 q 174 44 215 11 q 110 129 132 78 q 88 251 88 181 l 88 656 q 120 663 99 660 q 168 667 142 667 q 240 649 217 667 q 264 585 264 632 l 264 254 q 301 151 264 182 q 406 119 338 119 q 478 128 449 119 q 524 146 508 136 l 524 656 q 556 663 535 660 q 603 667 578 667 q 676 649 653 667 q 699 585 699 632 l 699 129 m 394 889 q 465 911 438 889 q 500 969 492 933 q 512 972 507 971 q 524 972 517 972 q 584 949 564 972 q 604 894 604 926 q 590 844 604 868 q 550 801 576 819 q 485 771 524 782 q 394 760 446 760 q 303 771 342 760 q 237 801 264 782 q 197 844 210 819 q 183 894 183 868 q 203 949 183 926 q 264 972 224 972 q 276 972 271 972 q 289 969 282 971 q 323 911 296 933 q 394 889 350 889 z "},"Ů":{"ha":913,"x_min":104,"x_max":808,"o":"m 456 -22 q 307 1 372 -22 q 197 66 242 24 q 128 167 151 108 q 104 300 104 226 l 104 843 q 140 850 115 846 q 188 854 164 854 q 260 836 238 854 q 283 769 283 818 l 283 307 q 332 173 283 219 q 456 126 381 126 q 579 173 531 126 q 628 307 628 219 l 628 843 q 664 850 640 846 q 711 854 688 854 q 785 836 761 854 q 808 769 808 818 l 808 300 q 785 167 808 226 q 715 66 761 108 q 604 1 669 24 q 456 -22 539 -22 m 293 1040 q 338 1140 293 1100 q 460 1179 382 1179 q 584 1140 539 1179 q 629 1040 629 1100 q 584 942 629 982 q 460 903 539 903 q 338 942 382 903 q 293 1040 293 982 m 406 1040 q 421 1003 406 1017 q 460 990 436 990 q 499 1003 483 990 q 515 1040 515 1017 q 499 1077 515 1064 q 460 1090 483 1090 q 421 1077 436 1090 q 406 1040 406 1064 z "},"ů":{"ha":786,"x_min":88,"x_max":699,"o":"m 699 129 q 688 76 699 97 q 647 38 676 54 q 545 -4 607 13 q 404 -21 483 -21 q 274 -5 332 -21 q 174 44 215 11 q 110 129 132 78 q 88 251 88 181 l 88 656 q 120 663 99 660 q 168 667 142 667 q 240 649 217 667 q 264 585 264 632 l 264 254 q 301 151 264 182 q 406 119 338 119 q 478 128 449 119 q 524 146 508 136 l 524 656 q 556 663 535 660 q 603 667 578 667 q 676 649 653 667 q 699 585 699 632 l 699 129 m 224 871 q 267 972 224 931 q 388 1014 310 1014 q 511 972 467 1014 q 556 871 556 931 q 511 770 556 811 q 388 729 467 729 q 267 770 310 729 q 224 871 224 811 m 335 871 q 350 830 335 844 q 389 815 365 815 q 428 830 413 815 q 444 871 444 844 q 428 912 444 897 q 389 926 413 926 q 350 912 365 926 q 335 871 335 897 z "},"Ű":{"ha":913,"x_min":104,"x_max":808,"o":"m 456 -22 q 307 1 372 -22 q 197 66 242 24 q 128 167 151 108 q 104 300 104 226 l 104 843 q 140 850 115 846 q 188 854 164 854 q 260 836 238 854 q 283 769 283 818 l 283 307 q 332 173 283 219 q 456 126 381 126 q 579 173 531 126 q 628 307 628 219 l 628 843 q 664 850 640 846 q 711 854 688 854 q 785 836 761 854 q 808 769 808 818 l 808 300 q 785 167 808 226 q 715 66 761 108 q 604 1 669 24 q 456 -22 539 -22 m 344 1156 q 422 1133 396 1156 q 447 1082 447 1111 q 435 1040 447 1057 q 400 996 424 1022 l 324 911 q 256 931 279 911 q 232 978 232 951 q 237 1006 232 993 q 254 1035 242 1018 l 344 1156 m 613 1156 q 691 1133 665 1156 q 717 1082 717 1111 q 705 1040 717 1057 q 669 996 693 1022 l 592 911 q 524 931 547 911 q 500 978 500 951 q 506 1006 500 993 q 524 1035 511 1018 l 613 1156 z "},"ű":{"ha":786,"x_min":88,"x_max":699,"o":"m 699 129 q 688 76 699 97 q 647 38 676 54 q 545 -4 607 13 q 404 -21 483 -21 q 274 -5 332 -21 q 174 44 215 11 q 110 129 132 78 q 88 251 88 181 l 88 656 q 120 663 99 660 q 168 667 142 667 q 240 649 217 667 q 264 585 264 632 l 264 254 q 301 151 264 182 q 406 119 338 119 q 478 128 449 119 q 524 146 508 136 l 524 656 q 556 663 535 660 q 603 667 578 667 q 676 649 653 667 q 699 585 699 632 l 699 129 m 301 1000 q 380 978 353 1000 q 407 925 407 956 q 394 885 407 901 q 360 842 382 868 l 258 725 q 189 747 214 725 q 164 794 164 768 q 169 822 164 810 q 188 849 175 833 l 301 1000 m 576 1000 q 656 978 629 1000 q 683 925 683 956 q 671 885 683 901 q 635 842 658 868 l 533 725 q 465 747 489 725 q 440 794 440 768 q 445 822 440 810 q 463 849 450 833 l 576 1000 z "},"Ų":{"ha":913,"x_min":104,"x_max":808,"o":"m 808 300 q 736 86 808 169 q 531 -17 664 3 q 513 -44 519 -29 q 506 -79 506 -60 q 527 -128 506 -111 q 588 -146 549 -146 l 600 -146 q 607 -168 604 -157 q 610 -192 610 -179 q 588 -247 610 -224 q 508 -269 567 -269 q 392 -233 439 -269 q 346 -129 346 -196 q 358 -65 346 -93 q 390 -18 371 -37 q 178 83 253 -1 q 104 300 104 168 l 104 843 q 140 850 115 846 q 188 854 164 854 q 260 836 238 854 q 283 769 283 818 l 283 307 q 332 173 283 219 q 456 126 381 126 q 579 173 531 126 q 628 307 628 219 l 628 843 q 664 850 640 846 q 711 854 688 854 q 785 836 761 854 q 808 769 808 818 l 808 300 l 808 300 z "},"ų":{"ha":786,"x_min":88,"x_max":699,"o":"m 699 129 q 651 40 699 72 q 599 -12 621 15 q 578 -79 578 -39 q 599 -128 578 -111 q 660 -146 621 -146 l 674 -146 q 681 -168 678 -157 q 683 -192 683 -179 q 661 -247 683 -224 q 582 -269 639 -269 q 466 -233 513 -269 q 419 -129 419 -196 q 434 -62 419 -90 q 469 -15 449 -35 q 438 -19 454 -18 q 404 -21 421 -21 q 274 -5 332 -21 q 174 44 215 11 q 110 129 132 78 q 88 251 88 181 l 88 656 q 120 663 99 660 q 168 667 142 667 q 240 649 217 667 q 264 585 264 632 l 264 254 q 301 151 264 182 q 406 119 338 119 q 478 128 449 119 q 524 146 508 136 l 524 656 q 556 663 535 660 q 603 667 578 667 q 676 649 653 667 q 699 585 699 632 l 699 129 l 699 129 z "},"Ŵ":{"ha":1156,"x_min":42,"x_max":1104,"o":"m 486 636 q 524 649 500 643 q 575 656 549 656 q 648 642 619 656 q 683 603 676 629 q 722 479 704 536 q 756 369 739 422 q 788 263 772 315 q 818 156 803 211 l 824 156 q 854 328 840 244 q 882 493 868 411 q 908 658 896 575 q 932 831 919 742 q 1011 850 968 850 q 1077 833 1050 850 q 1104 776 1104 815 q 1097 693 1104 749 q 1078 568 1090 638 q 1051 420 1067 499 q 1017 267 1035 342 q 983 129 1000 193 q 949 25 965 65 q 899 1 932 11 q 828 -8 865 -8 q 745 6 779 -8 q 704 44 711 21 q 677 120 692 76 q 647 215 663 164 q 614 323 631 267 q 582 438 597 379 q 551 322 567 381 q 519 208 535 263 q 489 105 504 153 q 461 24 474 57 q 415 1 446 11 q 346 -8 383 -8 q 263 6 299 -8 q 215 44 226 21 q 188 124 204 72 q 156 241 172 175 q 122 383 139 307 q 90 535 106 460 q 62 683 75 611 q 42 813 49 754 q 82 838 57 826 q 139 850 107 850 q 202 832 178 850 q 233 774 226 814 q 269 570 254 658 q 298 410 285 482 q 323 276 311 338 q 347 156 335 215 l 354 156 q 384 267 369 215 q 414 372 399 318 q 447 490 429 426 q 486 636 464 553 m 579 1025 q 518 956 544 985 q 463 893 492 928 q 398 913 422 894 q 374 961 374 932 q 385 999 374 983 q 419 1038 397 1014 l 485 1107 q 529 1140 507 1128 q 582 1151 551 1151 q 634 1141 611 1151 q 685 1097 657 1131 l 792 967 q 775 917 792 938 q 724 896 758 896 q 684 908 700 896 q 653 939 668 919 l 579 1025 z "},"ŵ":{"ha":1046,"x_min":36,"x_max":1004,"o":"m 526 426 q 494 311 511 369 q 459 198 476 253 q 426 96 442 143 q 399 15 410 49 q 360 -3 383 4 q 300 -11 336 -11 q 230 1 260 -11 q 189 36 200 13 q 151 142 172 69 q 108 302 131 215 q 67 478 86 389 q 36 635 49 568 q 74 660 50 649 q 128 672 99 672 q 189 653 167 672 q 218 593 211 635 q 268 310 244 426 q 301 153 292 194 l 307 153 q 326 222 313 176 q 356 328 339 268 q 394 456 374 388 q 435 593 414 524 q 476 610 454 604 q 526 617 497 617 q 590 604 564 617 q 624 567 615 592 q 663 436 644 500 q 697 317 682 372 q 724 219 713 263 q 743 153 736 176 l 750 153 q 799 393 774 268 q 843 651 825 518 q 881 667 860 661 q 922 672 901 672 q 981 656 958 672 q 1004 601 1004 639 q 996 538 1004 582 q 974 438 988 494 q 945 319 961 382 q 913 197 929 256 q 881 90 896 138 q 854 15 865 42 q 812 -3 840 4 q 750 -11 783 -11 q 646 32 663 -11 q 619 107 635 63 q 588 204 604 151 q 556 314 572 257 q 526 426 540 371 m 525 864 q 464 795 490 824 q 408 732 438 767 q 344 752 368 733 q 319 800 319 771 q 331 838 319 822 q 365 876 343 853 l 431 946 q 475 978 453 967 q 528 990 497 990 q 580 980 557 990 q 631 936 603 969 l 738 806 q 721 756 738 776 q 669 735 704 735 q 630 747 646 735 q 599 778 614 758 l 525 864 z "},"Ŷ":{"ha":781,"x_min":18,"x_max":754,"o":"m 754 774 q 739 723 754 758 q 692 629 724 688 q 610 488 660 571 q 489 294 560 404 l 489 1 q 455 -6 478 -1 q 407 -10 432 -10 q 333 10 354 -10 q 313 74 313 29 l 313 293 q 233 413 275 347 q 151 544 192 478 q 76 676 111 611 q 18 793 42 740 q 53 831 29 814 q 113 849 76 849 q 177 831 153 849 q 225 768 201 813 q 260 703 236 749 q 312 608 285 658 q 363 514 339 558 q 397 453 388 469 l 404 453 q 454 551 431 504 q 500 642 478 597 q 544 734 522 688 q 589 831 565 781 q 627 844 606 840 q 668 849 649 849 q 730 829 706 849 q 754 774 754 810 m 396 1031 q 335 971 368 1003 q 267 908 301 939 q 211 928 233 910 q 189 975 189 947 q 201 1015 189 999 q 239 1054 214 1031 l 300 1110 q 399 1154 354 1154 q 450 1142 428 1154 q 497 1107 472 1131 l 610 986 q 590 931 610 950 q 538 911 569 911 q 497 925 515 911 q 451 968 479 939 l 396 1031 z "},"ŷ":{"ha":724,"x_min":35,"x_max":683,"o":"m 206 158 q 126 346 172 228 q 35 632 81 464 q 74 660 49 649 q 128 672 99 672 q 187 656 164 672 q 224 596 210 639 q 372 171 289 386 l 378 171 q 416 275 396 217 q 455 397 436 333 q 490 526 474 461 q 519 653 507 592 q 555 667 536 661 q 594 672 574 672 q 657 656 631 672 q 683 601 683 639 q 665 484 683 560 q 617 322 647 408 q 550 147 588 235 q 475 -8 513 58 q 344 -199 403 -136 q 228 -262 285 -262 q 156 -237 183 -262 q 122 -172 129 -211 q 169 -127 144 -153 q 219 -72 194 -101 q 267 -12 244 -43 q 306 47 289 18 q 281 58 293 51 q 258 76 269 64 q 233 108 246 89 q 206 158 219 128 m 369 864 q 308 795 335 824 q 253 732 282 767 q 188 752 213 733 q 164 800 164 771 q 176 838 164 822 q 210 876 188 853 l 275 946 q 319 978 297 967 q 372 990 342 990 q 424 980 401 990 q 475 936 447 969 l 582 806 q 565 756 582 776 q 514 735 549 735 q 474 747 490 735 q 443 778 458 758 l 369 864 z "},"Ÿ":{"ha":781,"x_min":18,"x_max":754,"o":"m 754 774 q 739 723 754 758 q 692 629 724 688 q 610 488 660 571 q 489 294 560 404 l 489 1 q 455 -6 478 -1 q 407 -10 432 -10 q 333 10 354 -10 q 313 74 313 29 l 313 293 q 233 413 275 347 q 151 544 192 478 q 76 676 111 611 q 18 793 42 740 q 53 831 29 814 q 113 849 76 849 q 177 831 153 849 q 225 768 201 813 q 260 703 236 749 q 312 608 285 658 q 363 514 339 558 q 397 453 388 469 l 404 453 q 454 551 431 504 q 500 642 478 597 q 544 734 522 688 q 589 831 565 781 q 627 844 606 840 q 668 849 649 849 q 730 829 706 849 q 754 774 754 810 m 354 1025 q 327 961 354 988 q 260 935 300 935 q 192 961 218 935 q 167 1025 167 988 q 192 1090 167 1064 q 260 1117 218 1117 q 327 1090 300 1117 q 354 1025 354 1064 m 624 1025 q 597 961 624 988 q 531 935 571 935 q 463 961 490 935 q 436 1025 436 988 q 463 1090 436 1064 q 531 1117 490 1117 q 597 1090 571 1117 q 624 1025 624 1064 z "},"Ź":{"ha":776,"x_min":58,"x_max":722,"o":"m 99 0 q 69 39 81 15 q 58 92 58 63 q 72 146 58 119 q 104 197 85 172 l 493 696 l 89 696 q 76 726 82 708 q 69 768 69 744 q 87 826 69 807 q 136 846 104 846 l 668 846 q 713 751 713 808 q 701 699 713 724 q 669 649 689 674 l 279 149 l 701 149 q 715 118 708 136 q 722 76 722 100 q 705 19 722 38 q 657 0 688 0 l 99 0 m 496 1157 q 565 1135 540 1157 q 590 1082 590 1114 q 580 1041 590 1058 q 540 1003 569 1024 l 411 911 q 349 931 371 913 q 326 974 326 949 q 332 1001 326 989 q 353 1028 338 1014 l 496 1157 z "},"ź":{"ha":660,"x_min":54,"x_max":613,"o":"m 90 0 q 64 35 74 15 q 54 78 54 54 q 65 122 54 101 q 90 161 75 142 l 385 519 l 79 519 q 67 549 72 531 q 61 589 61 568 q 78 642 61 625 q 122 658 94 658 l 564 658 q 590 624 581 643 q 600 579 600 604 q 590 537 600 557 q 564 497 579 517 l 271 138 l 594 138 q 607 108 601 126 q 613 69 613 90 q 596 17 613 33 q 551 0 579 0 l 90 0 m 433 1000 q 513 976 485 1000 q 540 924 540 953 q 529 881 540 897 q 492 842 518 865 l 363 725 q 294 747 318 725 q 269 796 269 769 q 276 822 269 811 q 296 849 282 833 l 433 1000 z "},"Ż":{"ha":776,"x_min":58,"x_max":722,"o":"m 99 0 q 69 39 81 15 q 58 92 58 63 q 72 146 58 119 q 104 197 85 172 l 493 696 l 89 696 q 76 726 82 708 q 69 768 69 744 q 87 826 69 807 q 136 846 104 846 l 668 846 q 713 751 713 808 q 701 699 713 724 q 669 649 689 674 l 279 149 l 701 149 q 715 118 708 136 q 722 76 722 100 q 705 19 722 38 q 657 0 688 0 l 99 0 m 493 1036 q 466 968 493 996 q 394 940 439 940 q 323 968 350 940 q 296 1036 296 996 q 323 1105 296 1078 q 394 1132 350 1132 q 466 1105 439 1132 q 493 1036 493 1078 z "},"ż":{"ha":660,"x_min":54,"x_max":613,"o":"m 90 0 q 64 35 74 15 q 54 78 54 54 q 65 122 54 101 q 90 161 75 142 l 385 519 l 79 519 q 67 549 72 531 q 61 589 61 568 q 78 642 61 625 q 122 658 94 658 l 564 658 q 590 624 581 643 q 600 579 600 604 q 590 537 600 557 q 564 497 579 517 l 271 138 l 594 138 q 607 108 601 126 q 613 69 613 90 q 596 17 613 33 q 551 0 579 0 l 90 0 m 431 861 q 403 793 431 821 q 332 765 376 765 q 260 793 288 765 q 233 861 233 821 q 260 930 233 903 q 332 957 288 957 q 403 930 376 957 q 431 861 431 903 z "},"Ž":{"ha":776,"x_min":58,"x_max":722,"o":"m 99 0 q 69 39 81 15 q 58 92 58 63 q 72 146 58 119 q 104 197 85 172 l 493 696 l 89 696 q 76 726 82 708 q 69 768 69 744 q 87 826 69 807 q 136 846 104 846 l 668 846 q 713 751 713 808 q 701 699 713 724 q 669 649 689 674 l 279 149 l 701 149 q 715 118 708 136 q 722 76 722 100 q 705 19 722 38 q 657 0 688 0 l 99 0 m 531 1154 q 590 1134 567 1153 q 614 1086 614 1115 q 601 1047 614 1063 q 561 1007 588 1031 l 501 951 q 452 919 474 928 q 404 910 431 910 q 349 922 372 910 q 303 956 325 933 l 188 1068 q 206 1129 188 1108 q 258 1150 225 1150 q 300 1138 281 1150 q 349 1094 319 1126 l 404 1031 l 531 1154 z "},"ž":{"ha":660,"x_min":54,"x_max":613,"o":"m 90 0 q 64 35 74 15 q 54 78 54 54 q 65 122 54 101 q 90 161 75 142 l 385 519 l 79 519 q 67 549 72 531 q 61 589 61 568 q 78 642 61 625 q 122 658 94 658 l 564 658 q 590 624 581 643 q 600 579 600 604 q 590 537 600 557 q 564 497 579 517 l 271 138 l 594 138 q 607 108 601 126 q 613 69 613 90 q 596 17 613 33 q 551 0 579 0 l 90 0 m 332 863 l 457 988 q 522 967 497 986 q 546 917 546 947 q 533 878 546 894 q 494 839 519 863 l 421 769 q 335 733 381 733 q 283 744 306 733 q 225 788 260 754 l 115 896 q 114 908 114 901 q 131 960 114 936 q 182 985 147 985 q 222 975 204 985 q 267 935 239 965 l 332 863 z "},"Ə":{"ha":913,"x_min":54,"x_max":851,"o":"m 54 343 q 81 413 54 390 q 151 443 107 436 l 657 522 q 560 668 629 621 q 400 715 492 715 q 260 688 321 715 q 160 626 199 660 q 119 661 135 642 q 104 710 104 681 q 122 763 104 740 q 164 801 139 786 q 270 845 206 828 q 414 863 335 863 q 581 835 501 863 q 720 751 660 807 q 816 608 781 694 q 851 406 851 522 q 822 222 851 301 q 740 88 793 142 q 613 6 688 33 q 449 -22 539 -22 q 279 8 353 -22 q 156 88 206 38 q 80 203 106 138 q 54 343 54 269 m 446 125 q 619 192 564 125 q 676 385 675 258 l 235 315 q 253 243 238 278 q 297 182 269 208 q 361 140 324 156 q 446 125 399 125 z "},"ƒ":{"ha":724,"x_min":-12,"x_max":718,"o":"m 413 457 l 378 110 q 303 -71 365 -15 q 142 -126 242 -126 q 27 -103 67 -126 q -12 -32 -12 -79 q -4 8 -12 -10 q 15 35 4 25 q 55 21 33 26 q 108 15 76 15 q 174 39 153 15 q 203 119 196 63 l 260 679 q 349 869 274 808 q 540 929 425 929 q 718 833 718 929 q 709 794 718 811 q 689 767 700 776 q 634 782 663 775 q 565 789 606 789 q 471 760 503 789 q 432 671 439 732 l 422 593 l 644 593 q 658 565 651 582 q 664 526 664 547 q 647 474 664 490 q 601 457 629 457 l 413 457 z "},"Ơ":{"ha":1018,"x_min":61,"x_max":1015,"o":"m 906 422 q 874 231 906 314 q 785 91 842 147 q 651 6 729 35 q 483 -22 574 -22 q 315 6 393 -22 q 181 91 238 35 q 93 231 125 147 q 61 422 61 314 q 94 613 61 531 q 183 752 126 696 q 317 837 240 808 q 483 865 394 865 q 662 831 579 865 q 803 731 744 797 q 850 771 832 742 q 868 853 868 800 l 868 900 q 899 912 883 907 q 936 917 914 917 q 992 900 968 917 q 1015 844 1015 883 l 1015 832 q 974 693 1015 746 q 869 621 932 640 q 896 528 886 578 q 906 422 906 479 m 721 422 q 656 642 721 567 q 483 718 592 718 q 312 643 376 718 q 247 422 247 568 q 311 201 247 276 q 483 126 375 126 q 656 201 592 126 q 721 422 721 276 z "},"ơ":{"ha":858,"x_min":60,"x_max":847,"o":"m 740 329 q 716 184 740 249 q 647 74 692 119 q 540 3 603 28 q 400 -21 478 -21 q 260 3 322 -21 q 153 73 197 28 q 84 183 108 118 q 60 329 60 247 q 84 474 60 410 q 153 584 108 539 q 261 653 199 629 q 400 678 324 678 q 547 650 481 678 q 657 572 613 622 q 688 614 676 588 q 700 682 700 640 l 700 729 q 731 741 715 736 q 768 746 746 746 q 824 729 800 746 q 847 674 847 713 l 847 661 q 811 531 847 582 q 721 457 775 481 q 740 329 740 396 m 400 539 q 282 484 325 539 q 239 329 239 429 q 281 174 239 228 q 400 119 324 119 q 519 174 476 119 q 561 329 561 229 q 518 484 561 429 q 400 539 475 539 z "},"Ư":{"ha":1008,"x_min":101,"x_max":1036,"o":"m 806 611 l 806 300 q 782 167 806 226 q 713 66 758 108 q 601 1 667 24 q 453 -22 536 -22 q 304 1 369 -22 q 194 66 239 24 q 125 167 149 108 q 101 300 101 226 l 101 843 q 137 850 113 846 q 185 854 161 854 q 258 836 235 854 q 281 769 281 818 l 281 307 q 329 173 281 219 q 453 126 378 126 q 576 173 528 126 q 625 307 625 219 l 625 843 q 661 850 638 846 q 708 854 685 854 q 782 836 758 854 q 806 769 806 818 l 806 725 q 865 762 842 732 q 889 853 889 792 l 889 900 q 919 912 904 907 q 957 917 935 917 q 1013 900 989 917 q 1036 844 1036 883 l 1036 832 q 1018 736 1036 778 q 969 667 1000 694 q 900 625 939 639 q 818 611 861 611 l 806 611 z "},"ư":{"ha":915,"x_min":88,"x_max":914,"o":"m 699 129 q 688 76 699 97 q 647 38 676 54 q 545 -4 607 13 q 404 -21 483 -21 q 274 -5 332 -21 q 174 44 215 11 q 110 129 132 78 q 88 251 88 181 l 88 656 q 120 663 99 660 q 168 667 142 667 q 240 649 217 667 q 264 585 264 632 l 264 254 q 301 151 264 182 q 406 119 338 119 q 478 128 449 119 q 524 146 508 136 l 524 656 q 556 663 535 660 q 603 667 578 667 q 676 649 653 667 q 699 585 699 632 l 699 558 q 748 599 729 569 q 767 682 767 628 l 767 729 q 797 741 782 736 q 835 746 813 746 q 890 729 867 746 q 914 674 914 713 l 914 661 q 896 566 914 607 q 848 497 878 525 q 779 455 818 469 q 699 440 740 440 l 699 129 l 699 129 z "},"Ǧ":{"ha":906,"x_min":61,"x_max":824,"o":"m 824 117 q 809 63 824 82 q 763 28 794 44 q 717 8 744 17 q 658 -8 690 -1 q 590 -18 625 -14 q 521 -22 556 -22 q 338 3 422 -22 q 192 83 254 29 q 96 221 131 138 q 61 419 61 304 q 97 613 61 529 q 194 753 132 697 q 338 837 256 808 q 514 865 419 865 q 627 855 576 865 q 715 827 678 844 q 771 785 751 810 q 790 735 790 761 q 775 686 790 707 q 740 654 760 665 q 653 698 704 678 q 526 718 601 718 q 414 698 465 718 q 326 640 363 678 q 268 547 289 603 q 247 421 247 492 q 268 289 247 344 q 326 197 289 233 q 413 142 363 160 q 524 125 464 125 q 597 132 564 125 q 649 149 631 139 l 649 342 l 471 342 q 458 371 464 353 q 453 411 453 389 q 470 465 453 447 q 515 483 488 483 l 749 483 q 803 464 783 483 q 824 410 824 444 l 824 117 m 618 1154 q 678 1134 654 1153 q 701 1086 701 1115 q 688 1047 701 1063 q 649 1007 675 1031 l 589 951 q 540 919 561 928 q 492 910 518 910 q 436 922 460 910 q 390 956 413 933 l 275 1068 q 294 1129 275 1108 q 346 1150 313 1150 q 388 1138 368 1150 q 436 1094 407 1126 l 492 1031 l 618 1154 z "},"ǧ":{"ha":767,"x_min":57,"x_max":681,"o":"m 513 57 q 448 33 485 43 q 363 24 411 24 q 244 41 300 24 q 147 97 189 58 q 81 198 106 136 q 57 349 57 260 q 81 491 57 429 q 151 594 106 553 q 258 657 196 636 q 397 678 321 678 q 530 660 469 678 q 626 618 590 642 q 666 581 651 601 q 681 528 681 560 l 681 -8 q 655 -131 681 -79 q 585 -215 629 -182 q 481 -262 540 -247 q 351 -278 421 -278 q 226 -265 279 -278 q 146 -235 172 -251 q 100 -157 100 -206 q 111 -111 100 -131 q 138 -82 122 -92 q 225 -121 174 -104 q 335 -137 276 -137 q 465 -106 418 -137 q 513 -3 513 -74 l 513 57 m 392 160 q 460 171 432 160 q 510 197 489 182 l 510 511 q 465 531 490 522 q 403 539 439 539 q 280 492 326 539 q 233 349 233 446 q 245 260 233 296 q 278 201 257 224 q 329 169 300 179 q 392 160 358 160 m 396 863 l 521 988 q 585 967 561 986 q 610 917 610 947 q 597 878 610 894 q 558 839 583 863 l 485 769 q 399 733 444 733 q 347 744 369 733 q 289 788 324 754 l 179 896 q 178 908 178 901 q 194 960 178 936 q 246 985 211 985 q 285 975 268 985 q 331 935 303 965 l 396 863 z "}}}
